G04 EAGLE Gerber RS-274X export*
G75*
%MOMM*%
%FSLAX34Y34*%
%LPD*%
%INBoard Outline*%
%IPPOS*%
%AMOC8*
5,1,8,0,0,1.08239X$1,22.5*%
G01*
%ADD10C,0.000000*%
%ADD11C,0.254000*%


D10*
X0Y203100D02*
X0Y12700D01*
X4Y12393D01*
X15Y12086D01*
X33Y11780D01*
X59Y11474D01*
X93Y11169D01*
X133Y10865D01*
X181Y10562D01*
X237Y10260D01*
X299Y9960D01*
X369Y9661D01*
X446Y9364D01*
X530Y9068D01*
X622Y8775D01*
X720Y8485D01*
X825Y8197D01*
X938Y7911D01*
X1057Y7628D01*
X1183Y7348D01*
X1315Y7071D01*
X1455Y6798D01*
X1601Y6528D01*
X1753Y6262D01*
X1912Y5999D01*
X2077Y5740D01*
X2248Y5486D01*
X2425Y5235D01*
X2609Y4989D01*
X2798Y4747D01*
X2993Y4511D01*
X3194Y4278D01*
X3400Y4051D01*
X3612Y3829D01*
X3829Y3612D01*
X4051Y3400D01*
X4278Y3194D01*
X4511Y2993D01*
X4747Y2798D01*
X4989Y2609D01*
X5235Y2425D01*
X5486Y2248D01*
X5740Y2077D01*
X5999Y1912D01*
X6262Y1753D01*
X6528Y1601D01*
X6798Y1455D01*
X7071Y1315D01*
X7348Y1183D01*
X7628Y1057D01*
X7911Y938D01*
X8197Y825D01*
X8485Y720D01*
X8775Y622D01*
X9068Y530D01*
X9364Y446D01*
X9661Y369D01*
X9960Y299D01*
X10260Y237D01*
X10562Y181D01*
X10865Y133D01*
X11169Y93D01*
X11474Y59D01*
X11780Y33D01*
X12086Y15D01*
X12393Y4D01*
X12700Y0D01*
X285204Y0D01*
X285598Y5D01*
X285991Y19D01*
X286384Y43D01*
X286777Y76D01*
X287168Y119D01*
X287559Y171D01*
X287948Y233D01*
X288335Y304D01*
X288720Y384D01*
X289104Y474D01*
X289485Y572D01*
X289864Y680D01*
X290240Y798D01*
X290613Y924D01*
X290983Y1059D01*
X291349Y1203D01*
X291712Y1356D01*
X292071Y1518D01*
X292426Y1688D01*
X292777Y1867D01*
X293124Y2054D01*
X293465Y2249D01*
X293802Y2453D01*
X294134Y2665D01*
X294461Y2885D01*
X294783Y3112D01*
X295098Y3348D01*
X295408Y3590D01*
X295712Y3841D01*
X296010Y4098D01*
X296302Y4363D01*
X296587Y4635D01*
X296865Y4913D01*
X297137Y5198D01*
X297402Y5490D01*
X297659Y5788D01*
X297910Y6092D01*
X298152Y6402D01*
X298388Y6717D01*
X298615Y7039D01*
X298835Y7366D01*
X299047Y7698D01*
X299251Y8035D01*
X299446Y8376D01*
X299633Y8723D01*
X299812Y9074D01*
X299982Y9429D01*
X300144Y9788D01*
X300297Y10151D01*
X300441Y10517D01*
X300576Y10887D01*
X300702Y11260D01*
X300820Y11636D01*
X300928Y12015D01*
X301026Y12396D01*
X301116Y12780D01*
X301196Y13165D01*
X301267Y13552D01*
X301329Y13941D01*
X301381Y14332D01*
X301424Y14723D01*
X301457Y15116D01*
X301481Y15509D01*
X301495Y15902D01*
X301500Y16296D01*
X301500Y203200D01*
X301496Y203504D01*
X301485Y203809D01*
X301467Y204113D01*
X301441Y204416D01*
X301408Y204719D01*
X301368Y205021D01*
X301320Y205321D01*
X301265Y205621D01*
X301203Y205919D01*
X301134Y206215D01*
X301057Y206510D01*
X300974Y206803D01*
X300883Y207094D01*
X300786Y207382D01*
X300681Y207668D01*
X300570Y207951D01*
X300452Y208232D01*
X300327Y208510D01*
X300195Y208784D01*
X300057Y209056D01*
X299912Y209323D01*
X299761Y209588D01*
X299603Y209848D01*
X299440Y210105D01*
X299270Y210358D01*
X299094Y210606D01*
X298912Y210850D01*
X298724Y211090D01*
X298530Y211325D01*
X298331Y211555D01*
X298127Y211781D01*
X297917Y212001D01*
X297701Y212217D01*
X297481Y212427D01*
X297255Y212631D01*
X297025Y212830D01*
X296790Y213024D01*
X296550Y213212D01*
X296306Y213394D01*
X296058Y213570D01*
X295805Y213740D01*
X295548Y213903D01*
X295288Y214061D01*
X295023Y214212D01*
X294756Y214357D01*
X294484Y214495D01*
X294210Y214627D01*
X293932Y214752D01*
X293651Y214870D01*
X293368Y214981D01*
X293082Y215086D01*
X292794Y215183D01*
X292503Y215274D01*
X292210Y215357D01*
X291915Y215434D01*
X291619Y215503D01*
X291321Y215565D01*
X291021Y215620D01*
X290721Y215668D01*
X290419Y215708D01*
X290116Y215741D01*
X289813Y215767D01*
X289509Y215785D01*
X289204Y215796D01*
X288900Y215800D01*
X12700Y215800D01*
X12393Y215796D01*
X12086Y215785D01*
X11780Y215767D01*
X11474Y215741D01*
X11169Y215707D01*
X10865Y215667D01*
X10562Y215619D01*
X10260Y215563D01*
X9960Y215501D01*
X9661Y215431D01*
X9364Y215354D01*
X9068Y215270D01*
X8775Y215178D01*
X8485Y215080D01*
X8197Y214975D01*
X7911Y214862D01*
X7628Y214743D01*
X7348Y214617D01*
X7071Y214485D01*
X6798Y214345D01*
X6528Y214199D01*
X6262Y214047D01*
X5999Y213888D01*
X5740Y213723D01*
X5486Y213552D01*
X5235Y213375D01*
X4989Y213191D01*
X4747Y213002D01*
X4511Y212807D01*
X4278Y212606D01*
X4051Y212400D01*
X3829Y212188D01*
X3612Y211971D01*
X3400Y211749D01*
X3194Y211522D01*
X2993Y211289D01*
X2798Y211053D01*
X2609Y210811D01*
X2425Y210565D01*
X2248Y210314D01*
X2077Y210060D01*
X1912Y209801D01*
X1753Y209538D01*
X1601Y209272D01*
X1455Y209002D01*
X1315Y208729D01*
X1183Y208452D01*
X1057Y208172D01*
X938Y207889D01*
X825Y207603D01*
X720Y207315D01*
X622Y207025D01*
X530Y206732D01*
X446Y206436D01*
X369Y206139D01*
X299Y205840D01*
X237Y205540D01*
X181Y205238D01*
X133Y204935D01*
X93Y204631D01*
X59Y204326D01*
X33Y204020D01*
X15Y203714D01*
X4Y203407D01*
X0Y203100D01*
D11*
X0Y12700D02*
X48Y11593D01*
X193Y10495D01*
X433Y9413D01*
X766Y8356D01*
X1190Y7333D01*
X1701Y6350D01*
X2297Y5416D01*
X2971Y4537D01*
X3720Y3720D01*
X4537Y2971D01*
X5416Y2297D01*
X6350Y1701D01*
X7333Y1190D01*
X8356Y766D01*
X9413Y433D01*
X10495Y193D01*
X11593Y48D01*
X12700Y0D01*
X285204Y0D01*
X286624Y62D01*
X288034Y248D01*
X289422Y555D01*
X290778Y983D01*
X292091Y1527D01*
X293352Y2183D01*
X294551Y2947D01*
X295679Y3813D01*
X296727Y4773D01*
X297687Y5821D01*
X298553Y6949D01*
X299317Y8148D01*
X299973Y9409D01*
X300517Y10722D01*
X300945Y12078D01*
X301252Y13466D01*
X301438Y14876D01*
X301500Y16296D01*
X301500Y203200D01*
X301452Y204298D01*
X301309Y205388D01*
X301071Y206461D01*
X300740Y207509D01*
X300319Y208525D01*
X299812Y209500D01*
X299221Y210427D01*
X298552Y211299D01*
X297810Y212110D01*
X296999Y212852D01*
X296127Y213521D01*
X295200Y214112D01*
X294225Y214619D01*
X293209Y215040D01*
X292161Y215371D01*
X291088Y215609D01*
X289998Y215752D01*
X288900Y215800D01*
X12700Y215800D01*
X11593Y215752D01*
X10495Y215607D01*
X9413Y215367D01*
X8356Y215034D01*
X7333Y214610D01*
X6350Y214099D01*
X5416Y213503D01*
X4537Y212829D01*
X3720Y212080D01*
X2971Y211263D01*
X2297Y210384D01*
X1701Y209450D01*
X1190Y208467D01*
X766Y207444D01*
X433Y206387D01*
X193Y205305D01*
X48Y204207D01*
X0Y203100D01*
X0Y12700D01*
M02*
