G04 EAGLE Gerber RS-274X export*
G75*
%MOMM*%
%FSLAX34Y34*%
%LPD*%
%INSilkscreen Bottom*%
%IPPOS*%
%AMOC8*
5,1,8,0,0,1.08239X$1,22.5*%
G01*
%ADD10C,0.076200*%

G36*
X117536Y83457D02*
X117536Y83457D01*
X117597Y83471D01*
X117603Y83477D01*
X117610Y83479D01*
X117652Y83526D01*
X117697Y83571D01*
X117700Y83580D01*
X117704Y83584D01*
X117706Y83595D01*
X117724Y83647D01*
X118838Y89710D01*
X120711Y90178D01*
X120717Y90182D01*
X120730Y90184D01*
X122254Y90692D01*
X122265Y90699D01*
X122302Y90713D01*
X123687Y91521D01*
X128888Y87930D01*
X128934Y87914D01*
X128976Y87891D01*
X128999Y87892D01*
X129022Y87885D01*
X129068Y87896D01*
X129116Y87899D01*
X129146Y87916D01*
X129159Y87919D01*
X129166Y87926D01*
X129187Y87938D01*
X130330Y88827D01*
X130334Y88832D01*
X130343Y88838D01*
X131486Y89854D01*
X131489Y89858D01*
X131497Y89864D01*
X132386Y90753D01*
X132389Y90758D01*
X132398Y90765D01*
X133287Y91781D01*
X133310Y91832D01*
X133340Y91879D01*
X133340Y91895D01*
X133346Y91909D01*
X133339Y91964D01*
X133339Y92020D01*
X133330Y92039D01*
X133328Y92049D01*
X133320Y92059D01*
X133303Y92093D01*
X129847Y97031D01*
X130767Y98412D01*
X130771Y98424D01*
X130790Y98455D01*
X131425Y99979D01*
X131427Y99996D01*
X131436Y100012D01*
X131435Y100065D01*
X131441Y100119D01*
X131433Y100135D01*
X131432Y100152D01*
X131403Y100197D01*
X131379Y100245D01*
X131364Y100255D01*
X131354Y100270D01*
X131285Y100311D01*
X121379Y104248D01*
X121315Y104254D01*
X121252Y104264D01*
X121246Y104261D01*
X121238Y104262D01*
X121181Y104233D01*
X121123Y104208D01*
X121117Y104201D01*
X121112Y104198D01*
X121107Y104189D01*
X121070Y104147D01*
X120361Y103004D01*
X119452Y102049D01*
X118367Y101299D01*
X117152Y100786D01*
X115859Y100532D01*
X114540Y100546D01*
X113252Y100830D01*
X112049Y101370D01*
X110982Y102144D01*
X110094Y103119D01*
X109424Y104255D01*
X109000Y105503D01*
X108840Y106811D01*
X108959Y108164D01*
X109366Y109459D01*
X110040Y110636D01*
X110951Y111642D01*
X112056Y112430D01*
X113304Y112963D01*
X114637Y113216D01*
X115994Y113178D01*
X117311Y112851D01*
X118527Y112249D01*
X119586Y111400D01*
X120439Y110345D01*
X121059Y109107D01*
X121106Y109056D01*
X121153Y109004D01*
X121154Y109004D01*
X121154Y109003D01*
X121222Y108985D01*
X121289Y108967D01*
X121290Y108967D01*
X121292Y108967D01*
X121369Y108981D01*
X131529Y112537D01*
X131556Y112557D01*
X131588Y112567D01*
X131612Y112597D01*
X131643Y112619D01*
X131656Y112650D01*
X131678Y112676D01*
X131682Y112714D01*
X131697Y112749D01*
X131691Y112782D01*
X131695Y112816D01*
X131673Y112882D01*
X131672Y112888D01*
X131671Y112889D01*
X131670Y112893D01*
X130216Y115680D01*
X133686Y120761D01*
X133703Y120812D01*
X133726Y120859D01*
X133724Y120878D01*
X133730Y120895D01*
X133717Y120947D01*
X133712Y120999D01*
X133698Y121021D01*
X133696Y121032D01*
X133687Y121040D01*
X133669Y121069D01*
X132907Y121958D01*
X132906Y121959D01*
X132904Y121961D01*
X131888Y123104D01*
X131885Y123107D01*
X131884Y123107D01*
X131883Y123108D01*
X131878Y123115D01*
X130989Y124004D01*
X130985Y124007D01*
X130978Y124014D01*
X129835Y125030D01*
X129782Y125056D01*
X129732Y125086D01*
X129719Y125086D01*
X129708Y125091D01*
X129649Y125084D01*
X129591Y125083D01*
X129576Y125075D01*
X129568Y125074D01*
X129558Y125066D01*
X129518Y125046D01*
X124572Y121460D01*
X123191Y122266D01*
X123185Y122267D01*
X123176Y122274D01*
X122160Y122782D01*
X122148Y122784D01*
X122120Y122798D01*
X120850Y123179D01*
X120849Y123179D01*
X120847Y123180D01*
X119223Y123643D01*
X118233Y129708D01*
X118205Y129767D01*
X118179Y129827D01*
X118175Y129830D01*
X118172Y129835D01*
X118117Y129870D01*
X118063Y129907D01*
X118056Y129908D01*
X118053Y129910D01*
X118044Y129910D01*
X117983Y129920D01*
X112395Y129920D01*
X112332Y129902D01*
X112269Y129886D01*
X112265Y129883D01*
X112260Y129881D01*
X112216Y129832D01*
X112171Y129785D01*
X112169Y129778D01*
X112166Y129776D01*
X112165Y129767D01*
X112145Y129708D01*
X111151Y123622D01*
X110406Y123303D01*
X109026Y122926D01*
X109016Y122920D01*
X108987Y122912D01*
X107336Y122150D01*
X107329Y122144D01*
X107312Y122137D01*
X106181Y121459D01*
X101108Y124923D01*
X101049Y124943D01*
X100990Y124966D01*
X100982Y124964D01*
X100974Y124967D01*
X100913Y124952D01*
X100852Y124941D01*
X100843Y124934D01*
X100837Y124933D01*
X100829Y124924D01*
X100786Y124893D01*
X100156Y124264D01*
X99019Y123252D01*
X99016Y123248D01*
X99008Y123242D01*
X97738Y121972D01*
X97733Y121963D01*
X97717Y121948D01*
X96828Y120805D01*
X96819Y120783D01*
X96813Y120776D01*
X96810Y120761D01*
X96809Y120758D01*
X96783Y120715D01*
X96784Y120694D01*
X96776Y120675D01*
X96785Y120625D01*
X96786Y120574D01*
X96800Y120548D01*
X96802Y120536D01*
X96810Y120527D01*
X96823Y120501D01*
X100410Y115554D01*
X99475Y113918D01*
X99473Y113907D01*
X99460Y113886D01*
X98952Y112616D01*
X98951Y112611D01*
X98947Y112602D01*
X98360Y110842D01*
X92414Y109851D01*
X92367Y109828D01*
X92316Y109812D01*
X92304Y109798D01*
X92287Y109790D01*
X92259Y109745D01*
X92225Y109705D01*
X92218Y109680D01*
X92212Y109670D01*
X92213Y109658D01*
X92204Y109626D01*
X92077Y108356D01*
X92079Y108348D01*
X92076Y108331D01*
X92076Y105410D01*
X92078Y105403D01*
X92077Y105389D01*
X92204Y103865D01*
X92223Y103815D01*
X92234Y103764D01*
X92247Y103751D01*
X92254Y103733D01*
X92296Y103702D01*
X92334Y103664D01*
X92358Y103656D01*
X92367Y103649D01*
X92379Y103648D01*
X92410Y103637D01*
X98468Y102524D01*
X98686Y101545D01*
X98692Y101534D01*
X98702Y101497D01*
X99718Y99211D01*
X99722Y99205D01*
X99728Y99191D01*
X100285Y98187D01*
X96694Y93110D01*
X96680Y93068D01*
X96657Y93031D01*
X96657Y93003D01*
X96648Y92977D01*
X96658Y92934D01*
X96659Y92890D01*
X96677Y92852D01*
X96680Y92840D01*
X96687Y92834D01*
X96695Y92817D01*
X97330Y91928D01*
X97336Y91923D01*
X97345Y91908D01*
X98234Y90892D01*
X98239Y90889D01*
X98246Y90880D01*
X99516Y89610D01*
X99524Y89606D01*
X99537Y89591D01*
X100807Y88575D01*
X100855Y88555D01*
X100899Y88528D01*
X100919Y88529D01*
X100937Y88521D01*
X100988Y88530D01*
X101040Y88531D01*
X101065Y88543D01*
X101076Y88545D01*
X101085Y88553D01*
X101113Y88567D01*
X105942Y92034D01*
X106051Y91979D01*
X107568Y91094D01*
X107577Y91092D01*
X107591Y91082D01*
X108988Y90447D01*
X108998Y90446D01*
X109019Y90436D01*
X110523Y89973D01*
X111638Y83901D01*
X111661Y83856D01*
X111676Y83807D01*
X111692Y83794D01*
X111701Y83775D01*
X111745Y83749D01*
X111783Y83716D01*
X111810Y83709D01*
X111814Y83706D01*
X111816Y83706D01*
X111822Y83702D01*
X111833Y83703D01*
X111862Y83695D01*
X113132Y83568D01*
X113133Y83568D01*
X113134Y83568D01*
X114531Y83441D01*
X114539Y83442D01*
X114554Y83440D01*
X117475Y83440D01*
X117536Y83457D01*
G37*
D10*
X142000Y136017D02*
X140363Y136017D01*
X140284Y136015D01*
X140205Y136009D01*
X140126Y136000D01*
X140048Y135987D01*
X139971Y135969D01*
X139895Y135949D01*
X139820Y135924D01*
X139746Y135896D01*
X139673Y135865D01*
X139602Y135829D01*
X139533Y135791D01*
X139466Y135749D01*
X139401Y135704D01*
X139338Y135656D01*
X139277Y135605D01*
X139220Y135551D01*
X139164Y135495D01*
X139112Y135436D01*
X139062Y135374D01*
X139016Y135310D01*
X138972Y135244D01*
X138932Y135176D01*
X138896Y135106D01*
X138862Y135034D01*
X138832Y134960D01*
X138806Y134886D01*
X138783Y134810D01*
X138765Y134733D01*
X138749Y134656D01*
X138738Y134577D01*
X138730Y134499D01*
X138726Y134420D01*
X138726Y134340D01*
X138730Y134261D01*
X138738Y134183D01*
X138749Y134104D01*
X138765Y134027D01*
X138783Y133950D01*
X138806Y133874D01*
X138832Y133800D01*
X138862Y133726D01*
X138896Y133654D01*
X138932Y133584D01*
X138972Y133516D01*
X139016Y133450D01*
X139062Y133386D01*
X139112Y133324D01*
X139164Y133265D01*
X139220Y133209D01*
X139277Y133155D01*
X139338Y133104D01*
X139401Y133056D01*
X139466Y133011D01*
X139533Y132969D01*
X139602Y132931D01*
X139673Y132895D01*
X139746Y132864D01*
X139820Y132836D01*
X139895Y132811D01*
X139971Y132791D01*
X140048Y132773D01*
X140126Y132760D01*
X140205Y132751D01*
X140284Y132745D01*
X140363Y132743D01*
X142000Y132743D01*
X142079Y132745D01*
X142158Y132751D01*
X142237Y132760D01*
X142315Y132773D01*
X142392Y132791D01*
X142468Y132811D01*
X142543Y132836D01*
X142617Y132864D01*
X142690Y132895D01*
X142761Y132931D01*
X142830Y132969D01*
X142897Y133011D01*
X142962Y133056D01*
X143025Y133104D01*
X143086Y133155D01*
X143143Y133209D01*
X143199Y133265D01*
X143251Y133324D01*
X143301Y133386D01*
X143347Y133450D01*
X143391Y133516D01*
X143431Y133584D01*
X143467Y133654D01*
X143501Y133726D01*
X143531Y133800D01*
X143557Y133874D01*
X143580Y133950D01*
X143598Y134027D01*
X143614Y134104D01*
X143625Y134183D01*
X143633Y134261D01*
X143637Y134340D01*
X143637Y134420D01*
X143633Y134499D01*
X143625Y134577D01*
X143614Y134656D01*
X143598Y134733D01*
X143580Y134810D01*
X143557Y134886D01*
X143531Y134960D01*
X143501Y135034D01*
X143467Y135106D01*
X143431Y135176D01*
X143391Y135244D01*
X143347Y135310D01*
X143301Y135374D01*
X143251Y135436D01*
X143199Y135495D01*
X143143Y135551D01*
X143086Y135605D01*
X143025Y135656D01*
X142962Y135704D01*
X142897Y135749D01*
X142830Y135791D01*
X142761Y135829D01*
X142690Y135865D01*
X142617Y135896D01*
X142543Y135924D01*
X142468Y135949D01*
X142392Y135969D01*
X142315Y135987D01*
X142237Y136000D01*
X142158Y136009D01*
X142079Y136015D01*
X142000Y136017D01*
X138726Y129392D02*
X146092Y129392D01*
X138726Y129392D02*
X138726Y127346D01*
X138728Y127277D01*
X138734Y127209D01*
X138743Y127140D01*
X138757Y127073D01*
X138774Y127006D01*
X138795Y126940D01*
X138819Y126876D01*
X138848Y126813D01*
X138879Y126752D01*
X138914Y126693D01*
X138952Y126635D01*
X138994Y126580D01*
X139038Y126528D01*
X139086Y126478D01*
X139136Y126430D01*
X139188Y126386D01*
X139243Y126344D01*
X139301Y126306D01*
X139360Y126271D01*
X139421Y126240D01*
X139484Y126211D01*
X139548Y126187D01*
X139614Y126166D01*
X139681Y126149D01*
X139748Y126135D01*
X139817Y126126D01*
X139885Y126120D01*
X139954Y126118D01*
X139954Y126119D02*
X142409Y126119D01*
X142409Y126118D02*
X142478Y126120D01*
X142546Y126126D01*
X142615Y126135D01*
X142682Y126149D01*
X142749Y126166D01*
X142815Y126187D01*
X142879Y126211D01*
X142942Y126240D01*
X143003Y126271D01*
X143062Y126306D01*
X143120Y126344D01*
X143175Y126386D01*
X143227Y126430D01*
X143277Y126478D01*
X143325Y126528D01*
X143369Y126580D01*
X143411Y126635D01*
X143449Y126693D01*
X143484Y126752D01*
X143515Y126813D01*
X143544Y126876D01*
X143568Y126940D01*
X143589Y127006D01*
X143606Y127073D01*
X143620Y127140D01*
X143629Y127209D01*
X143635Y127277D01*
X143637Y127346D01*
X143637Y129392D01*
X143637Y121866D02*
X143637Y119820D01*
X143637Y121866D02*
X143635Y121935D01*
X143629Y122003D01*
X143620Y122072D01*
X143606Y122139D01*
X143589Y122206D01*
X143568Y122272D01*
X143544Y122336D01*
X143515Y122399D01*
X143484Y122460D01*
X143449Y122519D01*
X143411Y122577D01*
X143369Y122632D01*
X143325Y122684D01*
X143277Y122734D01*
X143227Y122782D01*
X143175Y122826D01*
X143120Y122868D01*
X143062Y122906D01*
X143003Y122941D01*
X142942Y122972D01*
X142879Y123001D01*
X142815Y123025D01*
X142749Y123046D01*
X142682Y123063D01*
X142615Y123077D01*
X142546Y123086D01*
X142478Y123092D01*
X142409Y123094D01*
X140363Y123094D01*
X140284Y123092D01*
X140205Y123086D01*
X140126Y123077D01*
X140048Y123064D01*
X139971Y123046D01*
X139895Y123026D01*
X139820Y123001D01*
X139746Y122973D01*
X139673Y122942D01*
X139602Y122906D01*
X139533Y122868D01*
X139466Y122826D01*
X139401Y122781D01*
X139338Y122733D01*
X139277Y122682D01*
X139220Y122628D01*
X139164Y122572D01*
X139112Y122513D01*
X139062Y122451D01*
X139016Y122387D01*
X138972Y122321D01*
X138932Y122253D01*
X138896Y122183D01*
X138862Y122111D01*
X138832Y122037D01*
X138806Y121963D01*
X138783Y121887D01*
X138765Y121810D01*
X138749Y121733D01*
X138738Y121654D01*
X138730Y121576D01*
X138726Y121497D01*
X138726Y121417D01*
X138730Y121338D01*
X138738Y121260D01*
X138749Y121181D01*
X138765Y121104D01*
X138783Y121027D01*
X138806Y120951D01*
X138832Y120877D01*
X138862Y120803D01*
X138896Y120731D01*
X138932Y120661D01*
X138972Y120593D01*
X139016Y120527D01*
X139062Y120463D01*
X139112Y120401D01*
X139164Y120342D01*
X139220Y120286D01*
X139277Y120232D01*
X139338Y120181D01*
X139401Y120133D01*
X139466Y120088D01*
X139533Y120046D01*
X139602Y120008D01*
X139673Y119972D01*
X139746Y119941D01*
X139820Y119913D01*
X139895Y119888D01*
X139971Y119868D01*
X140048Y119850D01*
X140126Y119837D01*
X140205Y119828D01*
X140284Y119822D01*
X140363Y119820D01*
X141182Y119820D01*
X141182Y123094D01*
X143637Y116510D02*
X138726Y116510D01*
X138726Y114464D01*
X138728Y114395D01*
X138734Y114327D01*
X138743Y114258D01*
X138757Y114191D01*
X138774Y114124D01*
X138795Y114058D01*
X138819Y113994D01*
X138848Y113931D01*
X138879Y113870D01*
X138914Y113811D01*
X138952Y113753D01*
X138994Y113698D01*
X139038Y113646D01*
X139086Y113596D01*
X139136Y113548D01*
X139188Y113504D01*
X139243Y113462D01*
X139301Y113424D01*
X139360Y113389D01*
X139421Y113358D01*
X139484Y113329D01*
X139548Y113305D01*
X139614Y113284D01*
X139681Y113267D01*
X139748Y113253D01*
X139817Y113244D01*
X139885Y113238D01*
X139954Y113236D01*
X143637Y113236D01*
X140772Y105411D02*
X141591Y103365D01*
X140772Y105411D02*
X140747Y105470D01*
X140718Y105527D01*
X140685Y105582D01*
X140649Y105635D01*
X140611Y105686D01*
X140569Y105734D01*
X140524Y105780D01*
X140477Y105823D01*
X140427Y105863D01*
X140375Y105900D01*
X140320Y105934D01*
X140264Y105965D01*
X140206Y105992D01*
X140146Y106015D01*
X140086Y106035D01*
X140024Y106051D01*
X139961Y106064D01*
X139897Y106072D01*
X139834Y106077D01*
X139770Y106078D01*
X139706Y106075D01*
X139642Y106068D01*
X139579Y106057D01*
X139517Y106043D01*
X139455Y106025D01*
X139395Y106003D01*
X139336Y105978D01*
X139279Y105949D01*
X139224Y105916D01*
X139171Y105881D01*
X139120Y105842D01*
X139071Y105800D01*
X139025Y105756D01*
X138982Y105708D01*
X138942Y105659D01*
X138905Y105606D01*
X138871Y105552D01*
X138840Y105496D01*
X138813Y105438D01*
X138789Y105379D01*
X138770Y105318D01*
X138753Y105256D01*
X138741Y105193D01*
X138732Y105130D01*
X138727Y105066D01*
X138726Y105002D01*
X138730Y104866D01*
X138738Y104731D01*
X138750Y104595D01*
X138766Y104461D01*
X138786Y104326D01*
X138809Y104193D01*
X138837Y104060D01*
X138868Y103928D01*
X138903Y103797D01*
X138942Y103667D01*
X138985Y103538D01*
X139032Y103411D01*
X139082Y103285D01*
X139136Y103160D01*
X141591Y103365D02*
X141616Y103306D01*
X141645Y103249D01*
X141678Y103194D01*
X141714Y103141D01*
X141752Y103090D01*
X141794Y103042D01*
X141839Y102996D01*
X141886Y102953D01*
X141936Y102913D01*
X141988Y102876D01*
X142043Y102842D01*
X142099Y102811D01*
X142157Y102784D01*
X142217Y102761D01*
X142277Y102741D01*
X142339Y102725D01*
X142402Y102712D01*
X142466Y102704D01*
X142529Y102699D01*
X142593Y102698D01*
X142657Y102701D01*
X142721Y102708D01*
X142784Y102719D01*
X142846Y102733D01*
X142908Y102751D01*
X142968Y102773D01*
X143027Y102798D01*
X143084Y102827D01*
X143139Y102860D01*
X143192Y102895D01*
X143243Y102934D01*
X143292Y102976D01*
X143338Y103020D01*
X143381Y103068D01*
X143421Y103117D01*
X143458Y103170D01*
X143492Y103224D01*
X143523Y103280D01*
X143550Y103338D01*
X143574Y103397D01*
X143593Y103458D01*
X143610Y103520D01*
X143622Y103583D01*
X143631Y103646D01*
X143636Y103710D01*
X143637Y103774D01*
X143633Y103938D01*
X143625Y104102D01*
X143613Y104266D01*
X143597Y104429D01*
X143577Y104592D01*
X143554Y104755D01*
X143526Y104916D01*
X143495Y105078D01*
X143460Y105238D01*
X143421Y105397D01*
X143378Y105556D01*
X143332Y105713D01*
X143282Y105870D01*
X143228Y106025D01*
X142000Y99685D02*
X140363Y99685D01*
X140284Y99683D01*
X140205Y99677D01*
X140126Y99668D01*
X140048Y99655D01*
X139971Y99637D01*
X139895Y99617D01*
X139820Y99592D01*
X139746Y99564D01*
X139673Y99533D01*
X139602Y99497D01*
X139533Y99459D01*
X139466Y99417D01*
X139401Y99372D01*
X139338Y99324D01*
X139277Y99273D01*
X139220Y99219D01*
X139164Y99163D01*
X139112Y99104D01*
X139062Y99042D01*
X139016Y98978D01*
X138972Y98912D01*
X138932Y98844D01*
X138896Y98774D01*
X138862Y98702D01*
X138832Y98628D01*
X138806Y98554D01*
X138783Y98478D01*
X138765Y98401D01*
X138749Y98324D01*
X138738Y98245D01*
X138730Y98167D01*
X138726Y98088D01*
X138726Y98008D01*
X138730Y97929D01*
X138738Y97851D01*
X138749Y97772D01*
X138765Y97695D01*
X138783Y97618D01*
X138806Y97542D01*
X138832Y97468D01*
X138862Y97394D01*
X138896Y97322D01*
X138932Y97252D01*
X138972Y97184D01*
X139016Y97118D01*
X139062Y97054D01*
X139112Y96992D01*
X139164Y96933D01*
X139220Y96877D01*
X139277Y96823D01*
X139338Y96772D01*
X139401Y96724D01*
X139466Y96679D01*
X139533Y96637D01*
X139602Y96599D01*
X139673Y96563D01*
X139746Y96532D01*
X139820Y96504D01*
X139895Y96479D01*
X139971Y96459D01*
X140048Y96441D01*
X140126Y96428D01*
X140205Y96419D01*
X140284Y96413D01*
X140363Y96411D01*
X142000Y96411D01*
X142079Y96413D01*
X142158Y96419D01*
X142237Y96428D01*
X142315Y96441D01*
X142392Y96459D01*
X142468Y96479D01*
X142543Y96504D01*
X142617Y96532D01*
X142690Y96563D01*
X142761Y96599D01*
X142830Y96637D01*
X142897Y96679D01*
X142962Y96724D01*
X143025Y96772D01*
X143086Y96823D01*
X143143Y96877D01*
X143199Y96933D01*
X143251Y96992D01*
X143301Y97054D01*
X143347Y97118D01*
X143391Y97184D01*
X143431Y97252D01*
X143467Y97322D01*
X143501Y97394D01*
X143531Y97468D01*
X143557Y97542D01*
X143580Y97618D01*
X143598Y97695D01*
X143614Y97772D01*
X143625Y97851D01*
X143633Y97929D01*
X143637Y98008D01*
X143637Y98088D01*
X143633Y98167D01*
X143625Y98245D01*
X143614Y98324D01*
X143598Y98401D01*
X143580Y98478D01*
X143557Y98554D01*
X143531Y98628D01*
X143501Y98702D01*
X143467Y98774D01*
X143431Y98844D01*
X143391Y98912D01*
X143347Y98978D01*
X143301Y99042D01*
X143251Y99104D01*
X143199Y99163D01*
X143143Y99219D01*
X143086Y99273D01*
X143025Y99324D01*
X142962Y99372D01*
X142897Y99417D01*
X142830Y99459D01*
X142761Y99497D01*
X142690Y99533D01*
X142617Y99564D01*
X142543Y99592D01*
X142468Y99617D01*
X142392Y99637D01*
X142315Y99655D01*
X142237Y99668D01*
X142158Y99677D01*
X142079Y99683D01*
X142000Y99685D01*
X142409Y93101D02*
X138726Y93101D01*
X142409Y93102D02*
X142478Y93100D01*
X142546Y93094D01*
X142615Y93085D01*
X142682Y93071D01*
X142749Y93054D01*
X142815Y93033D01*
X142879Y93009D01*
X142942Y92980D01*
X143003Y92949D01*
X143062Y92914D01*
X143120Y92876D01*
X143175Y92834D01*
X143227Y92790D01*
X143277Y92742D01*
X143325Y92692D01*
X143369Y92640D01*
X143411Y92585D01*
X143449Y92527D01*
X143484Y92468D01*
X143515Y92407D01*
X143544Y92344D01*
X143568Y92280D01*
X143589Y92214D01*
X143606Y92147D01*
X143620Y92080D01*
X143629Y92011D01*
X143635Y91943D01*
X143637Y91874D01*
X143637Y89828D01*
X138726Y89828D01*
X138726Y86228D02*
X143637Y86228D01*
X138726Y86228D02*
X138726Y83772D01*
X139545Y83772D01*
X143637Y80160D02*
X143637Y78523D01*
X143637Y80160D02*
X143635Y80229D01*
X143629Y80297D01*
X143620Y80366D01*
X143606Y80433D01*
X143589Y80500D01*
X143568Y80566D01*
X143544Y80630D01*
X143515Y80693D01*
X143484Y80754D01*
X143449Y80813D01*
X143411Y80871D01*
X143369Y80926D01*
X143325Y80978D01*
X143277Y81028D01*
X143227Y81076D01*
X143175Y81120D01*
X143120Y81162D01*
X143062Y81200D01*
X143003Y81235D01*
X142942Y81266D01*
X142879Y81295D01*
X142815Y81319D01*
X142749Y81340D01*
X142682Y81357D01*
X142615Y81371D01*
X142546Y81380D01*
X142478Y81386D01*
X142409Y81388D01*
X139954Y81388D01*
X139885Y81386D01*
X139817Y81380D01*
X139748Y81371D01*
X139681Y81357D01*
X139614Y81340D01*
X139548Y81319D01*
X139484Y81295D01*
X139421Y81266D01*
X139360Y81235D01*
X139301Y81200D01*
X139243Y81162D01*
X139188Y81120D01*
X139136Y81076D01*
X139086Y81028D01*
X139038Y80978D01*
X138994Y80926D01*
X138953Y80871D01*
X138914Y80813D01*
X138879Y80754D01*
X138848Y80693D01*
X138819Y80630D01*
X138795Y80566D01*
X138774Y80500D01*
X138757Y80433D01*
X138743Y80366D01*
X138734Y80298D01*
X138728Y80229D01*
X138726Y80160D01*
X138726Y78523D01*
X143637Y74561D02*
X143637Y72515D01*
X143637Y74561D02*
X143635Y74630D01*
X143629Y74698D01*
X143620Y74767D01*
X143606Y74834D01*
X143589Y74901D01*
X143568Y74967D01*
X143544Y75031D01*
X143515Y75094D01*
X143484Y75155D01*
X143449Y75214D01*
X143411Y75272D01*
X143369Y75327D01*
X143325Y75379D01*
X143277Y75429D01*
X143227Y75477D01*
X143175Y75521D01*
X143120Y75563D01*
X143062Y75601D01*
X143003Y75636D01*
X142942Y75667D01*
X142879Y75696D01*
X142815Y75720D01*
X142749Y75741D01*
X142682Y75758D01*
X142615Y75772D01*
X142546Y75781D01*
X142478Y75787D01*
X142409Y75789D01*
X140363Y75789D01*
X140284Y75787D01*
X140205Y75781D01*
X140126Y75772D01*
X140048Y75759D01*
X139971Y75741D01*
X139895Y75721D01*
X139820Y75696D01*
X139746Y75668D01*
X139673Y75637D01*
X139602Y75601D01*
X139533Y75563D01*
X139466Y75521D01*
X139401Y75476D01*
X139338Y75428D01*
X139277Y75377D01*
X139220Y75323D01*
X139164Y75267D01*
X139112Y75208D01*
X139062Y75146D01*
X139016Y75082D01*
X138972Y75016D01*
X138932Y74948D01*
X138896Y74878D01*
X138862Y74806D01*
X138832Y74732D01*
X138806Y74658D01*
X138783Y74582D01*
X138765Y74505D01*
X138749Y74428D01*
X138738Y74349D01*
X138730Y74271D01*
X138726Y74192D01*
X138726Y74112D01*
X138730Y74033D01*
X138738Y73955D01*
X138749Y73876D01*
X138765Y73799D01*
X138783Y73722D01*
X138806Y73646D01*
X138832Y73572D01*
X138862Y73498D01*
X138896Y73426D01*
X138932Y73356D01*
X138972Y73288D01*
X139016Y73222D01*
X139062Y73158D01*
X139112Y73096D01*
X139164Y73037D01*
X139220Y72981D01*
X139277Y72927D01*
X139338Y72876D01*
X139401Y72828D01*
X139466Y72783D01*
X139533Y72741D01*
X139602Y72703D01*
X139673Y72667D01*
X139746Y72636D01*
X139820Y72608D01*
X139895Y72583D01*
X139971Y72563D01*
X140048Y72545D01*
X140126Y72532D01*
X140205Y72523D01*
X140284Y72517D01*
X140363Y72515D01*
X141182Y72515D01*
X141182Y75789D01*
X148463Y126751D02*
X155829Y126751D01*
X150918Y126751D02*
X150918Y124705D01*
X150920Y124636D01*
X150926Y124568D01*
X150935Y124499D01*
X150949Y124432D01*
X150966Y124365D01*
X150987Y124299D01*
X151011Y124235D01*
X151040Y124172D01*
X151071Y124111D01*
X151106Y124052D01*
X151144Y123994D01*
X151186Y123939D01*
X151230Y123887D01*
X151278Y123837D01*
X151328Y123789D01*
X151380Y123745D01*
X151435Y123703D01*
X151493Y123665D01*
X151552Y123630D01*
X151613Y123599D01*
X151676Y123570D01*
X151740Y123546D01*
X151806Y123525D01*
X151873Y123508D01*
X151940Y123494D01*
X152009Y123485D01*
X152077Y123479D01*
X152146Y123477D01*
X155829Y123477D01*
X152964Y118776D02*
X152964Y116935D01*
X152965Y118776D02*
X152967Y118851D01*
X152973Y118926D01*
X152983Y119000D01*
X152996Y119074D01*
X153014Y119147D01*
X153035Y119219D01*
X153060Y119289D01*
X153089Y119358D01*
X153121Y119426D01*
X153157Y119492D01*
X153196Y119556D01*
X153238Y119618D01*
X153284Y119677D01*
X153333Y119734D01*
X153384Y119789D01*
X153439Y119840D01*
X153496Y119889D01*
X153555Y119935D01*
X153617Y119977D01*
X153681Y120016D01*
X153747Y120052D01*
X153815Y120084D01*
X153884Y120113D01*
X153954Y120138D01*
X154026Y120159D01*
X154099Y120177D01*
X154173Y120190D01*
X154247Y120200D01*
X154322Y120206D01*
X154397Y120208D01*
X154472Y120206D01*
X154547Y120200D01*
X154621Y120190D01*
X154695Y120177D01*
X154768Y120159D01*
X154840Y120138D01*
X154910Y120113D01*
X154979Y120084D01*
X155047Y120052D01*
X155113Y120016D01*
X155177Y119977D01*
X155239Y119935D01*
X155298Y119889D01*
X155355Y119840D01*
X155410Y119789D01*
X155461Y119734D01*
X155510Y119677D01*
X155556Y119618D01*
X155598Y119556D01*
X155637Y119492D01*
X155673Y119426D01*
X155705Y119358D01*
X155734Y119289D01*
X155759Y119219D01*
X155780Y119147D01*
X155798Y119074D01*
X155811Y119000D01*
X155821Y118926D01*
X155827Y118851D01*
X155829Y118776D01*
X155829Y116935D01*
X152146Y116935D01*
X152146Y116934D02*
X152077Y116936D01*
X152009Y116942D01*
X151940Y116951D01*
X151873Y116965D01*
X151806Y116982D01*
X151740Y117003D01*
X151676Y117027D01*
X151613Y117056D01*
X151552Y117087D01*
X151493Y117122D01*
X151435Y117160D01*
X151380Y117202D01*
X151328Y117246D01*
X151278Y117294D01*
X151230Y117344D01*
X151186Y117396D01*
X151144Y117451D01*
X151106Y117509D01*
X151071Y117568D01*
X151040Y117629D01*
X151011Y117692D01*
X150987Y117756D01*
X150966Y117822D01*
X150949Y117889D01*
X150935Y117956D01*
X150926Y118025D01*
X150920Y118093D01*
X150918Y118162D01*
X150918Y119799D01*
X150918Y113294D02*
X155829Y113294D01*
X150918Y113294D02*
X150918Y110839D01*
X151737Y110839D01*
X148463Y105230D02*
X155829Y105230D01*
X155829Y107276D01*
X155827Y107345D01*
X155821Y107413D01*
X155812Y107482D01*
X155798Y107549D01*
X155781Y107616D01*
X155760Y107682D01*
X155736Y107746D01*
X155707Y107809D01*
X155676Y107870D01*
X155641Y107929D01*
X155603Y107987D01*
X155561Y108042D01*
X155517Y108094D01*
X155469Y108144D01*
X155419Y108192D01*
X155367Y108236D01*
X155312Y108278D01*
X155254Y108316D01*
X155195Y108351D01*
X155134Y108382D01*
X155071Y108411D01*
X155007Y108435D01*
X154941Y108456D01*
X154874Y108473D01*
X154807Y108487D01*
X154738Y108496D01*
X154670Y108502D01*
X154601Y108504D01*
X152146Y108504D01*
X152077Y108502D01*
X152009Y108496D01*
X151940Y108487D01*
X151873Y108473D01*
X151806Y108456D01*
X151740Y108435D01*
X151676Y108411D01*
X151613Y108382D01*
X151552Y108351D01*
X151493Y108316D01*
X151435Y108278D01*
X151380Y108236D01*
X151328Y108192D01*
X151278Y108144D01*
X151230Y108094D01*
X151186Y108042D01*
X151145Y107987D01*
X151106Y107929D01*
X151071Y107870D01*
X151040Y107809D01*
X151011Y107746D01*
X150987Y107682D01*
X150966Y107616D01*
X150949Y107549D01*
X150935Y107482D01*
X150926Y107414D01*
X150920Y107345D01*
X150918Y107276D01*
X150918Y105230D01*
X150918Y101966D02*
X155829Y100739D01*
X152555Y99511D01*
X155829Y98283D01*
X150918Y97056D01*
X152964Y92685D02*
X152964Y90844D01*
X152965Y92685D02*
X152967Y92760D01*
X152973Y92835D01*
X152983Y92909D01*
X152996Y92983D01*
X153014Y93056D01*
X153035Y93128D01*
X153060Y93198D01*
X153089Y93267D01*
X153121Y93335D01*
X153157Y93401D01*
X153196Y93465D01*
X153238Y93527D01*
X153284Y93586D01*
X153333Y93643D01*
X153384Y93698D01*
X153439Y93749D01*
X153496Y93798D01*
X153555Y93844D01*
X153617Y93886D01*
X153681Y93925D01*
X153747Y93961D01*
X153815Y93993D01*
X153884Y94022D01*
X153954Y94047D01*
X154026Y94068D01*
X154099Y94086D01*
X154173Y94099D01*
X154247Y94109D01*
X154322Y94115D01*
X154397Y94117D01*
X154472Y94115D01*
X154547Y94109D01*
X154621Y94099D01*
X154695Y94086D01*
X154768Y94068D01*
X154840Y94047D01*
X154910Y94022D01*
X154979Y93993D01*
X155047Y93961D01*
X155113Y93925D01*
X155177Y93886D01*
X155239Y93844D01*
X155298Y93798D01*
X155355Y93749D01*
X155410Y93698D01*
X155461Y93643D01*
X155510Y93586D01*
X155556Y93527D01*
X155598Y93465D01*
X155637Y93401D01*
X155673Y93335D01*
X155705Y93267D01*
X155734Y93198D01*
X155759Y93128D01*
X155780Y93056D01*
X155798Y92983D01*
X155811Y92909D01*
X155821Y92835D01*
X155827Y92760D01*
X155829Y92685D01*
X155829Y90844D01*
X152146Y90844D01*
X152077Y90846D01*
X152009Y90852D01*
X151940Y90861D01*
X151873Y90875D01*
X151806Y90892D01*
X151740Y90913D01*
X151676Y90937D01*
X151613Y90966D01*
X151552Y90997D01*
X151493Y91032D01*
X151435Y91070D01*
X151380Y91112D01*
X151328Y91156D01*
X151278Y91204D01*
X151230Y91254D01*
X151186Y91306D01*
X151144Y91361D01*
X151106Y91419D01*
X151071Y91478D01*
X151040Y91539D01*
X151011Y91602D01*
X150987Y91666D01*
X150966Y91732D01*
X150949Y91799D01*
X150935Y91866D01*
X150926Y91935D01*
X150920Y92003D01*
X150918Y92072D01*
X150918Y93708D01*
X150918Y87203D02*
X155829Y87203D01*
X150918Y87203D02*
X150918Y84748D01*
X151737Y84748D01*
X155829Y81145D02*
X155829Y79099D01*
X155829Y81145D02*
X155827Y81214D01*
X155821Y81282D01*
X155812Y81351D01*
X155798Y81418D01*
X155781Y81485D01*
X155760Y81551D01*
X155736Y81615D01*
X155707Y81678D01*
X155676Y81739D01*
X155641Y81798D01*
X155603Y81856D01*
X155561Y81911D01*
X155517Y81963D01*
X155469Y82013D01*
X155419Y82061D01*
X155367Y82105D01*
X155312Y82147D01*
X155254Y82185D01*
X155195Y82220D01*
X155134Y82251D01*
X155071Y82280D01*
X155007Y82304D01*
X154941Y82325D01*
X154874Y82342D01*
X154807Y82356D01*
X154738Y82365D01*
X154670Y82371D01*
X154601Y82373D01*
X154601Y82372D02*
X152555Y82372D01*
X152555Y82373D02*
X152476Y82371D01*
X152397Y82365D01*
X152318Y82356D01*
X152240Y82343D01*
X152163Y82325D01*
X152087Y82305D01*
X152012Y82280D01*
X151938Y82252D01*
X151865Y82221D01*
X151794Y82185D01*
X151725Y82147D01*
X151658Y82105D01*
X151593Y82060D01*
X151530Y82012D01*
X151469Y81961D01*
X151412Y81907D01*
X151356Y81851D01*
X151304Y81792D01*
X151254Y81730D01*
X151208Y81666D01*
X151164Y81600D01*
X151124Y81532D01*
X151088Y81462D01*
X151054Y81390D01*
X151024Y81316D01*
X150998Y81242D01*
X150975Y81166D01*
X150957Y81089D01*
X150941Y81012D01*
X150930Y80933D01*
X150922Y80855D01*
X150918Y80776D01*
X150918Y80696D01*
X150922Y80617D01*
X150930Y80539D01*
X150941Y80460D01*
X150957Y80383D01*
X150975Y80306D01*
X150998Y80230D01*
X151024Y80156D01*
X151054Y80082D01*
X151088Y80010D01*
X151124Y79940D01*
X151164Y79872D01*
X151208Y79806D01*
X151254Y79742D01*
X151304Y79680D01*
X151356Y79621D01*
X151412Y79565D01*
X151469Y79511D01*
X151530Y79460D01*
X151593Y79412D01*
X151658Y79367D01*
X151725Y79325D01*
X151794Y79287D01*
X151865Y79251D01*
X151938Y79220D01*
X152012Y79192D01*
X152087Y79167D01*
X152163Y79147D01*
X152240Y79129D01*
X152318Y79116D01*
X152397Y79107D01*
X152476Y79101D01*
X152555Y79099D01*
X153374Y79099D01*
X153374Y82372D01*
M02*
