G04 EAGLE Gerber RS-274X export*
G75*
%MOMM*%
%FSLAX34Y34*%
%LPD*%
%INBottom Copper*%
%IPPOS*%
%AMOC8*
5,1,8,0,0,1.08239X$1,22.5*%
G01*
%ADD10C,1.650000*%
%ADD11R,1.650000X1.650000*%
%ADD12C,0.152400*%

G36*
X330208Y-25898D02*
X330208Y-25898D01*
X330217Y-25899D01*
X330305Y-25878D01*
X330395Y-25860D01*
X330402Y-25855D01*
X330410Y-25853D01*
X330483Y-25799D01*
X330559Y-25747D01*
X330563Y-25740D01*
X330570Y-25735D01*
X330617Y-25657D01*
X330666Y-25580D01*
X330667Y-25571D01*
X330672Y-25564D01*
X330699Y-25400D01*
X330699Y241300D01*
X330698Y241308D01*
X330699Y241317D01*
X330678Y241405D01*
X330660Y241495D01*
X330655Y241502D01*
X330653Y241510D01*
X330599Y241583D01*
X330547Y241659D01*
X330540Y241663D01*
X330535Y241670D01*
X330457Y241717D01*
X330380Y241766D01*
X330371Y241767D01*
X330364Y241772D01*
X330200Y241799D01*
X-25400Y241799D01*
X-25408Y241798D01*
X-25417Y241799D01*
X-25505Y241778D01*
X-25595Y241760D01*
X-25602Y241755D01*
X-25610Y241753D01*
X-25684Y241699D01*
X-25759Y241647D01*
X-25763Y241640D01*
X-25770Y241635D01*
X-25817Y241557D01*
X-25866Y241480D01*
X-25867Y241471D01*
X-25872Y241464D01*
X-25899Y241300D01*
X-25899Y-25400D01*
X-25898Y-25408D01*
X-25899Y-25417D01*
X-25878Y-25505D01*
X-25860Y-25595D01*
X-25855Y-25602D01*
X-25853Y-25610D01*
X-25799Y-25683D01*
X-25747Y-25759D01*
X-25740Y-25763D01*
X-25735Y-25770D01*
X-25657Y-25817D01*
X-25580Y-25866D01*
X-25571Y-25867D01*
X-25564Y-25872D01*
X-25400Y-25899D01*
X330200Y-25899D01*
X330208Y-25898D01*
G37*
%LPC*%
G36*
X281266Y58805D02*
X281266Y58805D01*
X277673Y60293D01*
X274923Y63043D01*
X273435Y66636D01*
X273435Y70524D01*
X274923Y74117D01*
X277673Y76867D01*
X281266Y78355D01*
X285154Y78355D01*
X288096Y77136D01*
X288107Y77134D01*
X288116Y77129D01*
X288204Y77115D01*
X288291Y77098D01*
X288302Y77100D01*
X288312Y77099D01*
X288399Y77121D01*
X288486Y77139D01*
X288495Y77145D01*
X288505Y77148D01*
X288640Y77244D01*
X295128Y83732D01*
X295135Y83743D01*
X295145Y83750D01*
X295190Y83825D01*
X295238Y83898D01*
X295240Y83910D01*
X295247Y83921D01*
X295274Y84085D01*
X295274Y177154D01*
X295272Y177166D01*
X295274Y177179D01*
X295252Y177263D01*
X295235Y177349D01*
X295228Y177359D01*
X295224Y177371D01*
X295128Y177507D01*
X287616Y185019D01*
X287605Y185026D01*
X287598Y185036D01*
X287523Y185081D01*
X287450Y185129D01*
X287438Y185131D01*
X287427Y185138D01*
X287263Y185165D01*
X111136Y185165D01*
X111124Y185163D01*
X111111Y185165D01*
X111027Y185143D01*
X110941Y185126D01*
X110931Y185119D01*
X110919Y185115D01*
X110783Y185019D01*
X88674Y162910D01*
X88669Y162902D01*
X88660Y162895D01*
X88614Y162819D01*
X88565Y162745D01*
X88563Y162734D01*
X88557Y162725D01*
X88545Y162637D01*
X88528Y162549D01*
X88530Y162539D01*
X88529Y162528D01*
X88566Y162366D01*
X89785Y159424D01*
X89785Y155536D01*
X88297Y151943D01*
X85547Y149193D01*
X82732Y148027D01*
X82730Y148026D01*
X82728Y148026D01*
X82648Y147971D01*
X82567Y147916D01*
X82566Y147914D01*
X82564Y147913D01*
X82512Y147832D01*
X82458Y147749D01*
X82458Y147747D01*
X82457Y147746D01*
X82441Y147650D01*
X82424Y147554D01*
X82424Y147552D01*
X82424Y147549D01*
X82446Y147456D01*
X82468Y147360D01*
X82469Y147358D01*
X82470Y147356D01*
X82526Y147279D01*
X82584Y147199D01*
X82586Y147198D01*
X82588Y147196D01*
X82671Y147147D01*
X82755Y147096D01*
X82757Y147096D01*
X82759Y147094D01*
X82923Y147067D01*
X92826Y147067D01*
X92838Y147069D01*
X92851Y147067D01*
X92935Y147089D01*
X93021Y147106D01*
X93031Y147113D01*
X93043Y147117D01*
X93179Y147213D01*
X126053Y180087D01*
X216847Y180087D01*
X248144Y148790D01*
X248149Y148787D01*
X248153Y148781D01*
X248232Y148732D01*
X248310Y148680D01*
X248316Y148679D01*
X248321Y148676D01*
X248413Y148661D01*
X248505Y148644D01*
X248511Y148645D01*
X248517Y148644D01*
X248607Y148667D01*
X248699Y148687D01*
X248704Y148690D01*
X248710Y148692D01*
X248785Y148748D01*
X248861Y148802D01*
X248865Y148807D01*
X248870Y148811D01*
X248958Y148952D01*
X249523Y150317D01*
X252273Y153067D01*
X255866Y154555D01*
X259754Y154555D01*
X263347Y153067D01*
X266097Y150317D01*
X267585Y146724D01*
X267585Y142836D01*
X266097Y139243D01*
X263347Y136493D01*
X260838Y135454D01*
X260836Y135453D01*
X260834Y135453D01*
X260755Y135398D01*
X260673Y135343D01*
X260672Y135341D01*
X260670Y135340D01*
X260618Y135259D01*
X260565Y135176D01*
X260565Y135174D01*
X260563Y135173D01*
X260547Y135076D01*
X260530Y134981D01*
X260531Y134979D01*
X260530Y134976D01*
X260553Y134883D01*
X260575Y134787D01*
X260576Y134785D01*
X260576Y134783D01*
X260633Y134706D01*
X260691Y134626D01*
X260693Y134625D01*
X260694Y134623D01*
X260777Y134574D01*
X260861Y134523D01*
X260863Y134523D01*
X260865Y134521D01*
X261029Y134494D01*
X271330Y134494D01*
X277780Y128044D01*
X277788Y128039D01*
X277795Y128030D01*
X277871Y127984D01*
X277945Y127935D01*
X277956Y127933D01*
X277965Y127927D01*
X278053Y127915D01*
X278141Y127898D01*
X278151Y127900D01*
X278162Y127899D01*
X278324Y127936D01*
X281266Y129155D01*
X285154Y129155D01*
X288747Y127667D01*
X291497Y124917D01*
X292985Y121324D01*
X292985Y117436D01*
X291497Y113843D01*
X288747Y111093D01*
X285154Y109605D01*
X281266Y109605D01*
X277673Y111093D01*
X274923Y113843D01*
X273435Y117436D01*
X273435Y121324D01*
X274654Y124266D01*
X274656Y124277D01*
X274661Y124286D01*
X274675Y124374D01*
X274692Y124461D01*
X274690Y124472D01*
X274691Y124482D01*
X274669Y124569D01*
X274651Y124656D01*
X274645Y124665D01*
X274642Y124675D01*
X274546Y124810D01*
X269582Y129774D01*
X269571Y129781D01*
X269564Y129791D01*
X269489Y129836D01*
X269416Y129884D01*
X269404Y129886D01*
X269393Y129893D01*
X269229Y129920D01*
X260416Y129920D01*
X260414Y129920D01*
X260412Y129920D01*
X260318Y129900D01*
X260221Y129881D01*
X260219Y129879D01*
X260217Y129879D01*
X260137Y129823D01*
X260057Y129768D01*
X260056Y129766D01*
X260054Y129765D01*
X260002Y129682D01*
X259950Y129601D01*
X259950Y129598D01*
X259949Y129597D01*
X259933Y129501D01*
X259917Y129404D01*
X259918Y129402D01*
X259917Y129400D01*
X259941Y129306D01*
X259963Y129211D01*
X259964Y129209D01*
X259965Y129207D01*
X260024Y129128D01*
X260081Y129051D01*
X260083Y129050D01*
X260084Y129048D01*
X260225Y128960D01*
X263347Y127667D01*
X266097Y124917D01*
X267585Y121324D01*
X267585Y117436D01*
X266097Y113843D01*
X263347Y111093D01*
X260532Y109927D01*
X260530Y109926D01*
X260528Y109926D01*
X260448Y109871D01*
X260367Y109816D01*
X260366Y109814D01*
X260364Y109813D01*
X260312Y109732D01*
X260258Y109649D01*
X260258Y109647D01*
X260257Y109646D01*
X260241Y109550D01*
X260224Y109454D01*
X260224Y109452D01*
X260224Y109449D01*
X260246Y109356D01*
X260268Y109260D01*
X260269Y109258D01*
X260270Y109256D01*
X260326Y109179D01*
X260384Y109099D01*
X260386Y109098D01*
X260388Y109096D01*
X260471Y109047D01*
X260555Y108996D01*
X260557Y108996D01*
X260559Y108994D01*
X260723Y108967D01*
X271457Y108967D01*
X277780Y102644D01*
X277788Y102639D01*
X277795Y102630D01*
X277871Y102584D01*
X277945Y102535D01*
X277956Y102533D01*
X277965Y102527D01*
X278053Y102515D01*
X278141Y102498D01*
X278151Y102500D01*
X278162Y102499D01*
X278324Y102536D01*
X281266Y103755D01*
X285154Y103755D01*
X288747Y102267D01*
X291497Y99517D01*
X292985Y95924D01*
X292985Y92036D01*
X291497Y88443D01*
X288747Y85693D01*
X285154Y84205D01*
X281266Y84205D01*
X277673Y85693D01*
X274923Y88443D01*
X273435Y92036D01*
X273435Y95924D01*
X274654Y98866D01*
X274656Y98877D01*
X274661Y98886D01*
X274675Y98974D01*
X274692Y99061D01*
X274690Y99072D01*
X274691Y99082D01*
X274669Y99169D01*
X274651Y99256D01*
X274645Y99265D01*
X274642Y99275D01*
X274546Y99410D01*
X269709Y104247D01*
X269698Y104254D01*
X269691Y104264D01*
X269616Y104309D01*
X269543Y104357D01*
X269531Y104359D01*
X269520Y104366D01*
X269356Y104393D01*
X260723Y104393D01*
X260720Y104393D01*
X260718Y104393D01*
X260624Y104373D01*
X260528Y104354D01*
X260526Y104352D01*
X260524Y104352D01*
X260443Y104296D01*
X260364Y104241D01*
X260363Y104239D01*
X260361Y104238D01*
X260309Y104155D01*
X260257Y104074D01*
X260256Y104071D01*
X260255Y104070D01*
X260240Y103974D01*
X260224Y103877D01*
X260224Y103875D01*
X260224Y103873D01*
X260247Y103779D01*
X260270Y103684D01*
X260271Y103682D01*
X260271Y103680D01*
X260331Y103601D01*
X260388Y103524D01*
X260389Y103523D01*
X260391Y103521D01*
X260532Y103433D01*
X263347Y102267D01*
X266097Y99517D01*
X267585Y95924D01*
X267585Y92036D01*
X266097Y88443D01*
X263347Y85693D01*
X259754Y84205D01*
X255866Y84205D01*
X252273Y85693D01*
X249523Y88443D01*
X248035Y92036D01*
X248035Y95924D01*
X249523Y99517D01*
X252273Y102267D01*
X255088Y103433D01*
X255090Y103434D01*
X255092Y103434D01*
X255172Y103489D01*
X255253Y103544D01*
X255255Y103546D01*
X255256Y103547D01*
X255308Y103628D01*
X255362Y103711D01*
X255362Y103713D01*
X255363Y103714D01*
X255379Y103810D01*
X255397Y103906D01*
X255396Y103908D01*
X255396Y103911D01*
X255374Y104004D01*
X255352Y104100D01*
X255351Y104102D01*
X255350Y104104D01*
X255294Y104181D01*
X255236Y104261D01*
X255234Y104262D01*
X255232Y104264D01*
X255149Y104313D01*
X255065Y104364D01*
X255063Y104364D01*
X255061Y104366D01*
X254897Y104393D01*
X244036Y104393D01*
X218782Y129647D01*
X218771Y129654D01*
X218764Y129664D01*
X218689Y129709D01*
X218616Y129757D01*
X218604Y129759D01*
X218593Y129766D01*
X218429Y129793D01*
X204276Y129793D01*
X204266Y129791D01*
X204256Y129793D01*
X204169Y129772D01*
X204082Y129754D01*
X204073Y129748D01*
X204063Y129745D01*
X203991Y129692D01*
X203918Y129641D01*
X203912Y129632D01*
X203904Y129626D01*
X203815Y129485D01*
X202597Y126543D01*
X199847Y123793D01*
X196254Y122305D01*
X192366Y122305D01*
X188773Y123793D01*
X186023Y126543D01*
X184535Y130136D01*
X184535Y134024D01*
X186023Y137617D01*
X188773Y140367D01*
X192366Y141855D01*
X196254Y141855D01*
X199847Y140367D01*
X202597Y137617D01*
X203815Y134675D01*
X203821Y134666D01*
X203824Y134656D01*
X203876Y134584D01*
X203926Y134510D01*
X203935Y134504D01*
X203941Y134496D01*
X204018Y134451D01*
X204093Y134402D01*
X204103Y134400D01*
X204112Y134394D01*
X204276Y134367D01*
X220530Y134367D01*
X245784Y109113D01*
X245795Y109106D01*
X245802Y109096D01*
X245877Y109051D01*
X245950Y109003D01*
X245962Y109001D01*
X245973Y108994D01*
X246137Y108967D01*
X254897Y108967D01*
X254899Y108967D01*
X254902Y108967D01*
X254996Y108987D01*
X255092Y109006D01*
X255094Y109008D01*
X255096Y109008D01*
X255177Y109064D01*
X255256Y109119D01*
X255257Y109121D01*
X255259Y109122D01*
X255311Y109205D01*
X255363Y109286D01*
X255364Y109289D01*
X255365Y109290D01*
X255380Y109386D01*
X255396Y109483D01*
X255396Y109485D01*
X255396Y109487D01*
X255373Y109581D01*
X255350Y109676D01*
X255349Y109678D01*
X255349Y109680D01*
X255289Y109759D01*
X255232Y109836D01*
X255231Y109837D01*
X255229Y109839D01*
X255088Y109927D01*
X252273Y111093D01*
X249523Y113843D01*
X248035Y117436D01*
X248035Y121324D01*
X249523Y124917D01*
X252273Y127667D01*
X255395Y128960D01*
X255397Y128961D01*
X255399Y128961D01*
X255479Y129016D01*
X255560Y129071D01*
X255561Y129073D01*
X255563Y129074D01*
X255614Y129155D01*
X255668Y129238D01*
X255669Y129240D01*
X255670Y129241D01*
X255686Y129337D01*
X255703Y129433D01*
X255703Y129435D01*
X255703Y129438D01*
X255681Y129531D01*
X255659Y129627D01*
X255657Y129629D01*
X255657Y129631D01*
X255600Y129708D01*
X255542Y129788D01*
X255540Y129789D01*
X255539Y129791D01*
X255456Y129840D01*
X255372Y129891D01*
X255370Y129891D01*
X255368Y129893D01*
X255204Y129920D01*
X245179Y129920D01*
X207987Y167112D01*
X207976Y167119D01*
X207969Y167129D01*
X207894Y167174D01*
X207821Y167222D01*
X207809Y167224D01*
X207798Y167231D01*
X207634Y167258D01*
X198756Y167258D01*
X198754Y167258D01*
X198752Y167258D01*
X198657Y167238D01*
X198561Y167219D01*
X198559Y167217D01*
X198557Y167217D01*
X198476Y167161D01*
X198397Y167106D01*
X198396Y167104D01*
X198394Y167103D01*
X198342Y167020D01*
X198290Y166939D01*
X198289Y166936D01*
X198288Y166935D01*
X198273Y166839D01*
X198257Y166742D01*
X198257Y166740D01*
X198257Y166738D01*
X198280Y166644D01*
X198303Y166549D01*
X198304Y166547D01*
X198304Y166545D01*
X198364Y166466D01*
X198421Y166389D01*
X198422Y166388D01*
X198424Y166386D01*
X198565Y166298D01*
X199847Y165767D01*
X202597Y163017D01*
X204085Y159424D01*
X204085Y155536D01*
X202597Y151943D01*
X199847Y149193D01*
X196254Y147705D01*
X192366Y147705D01*
X188773Y149193D01*
X186023Y151943D01*
X184535Y155536D01*
X184535Y159424D01*
X186023Y163017D01*
X188773Y165767D01*
X190055Y166298D01*
X190057Y166299D01*
X190059Y166299D01*
X190139Y166354D01*
X190220Y166409D01*
X190221Y166411D01*
X190223Y166412D01*
X190275Y166493D01*
X190329Y166576D01*
X190329Y166578D01*
X190330Y166579D01*
X190346Y166675D01*
X190363Y166771D01*
X190363Y166773D01*
X190363Y166776D01*
X190341Y166869D01*
X190319Y166965D01*
X190318Y166967D01*
X190317Y166969D01*
X190261Y167046D01*
X190202Y167126D01*
X190201Y167127D01*
X190199Y167129D01*
X190116Y167178D01*
X190032Y167229D01*
X190030Y167229D01*
X190028Y167231D01*
X189864Y167258D01*
X173356Y167258D01*
X173354Y167258D01*
X173352Y167258D01*
X173257Y167238D01*
X173161Y167219D01*
X173159Y167217D01*
X173157Y167217D01*
X173076Y167161D01*
X172997Y167106D01*
X172996Y167104D01*
X172994Y167103D01*
X172942Y167020D01*
X172890Y166939D01*
X172889Y166936D01*
X172888Y166935D01*
X172873Y166839D01*
X172857Y166742D01*
X172857Y166740D01*
X172857Y166738D01*
X172880Y166644D01*
X172903Y166549D01*
X172904Y166547D01*
X172904Y166545D01*
X172964Y166466D01*
X173021Y166389D01*
X173022Y166388D01*
X173024Y166386D01*
X173165Y166298D01*
X174447Y165767D01*
X177197Y163017D01*
X178685Y159424D01*
X178685Y155536D01*
X177197Y151943D01*
X174447Y149193D01*
X170854Y147705D01*
X166966Y147705D01*
X163373Y149193D01*
X160623Y151943D01*
X159135Y155536D01*
X159135Y159424D01*
X160623Y163017D01*
X163373Y165767D01*
X164655Y166298D01*
X164657Y166299D01*
X164659Y166299D01*
X164739Y166354D01*
X164820Y166409D01*
X164821Y166411D01*
X164823Y166412D01*
X164875Y166493D01*
X164929Y166576D01*
X164929Y166578D01*
X164930Y166579D01*
X164946Y166675D01*
X164963Y166771D01*
X164963Y166773D01*
X164963Y166776D01*
X164941Y166869D01*
X164919Y166965D01*
X164918Y166967D01*
X164917Y166969D01*
X164861Y167046D01*
X164802Y167126D01*
X164801Y167127D01*
X164799Y167129D01*
X164716Y167178D01*
X164632Y167229D01*
X164630Y167229D01*
X164628Y167231D01*
X164464Y167258D01*
X143267Y167258D01*
X143255Y167256D01*
X143242Y167258D01*
X143158Y167236D01*
X143072Y167219D01*
X143062Y167212D01*
X143050Y167208D01*
X142914Y167112D01*
X105595Y129793D01*
X89976Y129793D01*
X89966Y129791D01*
X89956Y129793D01*
X89869Y129772D01*
X89782Y129754D01*
X89773Y129748D01*
X89763Y129745D01*
X89691Y129692D01*
X89618Y129641D01*
X89612Y129632D01*
X89604Y129626D01*
X89515Y129485D01*
X88297Y126543D01*
X85547Y123793D01*
X81954Y122305D01*
X78066Y122305D01*
X74473Y123793D01*
X71723Y126543D01*
X70235Y130136D01*
X70235Y134024D01*
X71723Y137617D01*
X74473Y140367D01*
X77288Y141533D01*
X77290Y141534D01*
X77292Y141534D01*
X77372Y141589D01*
X77453Y141644D01*
X77454Y141646D01*
X77456Y141647D01*
X77508Y141728D01*
X77562Y141811D01*
X77562Y141813D01*
X77563Y141814D01*
X77579Y141910D01*
X77596Y142006D01*
X77596Y142008D01*
X77596Y142011D01*
X77574Y142104D01*
X77552Y142200D01*
X77551Y142202D01*
X77550Y142204D01*
X77494Y142281D01*
X77436Y142361D01*
X77434Y142362D01*
X77432Y142364D01*
X77349Y142413D01*
X77265Y142464D01*
X77263Y142464D01*
X77261Y142466D01*
X77097Y142493D01*
X68464Y142493D01*
X68452Y142491D01*
X68439Y142493D01*
X68355Y142471D01*
X68269Y142454D01*
X68259Y142447D01*
X68247Y142443D01*
X68111Y142347D01*
X63274Y137510D01*
X63269Y137502D01*
X63260Y137495D01*
X63214Y137419D01*
X63165Y137345D01*
X63163Y137334D01*
X63157Y137325D01*
X63145Y137237D01*
X63128Y137149D01*
X63130Y137139D01*
X63129Y137128D01*
X63166Y136966D01*
X64385Y134024D01*
X64385Y130136D01*
X62897Y126543D01*
X60147Y123793D01*
X56554Y122305D01*
X52666Y122305D01*
X49073Y123793D01*
X46323Y126543D01*
X44835Y130136D01*
X44835Y134024D01*
X46323Y137617D01*
X49073Y140367D01*
X52666Y141855D01*
X56554Y141855D01*
X59496Y140636D01*
X59507Y140634D01*
X59516Y140629D01*
X59604Y140615D01*
X59691Y140598D01*
X59702Y140600D01*
X59712Y140599D01*
X59799Y140621D01*
X59886Y140639D01*
X59895Y140645D01*
X59905Y140648D01*
X60040Y140744D01*
X66363Y147067D01*
X77097Y147067D01*
X77099Y147067D01*
X77102Y147067D01*
X77196Y147087D01*
X77292Y147106D01*
X77294Y147108D01*
X77296Y147108D01*
X77377Y147164D01*
X77456Y147219D01*
X77457Y147221D01*
X77459Y147222D01*
X77511Y147305D01*
X77563Y147386D01*
X77564Y147389D01*
X77565Y147390D01*
X77580Y147486D01*
X77596Y147583D01*
X77596Y147585D01*
X77596Y147587D01*
X77573Y147681D01*
X77550Y147776D01*
X77549Y147778D01*
X77549Y147780D01*
X77489Y147859D01*
X77432Y147936D01*
X77431Y147937D01*
X77429Y147939D01*
X77288Y148027D01*
X74473Y149193D01*
X71723Y151943D01*
X70235Y155536D01*
X70235Y159424D01*
X71723Y163017D01*
X74473Y165767D01*
X78066Y167255D01*
X81954Y167255D01*
X84896Y166036D01*
X84907Y166034D01*
X84916Y166029D01*
X85004Y166015D01*
X85091Y165998D01*
X85102Y166000D01*
X85112Y165999D01*
X85199Y166021D01*
X85286Y166039D01*
X85295Y166045D01*
X85305Y166048D01*
X85440Y166144D01*
X109035Y189739D01*
X289364Y189739D01*
X299848Y179255D01*
X299848Y81984D01*
X291874Y74010D01*
X291869Y74002D01*
X291860Y73995D01*
X291814Y73919D01*
X291765Y73845D01*
X291763Y73834D01*
X291757Y73825D01*
X291745Y73737D01*
X291728Y73649D01*
X291730Y73639D01*
X291729Y73628D01*
X291766Y73466D01*
X292985Y70524D01*
X292985Y66636D01*
X291497Y63043D01*
X288747Y60293D01*
X285154Y58805D01*
X281266Y58805D01*
G37*
%LPD*%
%LPC*%
G36*
X49853Y23113D02*
X49853Y23113D01*
X48367Y24599D01*
X37299Y35667D01*
X35813Y37153D01*
X35813Y141917D01*
X37299Y143403D01*
X45946Y152050D01*
X45951Y152058D01*
X45960Y152065D01*
X46006Y152141D01*
X46055Y152215D01*
X46057Y152226D01*
X46063Y152235D01*
X46075Y152323D01*
X46092Y152411D01*
X46090Y152421D01*
X46091Y152432D01*
X46054Y152594D01*
X44835Y155536D01*
X44835Y159424D01*
X46323Y163017D01*
X49073Y165767D01*
X52666Y167255D01*
X56554Y167255D01*
X60147Y165767D01*
X62897Y163017D01*
X64385Y159424D01*
X64385Y155536D01*
X62897Y151943D01*
X60147Y149193D01*
X56554Y147705D01*
X52666Y147705D01*
X49724Y148924D01*
X49713Y148926D01*
X49704Y148931D01*
X49616Y148945D01*
X49529Y148962D01*
X49518Y148960D01*
X49508Y148961D01*
X49421Y148939D01*
X49334Y148921D01*
X49325Y148915D01*
X49315Y148912D01*
X49180Y148816D01*
X40533Y140169D01*
X40526Y140158D01*
X40516Y140151D01*
X40471Y140076D01*
X40423Y140003D01*
X40421Y139991D01*
X40414Y139980D01*
X40387Y139816D01*
X40387Y39254D01*
X40389Y39242D01*
X40387Y39229D01*
X40409Y39145D01*
X40426Y39059D01*
X40433Y39049D01*
X40437Y39037D01*
X40533Y38901D01*
X51601Y27833D01*
X51612Y27826D01*
X51619Y27816D01*
X51694Y27771D01*
X51767Y27723D01*
X51779Y27721D01*
X51790Y27714D01*
X51954Y27687D01*
X265546Y27687D01*
X265558Y27689D01*
X265571Y27687D01*
X265655Y27709D01*
X265741Y27726D01*
X265751Y27733D01*
X265763Y27737D01*
X265899Y27833D01*
X274963Y36897D01*
X274968Y36904D01*
X274975Y36909D01*
X275023Y36987D01*
X275073Y37063D01*
X275075Y37071D01*
X275079Y37078D01*
X275093Y37169D01*
X275109Y37258D01*
X275108Y37267D01*
X275109Y37275D01*
X275086Y37363D01*
X275067Y37453D01*
X275062Y37460D01*
X275060Y37468D01*
X274963Y37603D01*
X274923Y37643D01*
X273435Y41236D01*
X273435Y45124D01*
X274923Y48717D01*
X277673Y51467D01*
X281266Y52955D01*
X285154Y52955D01*
X288747Y51467D01*
X291497Y48717D01*
X292985Y45124D01*
X292985Y41236D01*
X291497Y37643D01*
X288747Y34893D01*
X285154Y33405D01*
X281266Y33405D01*
X279222Y34252D01*
X279211Y34254D01*
X279202Y34259D01*
X279114Y34273D01*
X279027Y34290D01*
X279016Y34288D01*
X279006Y34289D01*
X278919Y34267D01*
X278832Y34249D01*
X278823Y34243D01*
X278813Y34240D01*
X278678Y34144D01*
X267647Y23113D01*
X49853Y23113D01*
G37*
%LPD*%
%LPC*%
G36*
X255866Y58805D02*
X255866Y58805D01*
X252273Y60293D01*
X249523Y63043D01*
X248035Y66636D01*
X248035Y70524D01*
X249254Y73466D01*
X249256Y73477D01*
X249261Y73486D01*
X249275Y73574D01*
X249292Y73661D01*
X249290Y73672D01*
X249291Y73682D01*
X249269Y73769D01*
X249251Y73856D01*
X249245Y73865D01*
X249242Y73875D01*
X249146Y74010D01*
X231863Y91293D01*
X231860Y91295D01*
X231857Y91297D01*
X231852Y91300D01*
X231845Y91310D01*
X231770Y91355D01*
X231697Y91403D01*
X231685Y91405D01*
X231674Y91412D01*
X231510Y91439D01*
X197836Y91439D01*
X197834Y91439D01*
X197832Y91439D01*
X197737Y91419D01*
X197641Y91400D01*
X197639Y91398D01*
X197637Y91398D01*
X197557Y91342D01*
X197477Y91287D01*
X197476Y91285D01*
X197474Y91284D01*
X197422Y91201D01*
X197370Y91120D01*
X197370Y91117D01*
X197369Y91116D01*
X197353Y91020D01*
X197337Y90923D01*
X197337Y90921D01*
X197337Y90919D01*
X197360Y90825D01*
X197383Y90730D01*
X197384Y90728D01*
X197385Y90726D01*
X197444Y90647D01*
X197501Y90570D01*
X197503Y90569D01*
X197504Y90567D01*
X197645Y90479D01*
X199847Y89567D01*
X202597Y86817D01*
X204085Y83224D01*
X204085Y79336D01*
X202597Y75743D01*
X199847Y72993D01*
X196254Y71505D01*
X192366Y71505D01*
X188773Y72993D01*
X186023Y75743D01*
X184535Y79336D01*
X184535Y83224D01*
X186023Y86817D01*
X188773Y89567D01*
X190975Y90479D01*
X190977Y90480D01*
X190979Y90480D01*
X191059Y90535D01*
X191140Y90590D01*
X191141Y90592D01*
X191143Y90593D01*
X191195Y90674D01*
X191249Y90757D01*
X191249Y90759D01*
X191250Y90760D01*
X191266Y90856D01*
X191283Y90952D01*
X191283Y90954D01*
X191283Y90957D01*
X191261Y91050D01*
X191239Y91146D01*
X191238Y91148D01*
X191237Y91150D01*
X191181Y91227D01*
X191122Y91307D01*
X191120Y91308D01*
X191119Y91310D01*
X191036Y91359D01*
X190952Y91410D01*
X190950Y91410D01*
X190948Y91412D01*
X190784Y91439D01*
X180917Y91439D01*
X179431Y92925D01*
X174340Y98016D01*
X174332Y98021D01*
X174326Y98030D01*
X174249Y98076D01*
X174175Y98125D01*
X174164Y98127D01*
X174155Y98133D01*
X174067Y98145D01*
X173979Y98162D01*
X173969Y98160D01*
X173958Y98161D01*
X173796Y98124D01*
X170854Y96905D01*
X166966Y96905D01*
X163373Y98393D01*
X160623Y101143D01*
X159135Y104736D01*
X159135Y108624D01*
X160623Y112217D01*
X163373Y114967D01*
X166966Y116455D01*
X170854Y116455D01*
X174447Y114967D01*
X177197Y112217D01*
X178685Y108624D01*
X178685Y104736D01*
X177466Y101794D01*
X177464Y101783D01*
X177459Y101774D01*
X177445Y101686D01*
X177428Y101598D01*
X177430Y101588D01*
X177429Y101578D01*
X177451Y101491D01*
X177469Y101404D01*
X177475Y101395D01*
X177478Y101385D01*
X177574Y101250D01*
X182665Y96159D01*
X182676Y96152D01*
X182683Y96142D01*
X182758Y96097D01*
X182831Y96049D01*
X182843Y96047D01*
X182854Y96040D01*
X183018Y96013D01*
X192011Y96013D01*
X192013Y96013D01*
X192015Y96013D01*
X192109Y96033D01*
X192205Y96052D01*
X192207Y96054D01*
X192209Y96054D01*
X192290Y96110D01*
X192369Y96165D01*
X192370Y96167D01*
X192372Y96168D01*
X192424Y96251D01*
X192476Y96332D01*
X192477Y96335D01*
X192478Y96336D01*
X192493Y96432D01*
X192510Y96529D01*
X192509Y96531D01*
X192509Y96533D01*
X192486Y96627D01*
X192464Y96722D01*
X192462Y96724D01*
X192462Y96726D01*
X192402Y96805D01*
X192346Y96882D01*
X192344Y96883D01*
X192343Y96885D01*
X192202Y96973D01*
X188773Y98393D01*
X186023Y101143D01*
X184535Y104736D01*
X184535Y108624D01*
X186023Y112217D01*
X188773Y114967D01*
X192366Y116455D01*
X196254Y116455D01*
X199847Y114967D01*
X202597Y112217D01*
X204085Y108624D01*
X204085Y104736D01*
X202597Y101143D01*
X199847Y98393D01*
X196418Y96973D01*
X196417Y96972D01*
X196415Y96972D01*
X196335Y96917D01*
X196253Y96862D01*
X196252Y96860D01*
X196251Y96859D01*
X196198Y96776D01*
X196145Y96695D01*
X196145Y96693D01*
X196144Y96692D01*
X196127Y96596D01*
X196110Y96500D01*
X196111Y96498D01*
X196110Y96495D01*
X196133Y96400D01*
X196155Y96306D01*
X196156Y96304D01*
X196156Y96302D01*
X196213Y96225D01*
X196271Y96145D01*
X196273Y96144D01*
X196274Y96142D01*
X196357Y96093D01*
X196441Y96042D01*
X196444Y96042D01*
X196445Y96040D01*
X196609Y96013D01*
X233611Y96013D01*
X252380Y77244D01*
X252388Y77239D01*
X252395Y77230D01*
X252471Y77184D01*
X252545Y77135D01*
X252556Y77133D01*
X252565Y77127D01*
X252653Y77115D01*
X252741Y77098D01*
X252751Y77100D01*
X252762Y77099D01*
X252924Y77136D01*
X255866Y78355D01*
X259754Y78355D01*
X263347Y76867D01*
X266097Y74117D01*
X267585Y70524D01*
X267585Y66636D01*
X266097Y63043D01*
X263347Y60293D01*
X259754Y58805D01*
X255866Y58805D01*
G37*
%LPD*%
%LPC*%
G36*
X248928Y160405D02*
X248928Y160405D01*
X248035Y161298D01*
X248035Y179062D01*
X248928Y179955D01*
X266692Y179955D01*
X267585Y179062D01*
X267585Y161298D01*
X266692Y160405D01*
X248928Y160405D01*
G37*
%LPD*%
%LPC*%
G36*
X281266Y135005D02*
X281266Y135005D01*
X277673Y136493D01*
X274923Y139243D01*
X273435Y142836D01*
X273435Y146724D01*
X274923Y150317D01*
X277673Y153067D01*
X281266Y154555D01*
X285154Y154555D01*
X288747Y153067D01*
X291497Y150317D01*
X292985Y146724D01*
X292985Y142836D01*
X291497Y139243D01*
X288747Y136493D01*
X285154Y135005D01*
X281266Y135005D01*
G37*
%LPD*%
%LPC*%
G36*
X166966Y122305D02*
X166966Y122305D01*
X163373Y123793D01*
X160623Y126543D01*
X159135Y130136D01*
X159135Y134024D01*
X160623Y137617D01*
X163373Y140367D01*
X166966Y141855D01*
X170854Y141855D01*
X174447Y140367D01*
X177197Y137617D01*
X178685Y134024D01*
X178685Y130136D01*
X177197Y126543D01*
X174447Y123793D01*
X170854Y122305D01*
X166966Y122305D01*
G37*
%LPD*%
%LPC*%
G36*
X52666Y96905D02*
X52666Y96905D01*
X49073Y98393D01*
X46323Y101143D01*
X44835Y104736D01*
X44835Y108624D01*
X46323Y112217D01*
X49073Y114967D01*
X52666Y116455D01*
X56554Y116455D01*
X60147Y114967D01*
X62897Y112217D01*
X64385Y108624D01*
X64385Y104736D01*
X62897Y101143D01*
X60147Y98393D01*
X56554Y96905D01*
X52666Y96905D01*
G37*
%LPD*%
%LPC*%
G36*
X78066Y96905D02*
X78066Y96905D01*
X74473Y98393D01*
X71723Y101143D01*
X70235Y104736D01*
X70235Y108624D01*
X71723Y112217D01*
X74473Y114967D01*
X78066Y116455D01*
X81954Y116455D01*
X85547Y114967D01*
X88297Y112217D01*
X89785Y108624D01*
X89785Y104736D01*
X88297Y101143D01*
X85547Y98393D01*
X81954Y96905D01*
X78066Y96905D01*
G37*
%LPD*%
%LPC*%
G36*
X52666Y71505D02*
X52666Y71505D01*
X49073Y72993D01*
X46323Y75743D01*
X44835Y79336D01*
X44835Y83224D01*
X46323Y86817D01*
X49073Y89567D01*
X52666Y91055D01*
X56554Y91055D01*
X60147Y89567D01*
X62897Y86817D01*
X64385Y83224D01*
X64385Y79336D01*
X62897Y75743D01*
X60147Y72993D01*
X56554Y71505D01*
X52666Y71505D01*
G37*
%LPD*%
%LPC*%
G36*
X78066Y71505D02*
X78066Y71505D01*
X74473Y72993D01*
X71723Y75743D01*
X70235Y79336D01*
X70235Y83224D01*
X71723Y86817D01*
X74473Y89567D01*
X78066Y91055D01*
X81954Y91055D01*
X85547Y89567D01*
X88297Y86817D01*
X89785Y83224D01*
X89785Y79336D01*
X88297Y75743D01*
X85547Y72993D01*
X81954Y71505D01*
X78066Y71505D01*
G37*
%LPD*%
%LPC*%
G36*
X166966Y71505D02*
X166966Y71505D01*
X163373Y72993D01*
X160623Y75743D01*
X159135Y79336D01*
X159135Y83224D01*
X160623Y86817D01*
X163373Y89567D01*
X166966Y91055D01*
X170854Y91055D01*
X174447Y89567D01*
X177197Y86817D01*
X178685Y83224D01*
X178685Y79336D01*
X177197Y75743D01*
X174447Y72993D01*
X170854Y71505D01*
X166966Y71505D01*
G37*
%LPD*%
%LPC*%
G36*
X192366Y46105D02*
X192366Y46105D01*
X188773Y47593D01*
X186023Y50343D01*
X184535Y53936D01*
X184535Y57824D01*
X186023Y61417D01*
X188773Y64167D01*
X192366Y65655D01*
X196254Y65655D01*
X199847Y64167D01*
X202597Y61417D01*
X204085Y57824D01*
X204085Y53936D01*
X202597Y50343D01*
X199847Y47593D01*
X196254Y46105D01*
X192366Y46105D01*
G37*
%LPD*%
%LPC*%
G36*
X78066Y46105D02*
X78066Y46105D01*
X74473Y47593D01*
X71723Y50343D01*
X70235Y53936D01*
X70235Y57824D01*
X71723Y61417D01*
X74473Y64167D01*
X78066Y65655D01*
X81954Y65655D01*
X85547Y64167D01*
X88297Y61417D01*
X89785Y57824D01*
X89785Y53936D01*
X88297Y50343D01*
X85547Y47593D01*
X81954Y46105D01*
X78066Y46105D01*
G37*
%LPD*%
%LPC*%
G36*
X255866Y33405D02*
X255866Y33405D01*
X252273Y34893D01*
X249523Y37643D01*
X248035Y41236D01*
X248035Y45124D01*
X249523Y48717D01*
X252273Y51467D01*
X255866Y52955D01*
X259754Y52955D01*
X263347Y51467D01*
X266097Y48717D01*
X267585Y45124D01*
X267585Y41236D01*
X266097Y37643D01*
X263347Y34893D01*
X259754Y33405D01*
X255866Y33405D01*
G37*
%LPD*%
%LPC*%
G36*
X284209Y171179D02*
X284209Y171179D01*
X284209Y180947D01*
X285737Y180705D01*
X287352Y180180D01*
X288866Y179409D01*
X290240Y178411D01*
X291441Y177210D01*
X292439Y175836D01*
X293210Y174322D01*
X293735Y172707D01*
X293977Y171179D01*
X284209Y171179D01*
G37*
%LPD*%
%LPC*%
G36*
X55609Y56879D02*
X55609Y56879D01*
X55609Y66647D01*
X57137Y66405D01*
X58752Y65880D01*
X60266Y65109D01*
X61640Y64111D01*
X62841Y62910D01*
X63839Y61536D01*
X64610Y60022D01*
X65135Y58407D01*
X65377Y56879D01*
X55609Y56879D01*
G37*
%LPD*%
%LPC*%
G36*
X169909Y56879D02*
X169909Y56879D01*
X169909Y66647D01*
X171437Y66405D01*
X173052Y65880D01*
X174566Y65109D01*
X175940Y64111D01*
X177141Y62910D01*
X178139Y61536D01*
X178910Y60022D01*
X179435Y58407D01*
X179677Y56879D01*
X169909Y56879D01*
G37*
%LPD*%
%LPC*%
G36*
X272443Y171179D02*
X272443Y171179D01*
X272685Y172707D01*
X273210Y174322D01*
X273981Y175836D01*
X274979Y177210D01*
X276180Y178411D01*
X277554Y179409D01*
X279068Y180180D01*
X280683Y180705D01*
X282211Y180947D01*
X282211Y171179D01*
X272443Y171179D01*
G37*
%LPD*%
%LPC*%
G36*
X284209Y169181D02*
X284209Y169181D01*
X293977Y169181D01*
X293735Y167653D01*
X293210Y166038D01*
X292439Y164524D01*
X291441Y163150D01*
X290240Y161949D01*
X288866Y160951D01*
X287352Y160180D01*
X285737Y159655D01*
X284209Y159413D01*
X284209Y169181D01*
G37*
%LPD*%
%LPC*%
G36*
X43843Y56879D02*
X43843Y56879D01*
X44085Y58407D01*
X44610Y60022D01*
X45381Y61536D01*
X46379Y62910D01*
X47580Y64111D01*
X48954Y65109D01*
X50468Y65880D01*
X52083Y66405D01*
X53611Y66647D01*
X53611Y56879D01*
X43843Y56879D01*
G37*
%LPD*%
%LPC*%
G36*
X158143Y56879D02*
X158143Y56879D01*
X158385Y58407D01*
X158910Y60022D01*
X159681Y61536D01*
X160679Y62910D01*
X161880Y64111D01*
X163254Y65109D01*
X164768Y65880D01*
X166383Y66405D01*
X167911Y66647D01*
X167911Y56879D01*
X158143Y56879D01*
G37*
%LPD*%
%LPC*%
G36*
X169909Y54881D02*
X169909Y54881D01*
X179677Y54881D01*
X179435Y53353D01*
X178910Y51738D01*
X178139Y50224D01*
X177141Y48850D01*
X175940Y47649D01*
X174566Y46651D01*
X173052Y45880D01*
X171437Y45355D01*
X169909Y45113D01*
X169909Y54881D01*
G37*
%LPD*%
%LPC*%
G36*
X55609Y54881D02*
X55609Y54881D01*
X65377Y54881D01*
X65135Y53353D01*
X64610Y51738D01*
X63839Y50224D01*
X62841Y48850D01*
X61640Y47649D01*
X60266Y46651D01*
X58752Y45880D01*
X57137Y45355D01*
X55609Y45113D01*
X55609Y54881D01*
G37*
%LPD*%
%LPC*%
G36*
X280683Y159655D02*
X280683Y159655D01*
X279068Y160180D01*
X277554Y160951D01*
X276180Y161949D01*
X274979Y163150D01*
X273981Y164524D01*
X273210Y166038D01*
X272685Y167653D01*
X272443Y169181D01*
X282211Y169181D01*
X282211Y159413D01*
X280683Y159655D01*
G37*
%LPD*%
%LPC*%
G36*
X166383Y45355D02*
X166383Y45355D01*
X164768Y45880D01*
X163254Y46651D01*
X161880Y47649D01*
X160679Y48850D01*
X159681Y50224D01*
X158910Y51738D01*
X158385Y53353D01*
X158143Y54881D01*
X167911Y54881D01*
X167911Y45113D01*
X166383Y45355D01*
G37*
%LPD*%
%LPC*%
G36*
X52083Y45355D02*
X52083Y45355D01*
X50468Y45880D01*
X48954Y46651D01*
X47580Y47649D01*
X46379Y48850D01*
X45381Y50224D01*
X44610Y51738D01*
X44085Y53353D01*
X43843Y54881D01*
X53611Y54881D01*
X53611Y45113D01*
X52083Y45355D01*
G37*
%LPD*%
%LPC*%
G36*
X283209Y170179D02*
X283209Y170179D01*
X283209Y170181D01*
X283211Y170181D01*
X283211Y170179D01*
X283209Y170179D01*
G37*
%LPD*%
%LPC*%
G36*
X168909Y55879D02*
X168909Y55879D01*
X168909Y55881D01*
X168911Y55881D01*
X168911Y55879D01*
X168909Y55879D01*
G37*
%LPD*%
%LPC*%
G36*
X54609Y55879D02*
X54609Y55879D01*
X54609Y55881D01*
X54611Y55881D01*
X54611Y55879D01*
X54609Y55879D01*
G37*
%LPD*%
D10*
X80010Y157480D03*
X54610Y157480D03*
X80010Y132080D03*
X54610Y132080D03*
X80010Y106680D03*
X54610Y106680D03*
X54610Y81280D03*
X80010Y81280D03*
X54610Y55880D03*
X80010Y55880D03*
X194310Y157480D03*
X168910Y157480D03*
X194310Y132080D03*
X168910Y132080D03*
X194310Y106680D03*
X168910Y106680D03*
X168910Y81280D03*
X194310Y81280D03*
X168910Y55880D03*
X194310Y55880D03*
D11*
X257810Y170180D03*
D10*
X283210Y170180D03*
X257810Y144780D03*
X283210Y144780D03*
X257810Y119380D03*
X283210Y119380D03*
X257810Y93980D03*
X283210Y93980D03*
X257810Y68580D03*
X283210Y68580D03*
X257810Y43180D03*
X283210Y43180D03*
D12*
X54610Y157480D02*
X38100Y140970D01*
X38100Y38100D02*
X50800Y25400D01*
X266700Y25400D01*
X283210Y41910D01*
X283210Y43180D01*
X38100Y38100D02*
X38100Y140970D01*
X54610Y132080D02*
X67310Y144780D01*
X248920Y144780D02*
X257810Y144780D01*
X93980Y144780D02*
X67310Y144780D01*
X93980Y144780D02*
X127000Y177800D01*
X215900Y177800D01*
X248920Y144780D01*
X181864Y93726D02*
X168910Y106680D01*
X232664Y93726D02*
X257810Y68580D01*
X232664Y93726D02*
X181864Y93726D01*
X109982Y187452D02*
X80010Y157480D01*
X288417Y187452D02*
X297561Y178308D01*
X297561Y82931D01*
X283210Y68580D01*
X288417Y187452D02*
X109982Y187452D01*
X104648Y132080D02*
X80010Y132080D01*
X270383Y132207D02*
X283210Y119380D01*
X142113Y169545D02*
X104648Y132080D01*
X142113Y169545D02*
X208788Y169545D01*
X246126Y132207D01*
X270383Y132207D01*
X219583Y132080D02*
X194310Y132080D01*
X270510Y106680D02*
X283210Y93980D01*
X244983Y106680D02*
X219583Y132080D01*
X244983Y106680D02*
X270510Y106680D01*
M02*
