M48
;GenerationSoftware,Autodesk,EAGLE,9.6.2*%
;CreationDate,2023-10-03T19:40:35Z*%
FMAT,2
ICI,OFF
METRIC,TZ,000.000
T1C1.100
%
G90
M71
T1
X8001Y15748
X5461Y15748
X8001Y13208
X5461Y13208
X8001Y10668
X5461Y10668
X5461Y8128
X8001Y8128
X5461Y5588
X8001Y5588
X19431Y15748
X16891Y15748
X19431Y13208
X16891Y13208
X19431Y10668
X16891Y10668
X16891Y8128
X19431Y8128
X16891Y5588
X19431Y5588
X25781Y17018
X28321Y17018
X25781Y14478
X28321Y14478
X25781Y11938
X28321Y11938
X25781Y9398
X28321Y9398
X25781Y6858
X28321Y6858
X25781Y4318
X28321Y4318
M30