G04 EAGLE Gerber X2 export*
%TF.Part,Single*%
%TF.FileFunction,Copper,L1,Top,Mixed*%
%TF.FilePolarity,Positive*%
%TF.GenerationSoftware,Autodesk,EAGLE,8.6.3*%
%TF.CreationDate,2023-09-30T00:22:19Z*%
G75*
%MOMM*%
%FSLAX34Y34*%
%LPD*%
%AMOC8*
5,1,8,0,0,1.08239X$1,22.5*%
G01*
%ADD10C,1.650000*%
%ADD11R,2.025000X2.025000*%
%ADD12C,2.025000*%
%ADD13C,0.152400*%
%ADD14C,0.406400*%

G36*
X317508Y-13198D02*
X317508Y-13198D01*
X317517Y-13199D01*
X317605Y-13178D01*
X317695Y-13160D01*
X317702Y-13155D01*
X317710Y-13153D01*
X317783Y-13099D01*
X317859Y-13047D01*
X317863Y-13040D01*
X317870Y-13035D01*
X317917Y-12957D01*
X317966Y-12880D01*
X317967Y-12871D01*
X317972Y-12864D01*
X317999Y-12700D01*
X317999Y228600D01*
X317998Y228608D01*
X317999Y228617D01*
X317978Y228705D01*
X317960Y228795D01*
X317955Y228802D01*
X317953Y228810D01*
X317899Y228883D01*
X317847Y228959D01*
X317840Y228963D01*
X317835Y228970D01*
X317757Y229017D01*
X317680Y229066D01*
X317671Y229067D01*
X317664Y229072D01*
X317500Y229099D01*
X-12700Y229099D01*
X-12708Y229098D01*
X-12717Y229099D01*
X-12805Y229078D01*
X-12895Y229060D01*
X-12902Y229055D01*
X-12910Y229053D01*
X-12983Y228999D01*
X-13059Y228947D01*
X-13063Y228940D01*
X-13070Y228935D01*
X-13117Y228857D01*
X-13166Y228780D01*
X-13167Y228771D01*
X-13172Y228764D01*
X-13199Y228600D01*
X-13199Y-12700D01*
X-13198Y-12708D01*
X-13199Y-12717D01*
X-13178Y-12805D01*
X-13160Y-12895D01*
X-13155Y-12902D01*
X-13153Y-12910D01*
X-13099Y-12983D01*
X-13047Y-13059D01*
X-13040Y-13063D01*
X-13035Y-13070D01*
X-12957Y-13117D01*
X-12880Y-13166D01*
X-12871Y-13167D01*
X-12864Y-13172D01*
X-12700Y-13199D01*
X317500Y-13199D01*
X317508Y-13198D01*
G37*
%LPC*%
G36*
X52666Y96905D02*
X52666Y96905D01*
X49073Y98393D01*
X46323Y101143D01*
X44835Y104736D01*
X44835Y108624D01*
X46323Y112217D01*
X49073Y114967D01*
X52666Y116455D01*
X56554Y116455D01*
X59496Y115236D01*
X59507Y115234D01*
X59516Y115229D01*
X59604Y115215D01*
X59692Y115198D01*
X59702Y115200D01*
X59712Y115199D01*
X59799Y115221D01*
X59886Y115239D01*
X59895Y115245D01*
X59905Y115248D01*
X60040Y115344D01*
X64877Y120181D01*
X64884Y120192D01*
X64894Y120199D01*
X64939Y120274D01*
X64987Y120347D01*
X64989Y120359D01*
X64996Y120370D01*
X65023Y120534D01*
X65023Y129167D01*
X65023Y129169D01*
X65023Y129172D01*
X65003Y129265D01*
X64984Y129362D01*
X64982Y129364D01*
X64982Y129366D01*
X64926Y129447D01*
X64871Y129526D01*
X64869Y129527D01*
X64868Y129529D01*
X64785Y129581D01*
X64704Y129633D01*
X64701Y129634D01*
X64700Y129635D01*
X64604Y129650D01*
X64507Y129666D01*
X64505Y129666D01*
X64503Y129666D01*
X64409Y129643D01*
X64314Y129620D01*
X64312Y129619D01*
X64310Y129619D01*
X64231Y129559D01*
X64154Y129502D01*
X64153Y129501D01*
X64151Y129499D01*
X64063Y129358D01*
X62897Y126543D01*
X60147Y123793D01*
X56554Y122305D01*
X52666Y122305D01*
X49073Y123793D01*
X46323Y126543D01*
X44835Y130136D01*
X44835Y134024D01*
X46323Y137617D01*
X49073Y140367D01*
X52666Y141855D01*
X56554Y141855D01*
X60147Y140367D01*
X62897Y137617D01*
X64063Y134802D01*
X64064Y134800D01*
X64064Y134798D01*
X64119Y134718D01*
X64174Y134637D01*
X64176Y134636D01*
X64177Y134634D01*
X64258Y134582D01*
X64341Y134528D01*
X64343Y134528D01*
X64344Y134527D01*
X64440Y134511D01*
X64536Y134494D01*
X64538Y134494D01*
X64541Y134494D01*
X64634Y134516D01*
X64730Y134538D01*
X64732Y134539D01*
X64734Y134540D01*
X64811Y134596D01*
X64891Y134654D01*
X64892Y134656D01*
X64894Y134658D01*
X64943Y134741D01*
X64994Y134825D01*
X64994Y134827D01*
X64996Y134829D01*
X65023Y134993D01*
X65023Y154567D01*
X65023Y154569D01*
X65023Y154572D01*
X65003Y154666D01*
X64984Y154762D01*
X64982Y154764D01*
X64982Y154766D01*
X64926Y154847D01*
X64871Y154926D01*
X64869Y154927D01*
X64868Y154929D01*
X64785Y154981D01*
X64704Y155033D01*
X64701Y155034D01*
X64700Y155035D01*
X64604Y155050D01*
X64507Y155066D01*
X64505Y155066D01*
X64503Y155066D01*
X64409Y155043D01*
X64314Y155020D01*
X64312Y155019D01*
X64310Y155019D01*
X64231Y154959D01*
X64154Y154902D01*
X64153Y154901D01*
X64151Y154899D01*
X64063Y154758D01*
X62897Y151943D01*
X60147Y149193D01*
X56554Y147705D01*
X52666Y147705D01*
X49073Y149193D01*
X46323Y151943D01*
X44835Y155536D01*
X44835Y159424D01*
X46323Y163017D01*
X49073Y165767D01*
X52666Y167255D01*
X56554Y167255D01*
X60147Y165767D01*
X62897Y163017D01*
X64063Y160202D01*
X64064Y160200D01*
X64064Y160198D01*
X64119Y160118D01*
X64174Y160037D01*
X64176Y160036D01*
X64177Y160034D01*
X64258Y159982D01*
X64341Y159928D01*
X64343Y159928D01*
X64344Y159927D01*
X64440Y159911D01*
X64536Y159894D01*
X64538Y159894D01*
X64541Y159894D01*
X64634Y159916D01*
X64730Y159938D01*
X64732Y159939D01*
X64734Y159940D01*
X64811Y159996D01*
X64891Y160054D01*
X64892Y160056D01*
X64894Y160058D01*
X64943Y160141D01*
X64994Y160225D01*
X64994Y160227D01*
X64996Y160229D01*
X65023Y160393D01*
X65023Y169857D01*
X84143Y188977D01*
X291549Y188977D01*
X299467Y181059D01*
X299467Y157803D01*
X293309Y151645D01*
X293304Y151637D01*
X293295Y151631D01*
X293249Y151554D01*
X293200Y151480D01*
X293198Y151469D01*
X293192Y151460D01*
X293180Y151372D01*
X293163Y151284D01*
X293166Y151274D01*
X293164Y151264D01*
X293201Y151101D01*
X294860Y147097D01*
X294860Y142463D01*
X293086Y138181D01*
X289809Y134904D01*
X285527Y133130D01*
X280893Y133130D01*
X276611Y134904D01*
X273334Y138181D01*
X271560Y142463D01*
X271560Y147097D01*
X273334Y151379D01*
X276611Y154656D01*
X280893Y156430D01*
X285527Y156430D01*
X289531Y154771D01*
X289542Y154769D01*
X289551Y154764D01*
X289639Y154750D01*
X289727Y154733D01*
X289737Y154735D01*
X289747Y154734D01*
X289834Y154756D01*
X289921Y154774D01*
X289930Y154780D01*
X289940Y154783D01*
X290075Y154879D01*
X294747Y159551D01*
X294754Y159562D01*
X294764Y159569D01*
X294809Y159644D01*
X294857Y159717D01*
X294859Y159729D01*
X294866Y159740D01*
X294893Y159904D01*
X294893Y163176D01*
X294885Y163219D01*
X294886Y163262D01*
X294865Y163315D01*
X294854Y163371D01*
X294829Y163407D01*
X294813Y163447D01*
X294773Y163488D01*
X294741Y163535D01*
X294704Y163558D01*
X294674Y163589D01*
X294621Y163611D01*
X294574Y163642D01*
X294531Y163649D01*
X294490Y163666D01*
X294433Y163665D01*
X294377Y163675D01*
X294335Y163665D01*
X294292Y163665D01*
X294239Y163642D01*
X294184Y163629D01*
X294149Y163603D01*
X294109Y163586D01*
X294059Y163537D01*
X294024Y163511D01*
X294012Y163491D01*
X293990Y163469D01*
X292871Y161929D01*
X291461Y160519D01*
X289848Y159347D01*
X288072Y158442D01*
X286176Y157826D01*
X284209Y157515D01*
X284209Y169680D01*
X284208Y169688D01*
X284209Y169696D01*
X284188Y169785D01*
X284170Y169875D01*
X284165Y169882D01*
X284163Y169890D01*
X284109Y169963D01*
X284057Y170039D01*
X284050Y170043D01*
X284045Y170050D01*
X283967Y170096D01*
X283890Y170146D01*
X283881Y170147D01*
X283874Y170151D01*
X283710Y170179D01*
X283209Y170179D01*
X283209Y170181D01*
X283710Y170181D01*
X283718Y170183D01*
X283726Y170181D01*
X283815Y170202D01*
X283905Y170220D01*
X283912Y170225D01*
X283920Y170227D01*
X283993Y170281D01*
X284069Y170333D01*
X284073Y170340D01*
X284080Y170345D01*
X284126Y170423D01*
X284176Y170501D01*
X284177Y170509D01*
X284181Y170516D01*
X284209Y170680D01*
X284209Y182845D01*
X286176Y182534D01*
X288072Y181918D01*
X289848Y181013D01*
X291461Y179841D01*
X292871Y178431D01*
X293990Y176891D01*
X294022Y176861D01*
X294047Y176825D01*
X294095Y176795D01*
X294137Y176756D01*
X294178Y176742D01*
X294214Y176718D01*
X294271Y176709D01*
X294324Y176690D01*
X294368Y176692D01*
X294411Y176685D01*
X294466Y176698D01*
X294523Y176702D01*
X294562Y176721D01*
X294604Y176731D01*
X294650Y176765D01*
X294701Y176790D01*
X294729Y176823D01*
X294764Y176849D01*
X294793Y176898D01*
X294830Y176941D01*
X294843Y176983D01*
X294866Y177020D01*
X294877Y177089D01*
X294890Y177131D01*
X294888Y177154D01*
X294893Y177184D01*
X294893Y178958D01*
X294891Y178970D01*
X294893Y178983D01*
X294871Y179067D01*
X294854Y179153D01*
X294847Y179163D01*
X294843Y179175D01*
X294747Y179311D01*
X289801Y184257D01*
X289790Y184264D01*
X289783Y184274D01*
X289708Y184319D01*
X289635Y184367D01*
X289623Y184369D01*
X289612Y184376D01*
X289448Y184403D01*
X86244Y184403D01*
X86232Y184401D01*
X86219Y184403D01*
X86135Y184381D01*
X86049Y184364D01*
X86039Y184357D01*
X86027Y184353D01*
X85891Y184257D01*
X69743Y168109D01*
X69736Y168098D01*
X69726Y168091D01*
X69681Y168016D01*
X69633Y167943D01*
X69631Y167931D01*
X69624Y167920D01*
X69597Y167756D01*
X69597Y160393D01*
X69597Y160391D01*
X69597Y160388D01*
X69617Y160294D01*
X69636Y160198D01*
X69638Y160196D01*
X69638Y160194D01*
X69694Y160113D01*
X69749Y160034D01*
X69751Y160033D01*
X69752Y160031D01*
X69835Y159979D01*
X69916Y159927D01*
X69919Y159926D01*
X69920Y159925D01*
X70016Y159910D01*
X70113Y159894D01*
X70115Y159894D01*
X70117Y159894D01*
X70211Y159917D01*
X70306Y159940D01*
X70308Y159941D01*
X70310Y159941D01*
X70389Y160001D01*
X70466Y160058D01*
X70467Y160059D01*
X70469Y160061D01*
X70557Y160202D01*
X71723Y163017D01*
X74473Y165767D01*
X78066Y167255D01*
X81954Y167255D01*
X85547Y165767D01*
X88297Y163017D01*
X89785Y159424D01*
X89785Y155536D01*
X88297Y151943D01*
X85547Y149193D01*
X81954Y147705D01*
X78066Y147705D01*
X74473Y149193D01*
X71723Y151943D01*
X70557Y154758D01*
X70556Y154760D01*
X70556Y154762D01*
X70501Y154842D01*
X70446Y154923D01*
X70444Y154924D01*
X70443Y154926D01*
X70362Y154978D01*
X70279Y155032D01*
X70277Y155032D01*
X70276Y155033D01*
X70180Y155049D01*
X70084Y155066D01*
X70082Y155066D01*
X70079Y155066D01*
X69986Y155044D01*
X69890Y155022D01*
X69888Y155021D01*
X69886Y155020D01*
X69809Y154964D01*
X69729Y154906D01*
X69728Y154904D01*
X69726Y154902D01*
X69677Y154819D01*
X69626Y154735D01*
X69626Y154733D01*
X69624Y154731D01*
X69597Y154567D01*
X69597Y134993D01*
X69597Y134991D01*
X69597Y134988D01*
X69617Y134894D01*
X69636Y134798D01*
X69638Y134796D01*
X69638Y134794D01*
X69694Y134713D01*
X69749Y134634D01*
X69751Y134633D01*
X69752Y134631D01*
X69835Y134579D01*
X69916Y134527D01*
X69919Y134526D01*
X69920Y134525D01*
X70016Y134510D01*
X70113Y134494D01*
X70115Y134494D01*
X70117Y134494D01*
X70211Y134517D01*
X70306Y134540D01*
X70308Y134541D01*
X70310Y134541D01*
X70389Y134601D01*
X70466Y134658D01*
X70467Y134659D01*
X70469Y134661D01*
X70557Y134802D01*
X71723Y137617D01*
X74473Y140367D01*
X78066Y141855D01*
X81954Y141855D01*
X85547Y140367D01*
X88297Y137617D01*
X89785Y134024D01*
X89785Y130136D01*
X88297Y126543D01*
X85547Y123793D01*
X81954Y122305D01*
X78066Y122305D01*
X74473Y123793D01*
X71723Y126543D01*
X70557Y129358D01*
X70556Y129360D01*
X70556Y129362D01*
X70501Y129442D01*
X70446Y129523D01*
X70444Y129524D01*
X70443Y129526D01*
X70362Y129578D01*
X70279Y129632D01*
X70277Y129632D01*
X70276Y129633D01*
X70180Y129649D01*
X70084Y129666D01*
X70082Y129666D01*
X70079Y129666D01*
X69986Y129644D01*
X69890Y129622D01*
X69888Y129621D01*
X69886Y129620D01*
X69809Y129564D01*
X69729Y129506D01*
X69728Y129504D01*
X69726Y129502D01*
X69677Y129419D01*
X69626Y129335D01*
X69626Y129333D01*
X69624Y129331D01*
X69597Y129167D01*
X69597Y118433D01*
X68111Y116947D01*
X63274Y112110D01*
X63269Y112102D01*
X63260Y112096D01*
X63214Y112019D01*
X63165Y111945D01*
X63163Y111934D01*
X63157Y111925D01*
X63145Y111837D01*
X63128Y111749D01*
X63130Y111739D01*
X63129Y111728D01*
X63166Y111566D01*
X64385Y108624D01*
X64385Y104736D01*
X62897Y101143D01*
X60147Y98393D01*
X56554Y96905D01*
X52666Y96905D01*
G37*
%LPD*%
%LPC*%
G36*
X78066Y46105D02*
X78066Y46105D01*
X74473Y47593D01*
X71723Y50343D01*
X70235Y53936D01*
X70235Y57824D01*
X71723Y61417D01*
X74473Y64167D01*
X78066Y65655D01*
X81954Y65655D01*
X83626Y64962D01*
X83637Y64960D01*
X83646Y64955D01*
X83734Y64941D01*
X83822Y64924D01*
X83832Y64926D01*
X83842Y64925D01*
X83929Y64947D01*
X84016Y64965D01*
X84025Y64971D01*
X84035Y64974D01*
X84170Y65070D01*
X105517Y86417D01*
X105524Y86428D01*
X105534Y86435D01*
X105579Y86510D01*
X105627Y86583D01*
X105629Y86595D01*
X105636Y86606D01*
X105663Y86770D01*
X105663Y157683D01*
X129337Y181357D01*
X246374Y181357D01*
X246386Y181359D01*
X246398Y181357D01*
X246483Y181379D01*
X246569Y181396D01*
X246579Y181403D01*
X246591Y181407D01*
X246727Y181503D01*
X247053Y181830D01*
X268567Y181830D01*
X269460Y180937D01*
X269460Y159423D01*
X268567Y158530D01*
X247053Y158530D01*
X246160Y159423D01*
X246160Y173744D01*
X246159Y173752D01*
X246160Y173761D01*
X246139Y173849D01*
X246121Y173939D01*
X246116Y173946D01*
X246114Y173954D01*
X246060Y174027D01*
X246008Y174103D01*
X246001Y174107D01*
X245996Y174114D01*
X245918Y174161D01*
X245841Y174210D01*
X245832Y174211D01*
X245825Y174216D01*
X245661Y174243D01*
X132490Y174243D01*
X132478Y174241D01*
X132465Y174243D01*
X132381Y174221D01*
X132295Y174204D01*
X132285Y174197D01*
X132273Y174193D01*
X132137Y174097D01*
X112923Y154883D01*
X112916Y154872D01*
X112906Y154865D01*
X112861Y154790D01*
X112813Y154717D01*
X112811Y154705D01*
X112804Y154694D01*
X112777Y154530D01*
X112777Y83617D01*
X110547Y81387D01*
X89200Y60040D01*
X89199Y60039D01*
X89198Y60038D01*
X89194Y60031D01*
X89186Y60026D01*
X89140Y59949D01*
X89091Y59875D01*
X89089Y59864D01*
X89083Y59855D01*
X89071Y59767D01*
X89054Y59679D01*
X89056Y59669D01*
X89055Y59658D01*
X89092Y59496D01*
X89785Y57824D01*
X89785Y53936D01*
X88297Y50343D01*
X85547Y47593D01*
X81954Y46105D01*
X78066Y46105D01*
G37*
%LPD*%
%LPC*%
G36*
X255493Y31530D02*
X255493Y31530D01*
X251211Y33304D01*
X250118Y34397D01*
X250107Y34404D01*
X250100Y34414D01*
X250025Y34458D01*
X249952Y34507D01*
X249940Y34509D01*
X249929Y34516D01*
X249765Y34543D01*
X155263Y34543D01*
X137413Y52393D01*
X137413Y122867D01*
X148913Y134367D01*
X158944Y134367D01*
X158954Y134369D01*
X158964Y134367D01*
X159051Y134388D01*
X159138Y134406D01*
X159147Y134412D01*
X159157Y134415D01*
X159229Y134468D01*
X159302Y134519D01*
X159308Y134528D01*
X159316Y134534D01*
X159405Y134675D01*
X160623Y137617D01*
X163373Y140367D01*
X166966Y141855D01*
X170854Y141855D01*
X174447Y140367D01*
X177197Y137617D01*
X178685Y134024D01*
X178685Y130136D01*
X177197Y126543D01*
X174447Y123793D01*
X170854Y122305D01*
X166966Y122305D01*
X163373Y123793D01*
X160623Y126543D01*
X159405Y129485D01*
X159399Y129494D01*
X159396Y129504D01*
X159344Y129576D01*
X159294Y129650D01*
X159285Y129656D01*
X159279Y129664D01*
X159202Y129709D01*
X159127Y129758D01*
X159117Y129760D01*
X159108Y129766D01*
X158944Y129793D01*
X151014Y129793D01*
X151002Y129791D01*
X150989Y129793D01*
X150905Y129771D01*
X150819Y129754D01*
X150809Y129747D01*
X150797Y129743D01*
X150661Y129647D01*
X142133Y121119D01*
X142126Y121108D01*
X142116Y121101D01*
X142071Y121026D01*
X142023Y120953D01*
X142021Y120941D01*
X142014Y120930D01*
X141987Y120766D01*
X141987Y54494D01*
X141989Y54482D01*
X141987Y54469D01*
X142009Y54385D01*
X142026Y54299D01*
X142033Y54289D01*
X142037Y54277D01*
X142133Y54141D01*
X157011Y39263D01*
X157022Y39256D01*
X157029Y39246D01*
X157104Y39201D01*
X157177Y39153D01*
X157189Y39151D01*
X157200Y39144D01*
X157364Y39117D01*
X246136Y39117D01*
X246142Y39118D01*
X246149Y39117D01*
X246240Y39138D01*
X246331Y39156D01*
X246336Y39160D01*
X246343Y39161D01*
X246418Y39216D01*
X246495Y39269D01*
X246498Y39274D01*
X246504Y39278D01*
X246552Y39358D01*
X246602Y39436D01*
X246603Y39443D01*
X246606Y39448D01*
X246620Y39540D01*
X246635Y39633D01*
X246634Y39639D01*
X246635Y39645D01*
X246598Y39807D01*
X246160Y40863D01*
X246160Y45497D01*
X247934Y49779D01*
X251211Y53056D01*
X255493Y54830D01*
X260127Y54830D01*
X264409Y53056D01*
X267686Y49779D01*
X269460Y45497D01*
X269460Y40863D01*
X267686Y36581D01*
X264409Y33304D01*
X260127Y31530D01*
X255493Y31530D01*
G37*
%LPD*%
%LPC*%
G36*
X192366Y71505D02*
X192366Y71505D01*
X188773Y72993D01*
X186023Y75743D01*
X184535Y79336D01*
X184535Y83224D01*
X186023Y86817D01*
X188773Y89567D01*
X192366Y91055D01*
X196254Y91055D01*
X199847Y89567D01*
X202597Y86817D01*
X203815Y83875D01*
X203821Y83866D01*
X203824Y83856D01*
X203876Y83784D01*
X203926Y83710D01*
X203935Y83704D01*
X203941Y83696D01*
X204018Y83651D01*
X204093Y83602D01*
X204103Y83600D01*
X204112Y83594D01*
X204276Y83567D01*
X218556Y83567D01*
X218568Y83569D01*
X218581Y83567D01*
X218665Y83589D01*
X218751Y83606D01*
X218761Y83613D01*
X218773Y83617D01*
X218909Y83713D01*
X226167Y90971D01*
X226174Y90982D01*
X226184Y90989D01*
X226229Y91064D01*
X226277Y91137D01*
X226279Y91149D01*
X226286Y91160D01*
X226313Y91324D01*
X226313Y108897D01*
X239083Y121667D01*
X245814Y121667D01*
X245824Y121669D01*
X245835Y121667D01*
X245921Y121688D01*
X246009Y121706D01*
X246018Y121712D01*
X246028Y121715D01*
X246099Y121768D01*
X246173Y121819D01*
X246178Y121828D01*
X246187Y121834D01*
X246275Y121975D01*
X247934Y125979D01*
X251211Y129256D01*
X255493Y131030D01*
X260127Y131030D01*
X264409Y129256D01*
X267686Y125979D01*
X269460Y121697D01*
X269460Y117063D01*
X267686Y112781D01*
X264409Y109504D01*
X260127Y107730D01*
X255493Y107730D01*
X251211Y109504D01*
X247934Y112781D01*
X246275Y116785D01*
X246269Y116794D01*
X246267Y116804D01*
X246214Y116876D01*
X246164Y116950D01*
X246155Y116956D01*
X246149Y116964D01*
X246073Y117009D01*
X245997Y117058D01*
X245987Y117060D01*
X245978Y117066D01*
X245814Y117093D01*
X241184Y117093D01*
X241172Y117091D01*
X241159Y117093D01*
X241075Y117071D01*
X240989Y117054D01*
X240979Y117047D01*
X240967Y117043D01*
X240831Y116947D01*
X231033Y107149D01*
X231026Y107138D01*
X231016Y107131D01*
X230971Y107056D01*
X230923Y106983D01*
X230921Y106971D01*
X230914Y106960D01*
X230887Y106796D01*
X230887Y89223D01*
X220657Y78993D01*
X204276Y78993D01*
X204266Y78991D01*
X204256Y78993D01*
X204169Y78972D01*
X204082Y78954D01*
X204073Y78948D01*
X204063Y78945D01*
X203991Y78892D01*
X203918Y78841D01*
X203912Y78832D01*
X203904Y78826D01*
X203815Y78685D01*
X202597Y75743D01*
X199847Y72993D01*
X196254Y71505D01*
X192366Y71505D01*
G37*
%LPD*%
%LPC*%
G36*
X280893Y31530D02*
X280893Y31530D01*
X276611Y33304D01*
X273334Y36581D01*
X271560Y40863D01*
X271560Y45497D01*
X273334Y49779D01*
X276611Y53056D01*
X280893Y54830D01*
X285527Y54830D01*
X289809Y53056D01*
X293086Y49779D01*
X294860Y45497D01*
X294860Y40863D01*
X293086Y36581D01*
X289809Y33304D01*
X285527Y31530D01*
X280893Y31530D01*
G37*
%LPD*%
%LPC*%
G36*
X280893Y56930D02*
X280893Y56930D01*
X276611Y58704D01*
X273334Y61981D01*
X271560Y66263D01*
X271560Y70897D01*
X273334Y75179D01*
X276611Y78456D01*
X280893Y80230D01*
X285527Y80230D01*
X289809Y78456D01*
X293086Y75179D01*
X294860Y70897D01*
X294860Y66263D01*
X293086Y61981D01*
X289809Y58704D01*
X285527Y56930D01*
X280893Y56930D01*
G37*
%LPD*%
%LPC*%
G36*
X255493Y56930D02*
X255493Y56930D01*
X251211Y58704D01*
X247934Y61981D01*
X246160Y66263D01*
X246160Y70897D01*
X247934Y75179D01*
X251211Y78456D01*
X255493Y80230D01*
X260127Y80230D01*
X264409Y78456D01*
X267686Y75179D01*
X269460Y70897D01*
X269460Y66263D01*
X267686Y61981D01*
X264409Y58704D01*
X260127Y56930D01*
X255493Y56930D01*
G37*
%LPD*%
%LPC*%
G36*
X280893Y82330D02*
X280893Y82330D01*
X276611Y84104D01*
X273334Y87381D01*
X271560Y91663D01*
X271560Y96297D01*
X273334Y100579D01*
X276611Y103856D01*
X280893Y105630D01*
X285527Y105630D01*
X289809Y103856D01*
X293086Y100579D01*
X294860Y96297D01*
X294860Y91663D01*
X293086Y87381D01*
X289809Y84104D01*
X285527Y82330D01*
X280893Y82330D01*
G37*
%LPD*%
%LPC*%
G36*
X255493Y133130D02*
X255493Y133130D01*
X251211Y134904D01*
X247934Y138181D01*
X246160Y142463D01*
X246160Y147097D01*
X247934Y151379D01*
X251211Y154656D01*
X255493Y156430D01*
X260127Y156430D01*
X264409Y154656D01*
X267686Y151379D01*
X269460Y147097D01*
X269460Y142463D01*
X267686Y138181D01*
X264409Y134904D01*
X260127Y133130D01*
X255493Y133130D01*
G37*
%LPD*%
%LPC*%
G36*
X255493Y82330D02*
X255493Y82330D01*
X251211Y84104D01*
X247934Y87381D01*
X246160Y91663D01*
X246160Y96297D01*
X247934Y100579D01*
X251211Y103856D01*
X255493Y105630D01*
X260127Y105630D01*
X264409Y103856D01*
X267686Y100579D01*
X269460Y96297D01*
X269460Y91663D01*
X267686Y87381D01*
X264409Y84104D01*
X260127Y82330D01*
X255493Y82330D01*
G37*
%LPD*%
%LPC*%
G36*
X280893Y107730D02*
X280893Y107730D01*
X276611Y109504D01*
X273334Y112781D01*
X271560Y117063D01*
X271560Y121697D01*
X273334Y125979D01*
X276611Y129256D01*
X280893Y131030D01*
X285527Y131030D01*
X289809Y129256D01*
X293086Y125979D01*
X294860Y121697D01*
X294860Y117063D01*
X293086Y112781D01*
X289809Y109504D01*
X285527Y107730D01*
X280893Y107730D01*
G37*
%LPD*%
%LPC*%
G36*
X192366Y147705D02*
X192366Y147705D01*
X188773Y149193D01*
X186023Y151943D01*
X184535Y155536D01*
X184535Y159424D01*
X186023Y163017D01*
X188773Y165767D01*
X192366Y167255D01*
X196254Y167255D01*
X199847Y165767D01*
X202597Y163017D01*
X204085Y159424D01*
X204085Y155536D01*
X202597Y151943D01*
X199847Y149193D01*
X196254Y147705D01*
X192366Y147705D01*
G37*
%LPD*%
%LPC*%
G36*
X166966Y147705D02*
X166966Y147705D01*
X163373Y149193D01*
X160623Y151943D01*
X159135Y155536D01*
X159135Y159424D01*
X160623Y163017D01*
X163373Y165767D01*
X166966Y167255D01*
X170854Y167255D01*
X174447Y165767D01*
X177197Y163017D01*
X178685Y159424D01*
X178685Y155536D01*
X177197Y151943D01*
X174447Y149193D01*
X170854Y147705D01*
X166966Y147705D01*
G37*
%LPD*%
%LPC*%
G36*
X192366Y122305D02*
X192366Y122305D01*
X188773Y123793D01*
X186023Y126543D01*
X184535Y130136D01*
X184535Y134024D01*
X186023Y137617D01*
X188773Y140367D01*
X192366Y141855D01*
X196254Y141855D01*
X199847Y140367D01*
X202597Y137617D01*
X204085Y134024D01*
X204085Y130136D01*
X202597Y126543D01*
X199847Y123793D01*
X196254Y122305D01*
X192366Y122305D01*
G37*
%LPD*%
%LPC*%
G36*
X192366Y96905D02*
X192366Y96905D01*
X188773Y98393D01*
X186023Y101143D01*
X184535Y104736D01*
X184535Y108624D01*
X186023Y112217D01*
X188773Y114967D01*
X192366Y116455D01*
X196254Y116455D01*
X199847Y114967D01*
X202597Y112217D01*
X204085Y108624D01*
X204085Y104736D01*
X202597Y101143D01*
X199847Y98393D01*
X196254Y96905D01*
X192366Y96905D01*
G37*
%LPD*%
%LPC*%
G36*
X166966Y96905D02*
X166966Y96905D01*
X163373Y98393D01*
X160623Y101143D01*
X159135Y104736D01*
X159135Y108624D01*
X160623Y112217D01*
X163373Y114967D01*
X166966Y116455D01*
X170854Y116455D01*
X174447Y114967D01*
X177197Y112217D01*
X178685Y108624D01*
X178685Y104736D01*
X177197Y101143D01*
X174447Y98393D01*
X170854Y96905D01*
X166966Y96905D01*
G37*
%LPD*%
%LPC*%
G36*
X78066Y96905D02*
X78066Y96905D01*
X74473Y98393D01*
X71723Y101143D01*
X70235Y104736D01*
X70235Y108624D01*
X71723Y112217D01*
X74473Y114967D01*
X78066Y116455D01*
X81954Y116455D01*
X85547Y114967D01*
X88297Y112217D01*
X89785Y108624D01*
X89785Y104736D01*
X88297Y101143D01*
X85547Y98393D01*
X81954Y96905D01*
X78066Y96905D01*
G37*
%LPD*%
%LPC*%
G36*
X78066Y71505D02*
X78066Y71505D01*
X74473Y72993D01*
X71723Y75743D01*
X70235Y79336D01*
X70235Y83224D01*
X71723Y86817D01*
X74473Y89567D01*
X78066Y91055D01*
X81954Y91055D01*
X85547Y89567D01*
X88297Y86817D01*
X89785Y83224D01*
X89785Y79336D01*
X88297Y75743D01*
X85547Y72993D01*
X81954Y71505D01*
X78066Y71505D01*
G37*
%LPD*%
%LPC*%
G36*
X166966Y71505D02*
X166966Y71505D01*
X163373Y72993D01*
X160623Y75743D01*
X159135Y79336D01*
X159135Y83224D01*
X160623Y86817D01*
X163373Y89567D01*
X166966Y91055D01*
X170854Y91055D01*
X174447Y89567D01*
X177197Y86817D01*
X178685Y83224D01*
X178685Y79336D01*
X177197Y75743D01*
X174447Y72993D01*
X170854Y71505D01*
X166966Y71505D01*
G37*
%LPD*%
%LPC*%
G36*
X192366Y46105D02*
X192366Y46105D01*
X188773Y47593D01*
X186023Y50343D01*
X184535Y53936D01*
X184535Y57824D01*
X186023Y61417D01*
X188773Y64167D01*
X192366Y65655D01*
X196254Y65655D01*
X199847Y64167D01*
X202597Y61417D01*
X204085Y57824D01*
X204085Y53936D01*
X202597Y50343D01*
X199847Y47593D01*
X196254Y46105D01*
X192366Y46105D01*
G37*
%LPD*%
%LPC*%
G36*
X52666Y71505D02*
X52666Y71505D01*
X49073Y72993D01*
X46323Y75743D01*
X44835Y79336D01*
X44835Y83224D01*
X46323Y86817D01*
X49073Y89567D01*
X52666Y91055D01*
X56554Y91055D01*
X60147Y89567D01*
X62897Y86817D01*
X64385Y83224D01*
X64385Y79336D01*
X62897Y75743D01*
X60147Y72993D01*
X56554Y71505D01*
X52666Y71505D01*
G37*
%LPD*%
%LPC*%
G36*
X270545Y171179D02*
X270545Y171179D01*
X270856Y173146D01*
X271472Y175042D01*
X272377Y176818D01*
X273549Y178431D01*
X274959Y179841D01*
X276572Y181013D01*
X278348Y181918D01*
X280244Y182534D01*
X282211Y182845D01*
X282211Y171179D01*
X270545Y171179D01*
G37*
%LPD*%
%LPC*%
G36*
X280244Y157826D02*
X280244Y157826D01*
X278348Y158442D01*
X276572Y159347D01*
X274959Y160519D01*
X273549Y161929D01*
X272377Y163542D01*
X271472Y165318D01*
X270856Y167214D01*
X270545Y169181D01*
X282211Y169181D01*
X282211Y157515D01*
X280244Y157826D01*
G37*
%LPD*%
%LPC*%
G36*
X169909Y56879D02*
X169909Y56879D01*
X169909Y66647D01*
X171437Y66405D01*
X173052Y65880D01*
X174566Y65109D01*
X175940Y64111D01*
X177141Y62910D01*
X178139Y61536D01*
X178910Y60022D01*
X179435Y58407D01*
X179677Y56879D01*
X169909Y56879D01*
G37*
%LPD*%
%LPC*%
G36*
X55609Y56879D02*
X55609Y56879D01*
X55609Y66647D01*
X57137Y66405D01*
X58752Y65880D01*
X60266Y65109D01*
X61640Y64111D01*
X62841Y62910D01*
X63839Y61536D01*
X64610Y60022D01*
X65135Y58407D01*
X65377Y56879D01*
X55609Y56879D01*
G37*
%LPD*%
%LPC*%
G36*
X43843Y56879D02*
X43843Y56879D01*
X44085Y58407D01*
X44610Y60022D01*
X45381Y61536D01*
X46379Y62910D01*
X47580Y64111D01*
X48954Y65109D01*
X50468Y65880D01*
X52083Y66405D01*
X53611Y66647D01*
X53611Y56879D01*
X43843Y56879D01*
G37*
%LPD*%
%LPC*%
G36*
X158143Y56879D02*
X158143Y56879D01*
X158385Y58407D01*
X158910Y60022D01*
X159681Y61536D01*
X160679Y62910D01*
X161880Y64111D01*
X163254Y65109D01*
X164768Y65880D01*
X166383Y66405D01*
X167911Y66647D01*
X167911Y56879D01*
X158143Y56879D01*
G37*
%LPD*%
%LPC*%
G36*
X169909Y54881D02*
X169909Y54881D01*
X179677Y54881D01*
X179435Y53353D01*
X178910Y51738D01*
X178139Y50224D01*
X177141Y48850D01*
X175940Y47649D01*
X174566Y46651D01*
X173052Y45880D01*
X171437Y45355D01*
X169909Y45113D01*
X169909Y54881D01*
G37*
%LPD*%
%LPC*%
G36*
X55609Y54881D02*
X55609Y54881D01*
X65377Y54881D01*
X65135Y53353D01*
X64610Y51738D01*
X63839Y50224D01*
X62841Y48850D01*
X61640Y47649D01*
X60266Y46651D01*
X58752Y45880D01*
X57137Y45355D01*
X55609Y45113D01*
X55609Y54881D01*
G37*
%LPD*%
%LPC*%
G36*
X166383Y45355D02*
X166383Y45355D01*
X164768Y45880D01*
X163254Y46651D01*
X161880Y47649D01*
X160679Y48850D01*
X159681Y50224D01*
X158910Y51738D01*
X158385Y53353D01*
X158143Y54881D01*
X167911Y54881D01*
X167911Y45113D01*
X166383Y45355D01*
G37*
%LPD*%
%LPC*%
G36*
X52083Y45355D02*
X52083Y45355D01*
X50468Y45880D01*
X48954Y46651D01*
X47580Y47649D01*
X46379Y48850D01*
X45381Y50224D01*
X44610Y51738D01*
X44085Y53353D01*
X43843Y54881D01*
X53611Y54881D01*
X53611Y45113D01*
X52083Y45355D01*
G37*
%LPD*%
%LPC*%
G36*
X168909Y55879D02*
X168909Y55879D01*
X168909Y55881D01*
X168911Y55881D01*
X168911Y55879D01*
X168909Y55879D01*
G37*
%LPD*%
%LPC*%
G36*
X54609Y55879D02*
X54609Y55879D01*
X54609Y55881D01*
X54611Y55881D01*
X54611Y55879D01*
X54609Y55879D01*
G37*
%LPD*%
D10*
X80010Y157480D03*
X54610Y157480D03*
X80010Y132080D03*
X54610Y132080D03*
X80010Y106680D03*
X54610Y106680D03*
X54610Y81280D03*
X80010Y81280D03*
X54610Y55880D03*
X80010Y55880D03*
X194310Y157480D03*
X168910Y157480D03*
X194310Y132080D03*
X168910Y132080D03*
X194310Y106680D03*
X168910Y106680D03*
X168910Y81280D03*
X194310Y81280D03*
X168910Y55880D03*
X194310Y55880D03*
D11*
X257810Y170180D03*
D12*
X283210Y170180D03*
X257810Y144780D03*
X283210Y144780D03*
X257810Y119380D03*
X283210Y119380D03*
X257810Y93980D03*
X283210Y93980D03*
X257810Y68580D03*
X283210Y68580D03*
X257810Y43180D03*
X283210Y43180D03*
D13*
X67310Y119380D02*
X54610Y106680D01*
X290602Y186690D02*
X297180Y180112D01*
X297180Y158750D01*
X290602Y186690D02*
X85090Y186690D01*
X283210Y144780D02*
X297180Y158750D01*
X67310Y168910D02*
X67310Y119380D01*
X67310Y168910D02*
X85090Y186690D01*
D14*
X109220Y85090D02*
X80010Y55880D01*
X250190Y177800D02*
X257810Y170180D01*
X109220Y156210D02*
X109220Y85090D01*
X109220Y156210D02*
X130810Y177800D01*
X250190Y177800D01*
D13*
X257810Y43180D02*
X251460Y36830D01*
X156210Y36830D02*
X139700Y53340D01*
X139700Y121920D01*
X149860Y132080D02*
X168910Y132080D01*
X156210Y36830D02*
X251460Y36830D01*
X149860Y132080D02*
X139700Y121920D01*
X194310Y81280D02*
X219710Y81280D01*
X228600Y90170D02*
X228600Y107950D01*
X240030Y119380D01*
X257810Y119380D01*
X228600Y90170D02*
X219710Y81280D01*
M02*
