G04 EAGLE Gerber X2 export*
%TF.Part,Single*%
%TF.FileFunction,Legend,Top,1*%
%TF.FilePolarity,Positive*%
%TF.GenerationSoftware,Autodesk,EAGLE,8.6.3*%
%TF.CreationDate,2023-09-30T00:22:19Z*%
G75*
%MOMM*%
%FSLAX34Y34*%
%LPD*%
%AMOC8*
5,1,8,0,0,1.08239X$1,22.5*%
G01*
%ADD10C,0.101600*%
%ADD11C,0.076200*%
%ADD12C,0.127000*%
%ADD13C,0.200000*%

G36*
X259323Y194569D02*
X259323Y194569D01*
X259411Y194578D01*
X259421Y194583D01*
X259432Y194585D01*
X259508Y194631D01*
X259585Y194673D01*
X259592Y194682D01*
X259602Y194688D01*
X259653Y194760D01*
X259708Y194829D01*
X259711Y194841D01*
X259718Y194850D01*
X259760Y195011D01*
X259926Y196911D01*
X259924Y196930D01*
X259928Y196954D01*
X259934Y200532D01*
X261196Y200739D01*
X289045Y200739D01*
X289112Y200752D01*
X289180Y200757D01*
X289209Y200772D01*
X289235Y200777D01*
X289253Y200772D01*
X289257Y200772D01*
X289260Y200772D01*
X289284Y200775D01*
X289419Y200787D01*
X290880Y201175D01*
X290919Y201194D01*
X290962Y201204D01*
X291007Y201238D01*
X291058Y201263D01*
X291086Y201296D01*
X291122Y201322D01*
X291151Y201371D01*
X291187Y201414D01*
X291201Y201456D01*
X291223Y201493D01*
X291235Y201562D01*
X291248Y201603D01*
X291246Y201627D01*
X291251Y201657D01*
X291251Y207661D01*
X291242Y207705D01*
X291235Y207787D01*
X290820Y209373D01*
X290800Y209413D01*
X290790Y209457D01*
X290757Y209502D01*
X290732Y209552D01*
X290698Y209581D01*
X290672Y209617D01*
X290624Y209645D01*
X290582Y209682D01*
X290539Y209696D01*
X290501Y209718D01*
X290433Y209730D01*
X290393Y209743D01*
X290368Y209741D01*
X290337Y209746D01*
X260562Y209746D01*
X259934Y210536D01*
X259934Y212363D01*
X259934Y212364D01*
X259934Y212365D01*
X259932Y213081D01*
X259931Y213086D01*
X259932Y213092D01*
X259884Y215092D01*
X259869Y215157D01*
X259863Y215224D01*
X259847Y215253D01*
X259840Y215286D01*
X259801Y215340D01*
X259769Y215399D01*
X259743Y215420D01*
X259724Y215447D01*
X259666Y215482D01*
X259614Y215524D01*
X259582Y215533D01*
X259553Y215550D01*
X259487Y215560D01*
X259423Y215578D01*
X259385Y215575D01*
X259357Y215579D01*
X259317Y215568D01*
X259257Y215563D01*
X257774Y215170D01*
X257734Y215150D01*
X257658Y215123D01*
X250672Y211216D01*
X250671Y211216D01*
X250670Y211215D01*
X241958Y206294D01*
X241892Y206237D01*
X241823Y206183D01*
X241816Y206171D01*
X241808Y206164D01*
X241789Y206126D01*
X241738Y206040D01*
X241346Y205027D01*
X241334Y204956D01*
X241315Y204887D01*
X241318Y204859D01*
X241313Y204831D01*
X241330Y204761D01*
X241338Y204690D01*
X241352Y204665D01*
X241359Y204638D01*
X241401Y204580D01*
X241437Y204517D01*
X241462Y204497D01*
X241477Y204477D01*
X241513Y204455D01*
X241566Y204412D01*
X250276Y199488D01*
X250277Y199487D01*
X250278Y199487D01*
X257264Y195579D01*
X257266Y195579D01*
X257268Y195577D01*
X259023Y194616D01*
X259034Y194613D01*
X259043Y194606D01*
X259129Y194584D01*
X259213Y194558D01*
X259225Y194559D01*
X259236Y194556D01*
X259323Y194569D01*
G37*
%LPC*%
G36*
X256134Y198891D02*
X256134Y198891D01*
X245692Y204714D01*
X244855Y205267D01*
X245888Y205868D01*
X249369Y207831D01*
X250488Y208456D01*
X256889Y211989D01*
X257040Y211178D01*
X257040Y209223D01*
X257057Y209142D01*
X257067Y209060D01*
X257077Y209043D01*
X257080Y209028D01*
X257105Y208991D01*
X257147Y208914D01*
X258028Y207794D01*
X258060Y207767D01*
X258085Y207732D01*
X258135Y207703D01*
X258180Y207665D01*
X258220Y207653D01*
X258256Y207631D01*
X258328Y207619D01*
X258369Y207606D01*
X258392Y207608D01*
X258420Y207603D01*
X288052Y207603D01*
X288357Y206456D01*
X288357Y202983D01*
X286974Y202881D01*
X258977Y202881D01*
X258967Y202879D01*
X258958Y202881D01*
X258795Y202847D01*
X257351Y202280D01*
X257342Y202274D01*
X257331Y202272D01*
X257258Y202220D01*
X257184Y202172D01*
X257178Y202163D01*
X257169Y202157D01*
X257122Y202081D01*
X257072Y202007D01*
X257070Y201997D01*
X257065Y201987D01*
X257034Y201824D01*
X256980Y198549D01*
X256134Y198891D01*
G37*
%LPD*%
D10*
X123246Y12178D02*
X123246Y13914D01*
X129032Y13914D01*
X129032Y10442D01*
X129030Y10346D01*
X129024Y10251D01*
X129014Y10156D01*
X129000Y10061D01*
X128983Y9967D01*
X128961Y9874D01*
X128936Y9782D01*
X128907Y9691D01*
X128874Y9601D01*
X128837Y9512D01*
X128797Y9426D01*
X128753Y9341D01*
X128706Y9258D01*
X128655Y9176D01*
X128601Y9097D01*
X128544Y9021D01*
X128484Y8946D01*
X128420Y8875D01*
X128354Y8806D01*
X128285Y8740D01*
X128214Y8676D01*
X128139Y8616D01*
X128063Y8559D01*
X127984Y8505D01*
X127903Y8454D01*
X127819Y8407D01*
X127734Y8363D01*
X127648Y8323D01*
X127559Y8286D01*
X127469Y8253D01*
X127378Y8224D01*
X127286Y8199D01*
X127193Y8177D01*
X127099Y8160D01*
X127004Y8146D01*
X126909Y8136D01*
X126814Y8130D01*
X126718Y8128D01*
X120932Y8128D01*
X120836Y8130D01*
X120741Y8136D01*
X120646Y8146D01*
X120551Y8160D01*
X120457Y8177D01*
X120364Y8199D01*
X120272Y8224D01*
X120181Y8253D01*
X120091Y8286D01*
X120002Y8323D01*
X119916Y8363D01*
X119831Y8407D01*
X119748Y8454D01*
X119666Y8505D01*
X119587Y8559D01*
X119511Y8616D01*
X119436Y8676D01*
X119365Y8740D01*
X119296Y8806D01*
X119230Y8875D01*
X119166Y8946D01*
X119106Y9021D01*
X119049Y9097D01*
X118995Y9176D01*
X118944Y9257D01*
X118897Y9341D01*
X118853Y9426D01*
X118813Y9512D01*
X118776Y9601D01*
X118743Y9691D01*
X118714Y9782D01*
X118689Y9874D01*
X118667Y9967D01*
X118650Y10061D01*
X118636Y10156D01*
X118626Y10251D01*
X118620Y10346D01*
X118618Y10442D01*
X118618Y13914D01*
X118618Y19122D02*
X129032Y19122D01*
X129032Y23751D01*
X129032Y29956D02*
X129032Y32270D01*
X129032Y29956D02*
X129030Y29860D01*
X129024Y29765D01*
X129014Y29670D01*
X129000Y29575D01*
X128983Y29481D01*
X128961Y29388D01*
X128936Y29296D01*
X128907Y29205D01*
X128874Y29115D01*
X128837Y29026D01*
X128797Y28940D01*
X128753Y28855D01*
X128706Y28772D01*
X128655Y28690D01*
X128601Y28611D01*
X128544Y28535D01*
X128484Y28460D01*
X128420Y28389D01*
X128354Y28320D01*
X128285Y28254D01*
X128214Y28190D01*
X128139Y28130D01*
X128063Y28073D01*
X127984Y28019D01*
X127903Y27968D01*
X127819Y27921D01*
X127734Y27877D01*
X127648Y27837D01*
X127559Y27800D01*
X127469Y27767D01*
X127378Y27738D01*
X127286Y27713D01*
X127193Y27691D01*
X127099Y27674D01*
X127004Y27660D01*
X126909Y27650D01*
X126814Y27644D01*
X126718Y27642D01*
X120932Y27642D01*
X120836Y27644D01*
X120741Y27650D01*
X120646Y27660D01*
X120551Y27674D01*
X120457Y27691D01*
X120364Y27713D01*
X120272Y27738D01*
X120181Y27767D01*
X120091Y27800D01*
X120002Y27837D01*
X119916Y27877D01*
X119831Y27921D01*
X119748Y27968D01*
X119666Y28019D01*
X119587Y28073D01*
X119511Y28130D01*
X119436Y28190D01*
X119365Y28254D01*
X119296Y28320D01*
X119230Y28389D01*
X119166Y28460D01*
X119106Y28535D01*
X119049Y28611D01*
X118995Y28690D01*
X118944Y28771D01*
X118897Y28855D01*
X118853Y28940D01*
X118813Y29026D01*
X118776Y29115D01*
X118743Y29205D01*
X118714Y29296D01*
X118689Y29388D01*
X118667Y29481D01*
X118650Y29575D01*
X118636Y29670D01*
X118626Y29765D01*
X118620Y29860D01*
X118618Y29956D01*
X118618Y32270D01*
X118618Y36589D02*
X129032Y36589D01*
X118618Y36589D02*
X118618Y39481D01*
X118620Y39587D01*
X118626Y39692D01*
X118635Y39797D01*
X118649Y39902D01*
X118666Y40006D01*
X118687Y40110D01*
X118712Y40213D01*
X118741Y40314D01*
X118773Y40415D01*
X118809Y40514D01*
X118848Y40612D01*
X118892Y40709D01*
X118938Y40804D01*
X118988Y40897D01*
X119042Y40988D01*
X119098Y41077D01*
X119158Y41164D01*
X119221Y41249D01*
X119287Y41332D01*
X119356Y41412D01*
X119428Y41489D01*
X119503Y41564D01*
X119580Y41636D01*
X119660Y41705D01*
X119743Y41771D01*
X119828Y41834D01*
X119915Y41894D01*
X120004Y41950D01*
X120095Y42004D01*
X120188Y42054D01*
X120283Y42100D01*
X120380Y42144D01*
X120478Y42183D01*
X120577Y42219D01*
X120678Y42251D01*
X120779Y42280D01*
X120882Y42305D01*
X120986Y42326D01*
X121090Y42343D01*
X121195Y42357D01*
X121300Y42366D01*
X121405Y42372D01*
X121511Y42374D01*
X126139Y42374D01*
X126245Y42372D01*
X126350Y42366D01*
X126455Y42357D01*
X126560Y42343D01*
X126664Y42326D01*
X126768Y42305D01*
X126871Y42280D01*
X126972Y42251D01*
X127073Y42219D01*
X127172Y42183D01*
X127270Y42144D01*
X127367Y42100D01*
X127462Y42054D01*
X127555Y42004D01*
X127646Y41950D01*
X127735Y41894D01*
X127822Y41834D01*
X127907Y41771D01*
X127990Y41705D01*
X128070Y41636D01*
X128147Y41564D01*
X128222Y41489D01*
X128294Y41412D01*
X128363Y41332D01*
X128429Y41249D01*
X128492Y41164D01*
X128552Y41077D01*
X128608Y40988D01*
X128662Y40897D01*
X128712Y40804D01*
X128758Y40709D01*
X128802Y40612D01*
X128841Y40514D01*
X128877Y40415D01*
X128909Y40314D01*
X128938Y40213D01*
X128963Y40110D01*
X128984Y40006D01*
X129001Y39902D01*
X129015Y39797D01*
X129024Y39692D01*
X129030Y39587D01*
X129032Y39481D01*
X129032Y36589D01*
X129032Y52126D02*
X118618Y55598D01*
X129032Y59069D01*
X126429Y58201D02*
X126429Y52994D01*
X129032Y63335D02*
X118618Y63335D01*
X118618Y66227D01*
X118620Y66333D01*
X118626Y66438D01*
X118635Y66543D01*
X118649Y66648D01*
X118666Y66752D01*
X118687Y66856D01*
X118712Y66959D01*
X118741Y67060D01*
X118773Y67161D01*
X118809Y67260D01*
X118848Y67358D01*
X118892Y67455D01*
X118938Y67550D01*
X118988Y67643D01*
X119042Y67734D01*
X119098Y67823D01*
X119158Y67910D01*
X119221Y67995D01*
X119287Y68078D01*
X119356Y68158D01*
X119428Y68235D01*
X119503Y68310D01*
X119580Y68382D01*
X119660Y68451D01*
X119743Y68517D01*
X119828Y68580D01*
X119915Y68640D01*
X120004Y68696D01*
X120095Y68750D01*
X120188Y68800D01*
X120283Y68846D01*
X120380Y68890D01*
X120478Y68929D01*
X120577Y68965D01*
X120678Y68997D01*
X120779Y69026D01*
X120882Y69051D01*
X120986Y69072D01*
X121090Y69089D01*
X121195Y69103D01*
X121300Y69112D01*
X121405Y69118D01*
X121511Y69120D01*
X126139Y69120D01*
X126245Y69118D01*
X126350Y69112D01*
X126455Y69103D01*
X126560Y69089D01*
X126664Y69072D01*
X126768Y69051D01*
X126871Y69026D01*
X126972Y68997D01*
X127073Y68965D01*
X127172Y68929D01*
X127270Y68890D01*
X127367Y68846D01*
X127462Y68800D01*
X127555Y68750D01*
X127646Y68696D01*
X127735Y68640D01*
X127822Y68580D01*
X127907Y68517D01*
X127990Y68451D01*
X128070Y68382D01*
X128147Y68310D01*
X128222Y68235D01*
X128294Y68158D01*
X128363Y68078D01*
X128429Y67995D01*
X128492Y67910D01*
X128552Y67823D01*
X128608Y67734D01*
X128662Y67643D01*
X128712Y67550D01*
X128758Y67455D01*
X128802Y67358D01*
X128841Y67260D01*
X128877Y67161D01*
X128909Y67060D01*
X128938Y66959D01*
X128963Y66856D01*
X128984Y66752D01*
X129001Y66648D01*
X129015Y66543D01*
X129024Y66438D01*
X129030Y66333D01*
X129032Y66227D01*
X129032Y63335D01*
X129032Y73386D02*
X118618Y76857D01*
X129032Y80329D01*
X126429Y79461D02*
X126429Y74254D01*
X129032Y84755D02*
X118618Y84755D01*
X118618Y87648D01*
X118620Y87755D01*
X118626Y87862D01*
X118636Y87968D01*
X118650Y88074D01*
X118667Y88180D01*
X118689Y88284D01*
X118714Y88388D01*
X118744Y88491D01*
X118777Y88593D01*
X118813Y88693D01*
X118854Y88792D01*
X118898Y88889D01*
X118946Y88985D01*
X118997Y89079D01*
X119051Y89171D01*
X119109Y89261D01*
X119171Y89348D01*
X119235Y89434D01*
X119302Y89517D01*
X119373Y89597D01*
X119447Y89675D01*
X119523Y89750D01*
X119602Y89822D01*
X119683Y89891D01*
X119768Y89957D01*
X119854Y90020D01*
X119943Y90079D01*
X120034Y90135D01*
X120127Y90188D01*
X120221Y90238D01*
X120318Y90284D01*
X120416Y90326D01*
X120516Y90364D01*
X120617Y90399D01*
X120719Y90431D01*
X120823Y90458D01*
X120927Y90481D01*
X121032Y90501D01*
X121138Y90517D01*
X121244Y90529D01*
X121351Y90537D01*
X121458Y90541D01*
X121564Y90541D01*
X121671Y90537D01*
X121778Y90529D01*
X121884Y90517D01*
X121990Y90501D01*
X122095Y90481D01*
X122199Y90458D01*
X122303Y90431D01*
X122405Y90399D01*
X122506Y90364D01*
X122606Y90326D01*
X122704Y90284D01*
X122801Y90238D01*
X122895Y90188D01*
X122988Y90135D01*
X123079Y90079D01*
X123168Y90020D01*
X123254Y89957D01*
X123339Y89891D01*
X123420Y89822D01*
X123499Y89750D01*
X123575Y89675D01*
X123649Y89597D01*
X123720Y89517D01*
X123787Y89434D01*
X123851Y89348D01*
X123913Y89261D01*
X123971Y89171D01*
X124025Y89079D01*
X124076Y88985D01*
X124124Y88889D01*
X124168Y88792D01*
X124209Y88693D01*
X124245Y88593D01*
X124278Y88491D01*
X124308Y88388D01*
X124333Y88284D01*
X124355Y88180D01*
X124372Y88074D01*
X124386Y87968D01*
X124396Y87862D01*
X124402Y87755D01*
X124404Y87648D01*
X124404Y84755D01*
X129032Y96745D02*
X118618Y96745D01*
X118618Y93853D02*
X118618Y99638D01*
X129032Y103818D02*
X129032Y108447D01*
X129032Y103818D02*
X118618Y103818D01*
X118618Y108447D01*
X123246Y107289D02*
X123246Y103818D01*
X118618Y112782D02*
X129032Y112782D01*
X118618Y112782D02*
X118618Y115675D01*
X118620Y115782D01*
X118626Y115889D01*
X118636Y115995D01*
X118650Y116101D01*
X118667Y116207D01*
X118689Y116311D01*
X118714Y116415D01*
X118744Y116518D01*
X118777Y116620D01*
X118813Y116720D01*
X118854Y116819D01*
X118898Y116916D01*
X118946Y117012D01*
X118997Y117106D01*
X119051Y117198D01*
X119109Y117288D01*
X119171Y117375D01*
X119235Y117461D01*
X119302Y117544D01*
X119373Y117624D01*
X119447Y117702D01*
X119523Y117777D01*
X119602Y117849D01*
X119683Y117918D01*
X119768Y117984D01*
X119854Y118047D01*
X119943Y118106D01*
X120034Y118162D01*
X120127Y118215D01*
X120221Y118265D01*
X120318Y118311D01*
X120416Y118353D01*
X120516Y118391D01*
X120617Y118426D01*
X120719Y118458D01*
X120823Y118485D01*
X120927Y118508D01*
X121032Y118528D01*
X121138Y118544D01*
X121244Y118556D01*
X121351Y118564D01*
X121458Y118568D01*
X121564Y118568D01*
X121671Y118564D01*
X121778Y118556D01*
X121884Y118544D01*
X121990Y118528D01*
X122095Y118508D01*
X122199Y118485D01*
X122303Y118458D01*
X122405Y118426D01*
X122506Y118391D01*
X122606Y118353D01*
X122704Y118311D01*
X122801Y118265D01*
X122895Y118215D01*
X122988Y118162D01*
X123079Y118106D01*
X123168Y118047D01*
X123254Y117984D01*
X123339Y117918D01*
X123420Y117849D01*
X123499Y117777D01*
X123575Y117702D01*
X123649Y117624D01*
X123720Y117544D01*
X123787Y117461D01*
X123851Y117375D01*
X123913Y117288D01*
X123971Y117198D01*
X124025Y117106D01*
X124076Y117012D01*
X124124Y116916D01*
X124168Y116819D01*
X124209Y116720D01*
X124245Y116620D01*
X124278Y116518D01*
X124308Y116415D01*
X124333Y116311D01*
X124355Y116207D01*
X124372Y116101D01*
X124386Y115995D01*
X124396Y115889D01*
X124402Y115782D01*
X124404Y115675D01*
X124404Y112782D01*
X124404Y116253D02*
X129032Y118568D01*
X265938Y188468D02*
X265938Y198882D01*
X265938Y188468D02*
X270566Y188468D01*
X274853Y188468D02*
X279482Y188468D01*
X274853Y188468D02*
X274853Y198882D01*
X279482Y198882D01*
X278325Y194254D02*
X274853Y194254D01*
X283769Y198882D02*
X283769Y188468D01*
X283769Y198882D02*
X288397Y198882D01*
X288397Y194254D02*
X283769Y194254D01*
X294527Y198882D02*
X294527Y188468D01*
X291634Y198882D02*
X297419Y198882D01*
D11*
X13589Y8735D02*
X13589Y6689D01*
X13587Y6620D01*
X13581Y6552D01*
X13572Y6483D01*
X13558Y6416D01*
X13541Y6349D01*
X13520Y6283D01*
X13496Y6219D01*
X13467Y6156D01*
X13436Y6095D01*
X13401Y6036D01*
X13363Y5978D01*
X13321Y5923D01*
X13277Y5871D01*
X13229Y5821D01*
X13179Y5773D01*
X13127Y5729D01*
X13072Y5688D01*
X13014Y5649D01*
X12955Y5614D01*
X12894Y5583D01*
X12831Y5554D01*
X12767Y5530D01*
X12701Y5509D01*
X12634Y5492D01*
X12567Y5478D01*
X12499Y5469D01*
X12430Y5463D01*
X12361Y5461D01*
X9906Y5461D01*
X9837Y5463D01*
X9769Y5469D01*
X9700Y5478D01*
X9633Y5492D01*
X9566Y5509D01*
X9500Y5530D01*
X9436Y5554D01*
X9373Y5583D01*
X9312Y5614D01*
X9253Y5649D01*
X9195Y5687D01*
X9140Y5729D01*
X9088Y5773D01*
X9038Y5821D01*
X8990Y5871D01*
X8946Y5923D01*
X8904Y5978D01*
X8866Y6036D01*
X8831Y6095D01*
X8800Y6156D01*
X8771Y6219D01*
X8747Y6283D01*
X8726Y6349D01*
X8709Y6416D01*
X8695Y6483D01*
X8686Y6552D01*
X8680Y6620D01*
X8678Y6689D01*
X8678Y8735D01*
X14817Y8735D01*
X14886Y8733D01*
X14954Y8727D01*
X15023Y8718D01*
X15090Y8704D01*
X15157Y8687D01*
X15223Y8666D01*
X15287Y8642D01*
X15350Y8613D01*
X15411Y8582D01*
X15470Y8547D01*
X15528Y8509D01*
X15583Y8467D01*
X15635Y8423D01*
X15685Y8375D01*
X15733Y8325D01*
X15777Y8273D01*
X15819Y8218D01*
X15857Y8160D01*
X15892Y8101D01*
X15923Y8040D01*
X15952Y7977D01*
X15976Y7913D01*
X15997Y7847D01*
X16014Y7780D01*
X16028Y7713D01*
X16037Y7644D01*
X16043Y7576D01*
X16045Y7507D01*
X16044Y7507D02*
X16044Y5870D01*
X13589Y12016D02*
X8678Y12016D01*
X6632Y11811D02*
X6223Y11811D01*
X6223Y12220D01*
X6632Y12220D01*
X6632Y11811D01*
X8678Y14381D02*
X8678Y16837D01*
X6223Y15200D02*
X12361Y15200D01*
X12361Y15199D02*
X12430Y15201D01*
X12498Y15207D01*
X12567Y15216D01*
X12634Y15230D01*
X12701Y15247D01*
X12767Y15268D01*
X12831Y15292D01*
X12894Y15321D01*
X12955Y15352D01*
X13014Y15387D01*
X13072Y15425D01*
X13127Y15467D01*
X13179Y15511D01*
X13229Y15559D01*
X13277Y15609D01*
X13321Y15661D01*
X13363Y15716D01*
X13401Y15774D01*
X13436Y15833D01*
X13467Y15894D01*
X13496Y15957D01*
X13520Y16021D01*
X13541Y16087D01*
X13558Y16154D01*
X13572Y16221D01*
X13581Y16290D01*
X13587Y16358D01*
X13589Y16427D01*
X13589Y16837D01*
X13589Y19888D02*
X6223Y19888D01*
X8678Y19888D02*
X8678Y21934D01*
X8680Y22003D01*
X8686Y22071D01*
X8695Y22140D01*
X8709Y22207D01*
X8726Y22274D01*
X8747Y22340D01*
X8771Y22404D01*
X8800Y22467D01*
X8831Y22528D01*
X8866Y22587D01*
X8904Y22645D01*
X8946Y22700D01*
X8990Y22752D01*
X9038Y22802D01*
X9088Y22850D01*
X9140Y22894D01*
X9195Y22936D01*
X9253Y22974D01*
X9312Y23009D01*
X9373Y23040D01*
X9436Y23069D01*
X9500Y23093D01*
X9566Y23114D01*
X9633Y23131D01*
X9700Y23145D01*
X9769Y23154D01*
X9837Y23160D01*
X9906Y23162D01*
X13589Y23162D01*
X12361Y26716D02*
X8678Y26716D01*
X12361Y26716D02*
X12430Y26718D01*
X12498Y26724D01*
X12567Y26733D01*
X12634Y26747D01*
X12701Y26764D01*
X12767Y26785D01*
X12831Y26809D01*
X12894Y26838D01*
X12955Y26869D01*
X13014Y26904D01*
X13072Y26942D01*
X13127Y26984D01*
X13179Y27028D01*
X13229Y27076D01*
X13277Y27126D01*
X13321Y27178D01*
X13363Y27233D01*
X13401Y27291D01*
X13436Y27350D01*
X13467Y27411D01*
X13496Y27474D01*
X13520Y27538D01*
X13541Y27604D01*
X13558Y27671D01*
X13572Y27738D01*
X13581Y27807D01*
X13587Y27875D01*
X13589Y27944D01*
X13589Y29990D01*
X8678Y29990D01*
X6223Y33584D02*
X13589Y33584D01*
X13589Y35630D01*
X13587Y35699D01*
X13581Y35767D01*
X13572Y35836D01*
X13558Y35903D01*
X13541Y35970D01*
X13520Y36036D01*
X13496Y36100D01*
X13467Y36163D01*
X13436Y36224D01*
X13401Y36283D01*
X13363Y36341D01*
X13321Y36396D01*
X13277Y36448D01*
X13229Y36498D01*
X13179Y36546D01*
X13127Y36590D01*
X13072Y36632D01*
X13014Y36670D01*
X12955Y36705D01*
X12894Y36736D01*
X12831Y36765D01*
X12767Y36789D01*
X12701Y36810D01*
X12634Y36827D01*
X12567Y36841D01*
X12498Y36850D01*
X12430Y36856D01*
X12361Y36858D01*
X9906Y36858D01*
X9837Y36856D01*
X9769Y36850D01*
X9700Y36841D01*
X9633Y36827D01*
X9566Y36810D01*
X9500Y36789D01*
X9436Y36765D01*
X9373Y36736D01*
X9312Y36705D01*
X9253Y36670D01*
X9195Y36632D01*
X9140Y36590D01*
X9088Y36546D01*
X9038Y36498D01*
X8990Y36448D01*
X8946Y36396D01*
X8905Y36341D01*
X8866Y36283D01*
X8831Y36224D01*
X8800Y36163D01*
X8771Y36100D01*
X8747Y36036D01*
X8726Y35970D01*
X8709Y35903D01*
X8695Y35836D01*
X8686Y35768D01*
X8680Y35699D01*
X8678Y35630D01*
X8678Y33584D01*
X13180Y39609D02*
X13589Y39609D01*
X13180Y39609D02*
X13180Y40018D01*
X13589Y40018D01*
X13589Y39609D01*
X13589Y44046D02*
X13589Y45683D01*
X13589Y44046D02*
X13587Y43977D01*
X13581Y43909D01*
X13572Y43840D01*
X13558Y43773D01*
X13541Y43706D01*
X13520Y43640D01*
X13496Y43576D01*
X13467Y43513D01*
X13436Y43452D01*
X13401Y43393D01*
X13363Y43335D01*
X13321Y43280D01*
X13277Y43228D01*
X13229Y43178D01*
X13179Y43130D01*
X13127Y43086D01*
X13072Y43045D01*
X13014Y43006D01*
X12955Y42971D01*
X12894Y42940D01*
X12831Y42911D01*
X12767Y42887D01*
X12701Y42866D01*
X12634Y42849D01*
X12567Y42835D01*
X12499Y42826D01*
X12430Y42820D01*
X12361Y42818D01*
X9906Y42818D01*
X9837Y42820D01*
X9769Y42826D01*
X9700Y42835D01*
X9633Y42849D01*
X9566Y42866D01*
X9500Y42887D01*
X9436Y42911D01*
X9373Y42940D01*
X9312Y42971D01*
X9253Y43006D01*
X9195Y43044D01*
X9140Y43086D01*
X9088Y43130D01*
X9038Y43178D01*
X8990Y43228D01*
X8946Y43280D01*
X8904Y43335D01*
X8866Y43393D01*
X8831Y43452D01*
X8800Y43513D01*
X8771Y43576D01*
X8747Y43640D01*
X8726Y43706D01*
X8709Y43773D01*
X8695Y43840D01*
X8686Y43909D01*
X8680Y43977D01*
X8678Y44046D01*
X8678Y45683D01*
X10315Y48418D02*
X11952Y48418D01*
X10315Y48417D02*
X10236Y48419D01*
X10157Y48425D01*
X10078Y48434D01*
X10000Y48447D01*
X9923Y48465D01*
X9847Y48485D01*
X9772Y48510D01*
X9698Y48538D01*
X9625Y48569D01*
X9554Y48605D01*
X9485Y48643D01*
X9418Y48685D01*
X9353Y48730D01*
X9290Y48778D01*
X9229Y48829D01*
X9172Y48883D01*
X9116Y48939D01*
X9064Y48998D01*
X9014Y49060D01*
X8968Y49124D01*
X8924Y49190D01*
X8884Y49258D01*
X8848Y49328D01*
X8814Y49400D01*
X8784Y49474D01*
X8758Y49548D01*
X8735Y49624D01*
X8717Y49701D01*
X8701Y49778D01*
X8690Y49857D01*
X8682Y49935D01*
X8678Y50014D01*
X8678Y50094D01*
X8682Y50173D01*
X8690Y50251D01*
X8701Y50330D01*
X8717Y50407D01*
X8735Y50484D01*
X8758Y50560D01*
X8784Y50634D01*
X8814Y50708D01*
X8848Y50780D01*
X8884Y50850D01*
X8924Y50918D01*
X8968Y50984D01*
X9014Y51048D01*
X9064Y51110D01*
X9116Y51169D01*
X9172Y51225D01*
X9229Y51279D01*
X9290Y51330D01*
X9353Y51378D01*
X9418Y51423D01*
X9485Y51465D01*
X9554Y51503D01*
X9625Y51539D01*
X9698Y51570D01*
X9772Y51598D01*
X9847Y51623D01*
X9923Y51643D01*
X10000Y51661D01*
X10078Y51674D01*
X10157Y51683D01*
X10236Y51689D01*
X10315Y51691D01*
X11952Y51691D01*
X12031Y51689D01*
X12110Y51683D01*
X12189Y51674D01*
X12267Y51661D01*
X12344Y51643D01*
X12420Y51623D01*
X12495Y51598D01*
X12569Y51570D01*
X12642Y51539D01*
X12713Y51503D01*
X12782Y51465D01*
X12849Y51423D01*
X12914Y51378D01*
X12977Y51330D01*
X13038Y51279D01*
X13095Y51225D01*
X13151Y51169D01*
X13203Y51110D01*
X13253Y51048D01*
X13299Y50984D01*
X13343Y50918D01*
X13383Y50850D01*
X13419Y50780D01*
X13453Y50708D01*
X13483Y50634D01*
X13509Y50560D01*
X13532Y50484D01*
X13550Y50407D01*
X13566Y50330D01*
X13577Y50251D01*
X13585Y50173D01*
X13589Y50094D01*
X13589Y50014D01*
X13585Y49935D01*
X13577Y49857D01*
X13566Y49778D01*
X13550Y49701D01*
X13532Y49624D01*
X13509Y49548D01*
X13483Y49474D01*
X13453Y49400D01*
X13419Y49328D01*
X13383Y49258D01*
X13343Y49190D01*
X13299Y49124D01*
X13253Y49060D01*
X13203Y48998D01*
X13151Y48939D01*
X13095Y48883D01*
X13038Y48829D01*
X12977Y48778D01*
X12914Y48730D01*
X12849Y48685D01*
X12782Y48643D01*
X12713Y48605D01*
X12642Y48569D01*
X12569Y48538D01*
X12495Y48510D01*
X12420Y48485D01*
X12344Y48465D01*
X12267Y48447D01*
X12189Y48434D01*
X12110Y48425D01*
X12031Y48419D01*
X11952Y48417D01*
X13589Y55158D02*
X8678Y55158D01*
X8678Y58841D01*
X8680Y58910D01*
X8686Y58978D01*
X8695Y59047D01*
X8709Y59114D01*
X8726Y59181D01*
X8747Y59247D01*
X8771Y59311D01*
X8800Y59374D01*
X8831Y59435D01*
X8866Y59494D01*
X8904Y59552D01*
X8946Y59607D01*
X8990Y59659D01*
X9038Y59709D01*
X9088Y59757D01*
X9140Y59801D01*
X9195Y59843D01*
X9253Y59881D01*
X9312Y59916D01*
X9373Y59947D01*
X9436Y59976D01*
X9500Y60000D01*
X9566Y60021D01*
X9633Y60038D01*
X9700Y60052D01*
X9769Y60061D01*
X9837Y60067D01*
X9906Y60069D01*
X13589Y60069D01*
X13589Y57613D02*
X8678Y57613D01*
X14407Y63292D02*
X5405Y66565D01*
X13589Y69726D02*
X13589Y72999D01*
X13589Y69726D02*
X6223Y69726D01*
X6223Y72999D01*
X9497Y72181D02*
X9497Y69726D01*
X12361Y75810D02*
X6223Y75810D01*
X12361Y75810D02*
X12430Y75812D01*
X12498Y75818D01*
X12567Y75827D01*
X12634Y75841D01*
X12701Y75858D01*
X12767Y75879D01*
X12831Y75903D01*
X12894Y75932D01*
X12955Y75963D01*
X13014Y75998D01*
X13072Y76036D01*
X13127Y76078D01*
X13179Y76122D01*
X13229Y76170D01*
X13277Y76220D01*
X13321Y76272D01*
X13363Y76327D01*
X13401Y76385D01*
X13436Y76444D01*
X13467Y76505D01*
X13496Y76568D01*
X13520Y76632D01*
X13541Y76698D01*
X13558Y76765D01*
X13572Y76832D01*
X13581Y76901D01*
X13587Y76969D01*
X13589Y77038D01*
X13589Y80857D02*
X13589Y82903D01*
X13589Y80857D02*
X13587Y80788D01*
X13581Y80720D01*
X13572Y80651D01*
X13558Y80584D01*
X13541Y80517D01*
X13520Y80451D01*
X13496Y80387D01*
X13467Y80324D01*
X13436Y80263D01*
X13401Y80204D01*
X13363Y80146D01*
X13321Y80091D01*
X13277Y80039D01*
X13229Y79989D01*
X13179Y79941D01*
X13127Y79897D01*
X13072Y79856D01*
X13014Y79817D01*
X12955Y79782D01*
X12894Y79751D01*
X12831Y79722D01*
X12767Y79698D01*
X12701Y79677D01*
X12634Y79660D01*
X12567Y79646D01*
X12499Y79637D01*
X12430Y79631D01*
X12361Y79629D01*
X10315Y79629D01*
X10236Y79631D01*
X10157Y79637D01*
X10078Y79646D01*
X10000Y79659D01*
X9923Y79677D01*
X9847Y79697D01*
X9772Y79722D01*
X9698Y79750D01*
X9625Y79781D01*
X9554Y79817D01*
X9485Y79855D01*
X9418Y79897D01*
X9353Y79942D01*
X9290Y79990D01*
X9229Y80041D01*
X9172Y80095D01*
X9116Y80151D01*
X9064Y80210D01*
X9014Y80272D01*
X8968Y80336D01*
X8924Y80402D01*
X8884Y80470D01*
X8848Y80540D01*
X8814Y80612D01*
X8784Y80686D01*
X8758Y80760D01*
X8735Y80836D01*
X8717Y80913D01*
X8701Y80990D01*
X8690Y81069D01*
X8682Y81147D01*
X8678Y81226D01*
X8678Y81306D01*
X8682Y81385D01*
X8690Y81463D01*
X8701Y81542D01*
X8717Y81619D01*
X8735Y81696D01*
X8758Y81772D01*
X8784Y81846D01*
X8814Y81920D01*
X8848Y81992D01*
X8884Y82062D01*
X8924Y82130D01*
X8968Y82196D01*
X9014Y82260D01*
X9064Y82322D01*
X9116Y82381D01*
X9172Y82437D01*
X9229Y82491D01*
X9290Y82542D01*
X9353Y82590D01*
X9418Y82635D01*
X9485Y82677D01*
X9554Y82715D01*
X9625Y82751D01*
X9698Y82782D01*
X9772Y82810D01*
X9847Y82835D01*
X9923Y82855D01*
X10000Y82873D01*
X10078Y82886D01*
X10157Y82895D01*
X10236Y82901D01*
X10315Y82903D01*
X11134Y82903D01*
X11134Y79629D01*
X13589Y86369D02*
X8678Y86369D01*
X8678Y90052D01*
X8680Y90121D01*
X8686Y90189D01*
X8695Y90258D01*
X8709Y90325D01*
X8726Y90392D01*
X8747Y90458D01*
X8771Y90522D01*
X8800Y90585D01*
X8831Y90646D01*
X8866Y90705D01*
X8904Y90763D01*
X8946Y90818D01*
X8990Y90870D01*
X9038Y90920D01*
X9088Y90968D01*
X9140Y91012D01*
X9195Y91054D01*
X9253Y91092D01*
X9312Y91127D01*
X9373Y91158D01*
X9436Y91187D01*
X9500Y91211D01*
X9566Y91232D01*
X9633Y91249D01*
X9700Y91263D01*
X9769Y91272D01*
X9837Y91278D01*
X9906Y91280D01*
X13589Y91280D01*
X13589Y88825D02*
X8678Y88825D01*
X13589Y95975D02*
X13589Y98021D01*
X13589Y95975D02*
X13587Y95906D01*
X13581Y95838D01*
X13572Y95769D01*
X13558Y95702D01*
X13541Y95635D01*
X13520Y95569D01*
X13496Y95505D01*
X13467Y95442D01*
X13436Y95381D01*
X13401Y95322D01*
X13363Y95264D01*
X13321Y95209D01*
X13277Y95157D01*
X13229Y95107D01*
X13179Y95059D01*
X13127Y95015D01*
X13072Y94974D01*
X13014Y94935D01*
X12955Y94900D01*
X12894Y94869D01*
X12831Y94840D01*
X12767Y94816D01*
X12701Y94795D01*
X12634Y94778D01*
X12567Y94764D01*
X12499Y94755D01*
X12430Y94749D01*
X12361Y94747D01*
X10315Y94747D01*
X10236Y94749D01*
X10157Y94755D01*
X10078Y94764D01*
X10000Y94777D01*
X9923Y94795D01*
X9847Y94815D01*
X9772Y94840D01*
X9698Y94868D01*
X9625Y94899D01*
X9554Y94935D01*
X9485Y94973D01*
X9418Y95015D01*
X9353Y95060D01*
X9290Y95108D01*
X9229Y95159D01*
X9172Y95213D01*
X9116Y95269D01*
X9064Y95328D01*
X9014Y95390D01*
X8968Y95454D01*
X8924Y95520D01*
X8884Y95588D01*
X8848Y95658D01*
X8814Y95730D01*
X8784Y95804D01*
X8758Y95878D01*
X8735Y95954D01*
X8717Y96031D01*
X8701Y96108D01*
X8690Y96187D01*
X8682Y96265D01*
X8678Y96344D01*
X8678Y96424D01*
X8682Y96503D01*
X8690Y96581D01*
X8701Y96660D01*
X8717Y96737D01*
X8735Y96814D01*
X8758Y96890D01*
X8784Y96964D01*
X8814Y97038D01*
X8848Y97110D01*
X8884Y97180D01*
X8924Y97248D01*
X8968Y97314D01*
X9014Y97378D01*
X9064Y97440D01*
X9116Y97499D01*
X9172Y97555D01*
X9229Y97609D01*
X9290Y97660D01*
X9353Y97708D01*
X9418Y97753D01*
X9485Y97795D01*
X9554Y97833D01*
X9625Y97869D01*
X9698Y97900D01*
X9772Y97928D01*
X9847Y97953D01*
X9923Y97973D01*
X10000Y97991D01*
X10078Y98004D01*
X10157Y98013D01*
X10236Y98019D01*
X10315Y98021D01*
X11134Y98021D01*
X11134Y94747D01*
X13589Y101331D02*
X8678Y101331D01*
X8678Y103377D01*
X8680Y103446D01*
X8686Y103514D01*
X8695Y103583D01*
X8709Y103650D01*
X8726Y103717D01*
X8747Y103783D01*
X8771Y103847D01*
X8800Y103910D01*
X8831Y103971D01*
X8866Y104030D01*
X8904Y104088D01*
X8946Y104143D01*
X8990Y104195D01*
X9038Y104245D01*
X9088Y104293D01*
X9140Y104337D01*
X9195Y104379D01*
X9253Y104417D01*
X9312Y104452D01*
X9373Y104483D01*
X9436Y104512D01*
X9500Y104536D01*
X9566Y104557D01*
X9633Y104574D01*
X9700Y104588D01*
X9769Y104597D01*
X9837Y104603D01*
X9906Y104605D01*
X9906Y104604D02*
X13589Y104604D01*
X8678Y107284D02*
X8678Y109739D01*
X6223Y108102D02*
X12361Y108102D01*
X12430Y108104D01*
X12498Y108110D01*
X12567Y108119D01*
X12634Y108133D01*
X12701Y108150D01*
X12767Y108171D01*
X12831Y108195D01*
X12894Y108224D01*
X12955Y108255D01*
X13014Y108290D01*
X13072Y108328D01*
X13127Y108370D01*
X13179Y108414D01*
X13229Y108462D01*
X13277Y108512D01*
X13321Y108564D01*
X13363Y108619D01*
X13401Y108677D01*
X13436Y108736D01*
X13467Y108797D01*
X13496Y108860D01*
X13520Y108924D01*
X13541Y108990D01*
X13558Y109057D01*
X13572Y109124D01*
X13581Y109193D01*
X13587Y109261D01*
X13589Y109330D01*
X13589Y109739D01*
X7860Y112626D02*
X6223Y114672D01*
X13589Y114672D01*
X13589Y112626D02*
X13589Y116718D01*
X11543Y119941D02*
X11454Y119943D01*
X11365Y119949D01*
X11276Y119959D01*
X11188Y119972D01*
X11100Y119989D01*
X11013Y120011D01*
X10928Y120036D01*
X10843Y120064D01*
X10760Y120097D01*
X10678Y120133D01*
X10598Y120172D01*
X10520Y120215D01*
X10444Y120261D01*
X10369Y120311D01*
X10297Y120364D01*
X10228Y120420D01*
X10161Y120479D01*
X10096Y120540D01*
X10035Y120605D01*
X9976Y120672D01*
X9920Y120741D01*
X9867Y120813D01*
X9817Y120888D01*
X9771Y120964D01*
X9728Y121042D01*
X9689Y121122D01*
X9653Y121204D01*
X9620Y121287D01*
X9592Y121372D01*
X9567Y121457D01*
X9545Y121544D01*
X9528Y121632D01*
X9515Y121720D01*
X9505Y121809D01*
X9499Y121898D01*
X9497Y121987D01*
X9499Y122076D01*
X9505Y122165D01*
X9515Y122254D01*
X9528Y122342D01*
X9545Y122430D01*
X9567Y122517D01*
X9592Y122602D01*
X9620Y122687D01*
X9653Y122770D01*
X9689Y122852D01*
X9728Y122932D01*
X9771Y123010D01*
X9817Y123086D01*
X9867Y123161D01*
X9920Y123233D01*
X9976Y123302D01*
X10035Y123369D01*
X10096Y123434D01*
X10161Y123495D01*
X10228Y123554D01*
X10297Y123610D01*
X10369Y123663D01*
X10444Y123713D01*
X10520Y123759D01*
X10598Y123802D01*
X10678Y123841D01*
X10760Y123877D01*
X10843Y123910D01*
X10928Y123938D01*
X11013Y123963D01*
X11100Y123985D01*
X11188Y124002D01*
X11276Y124015D01*
X11365Y124025D01*
X11454Y124031D01*
X11543Y124033D01*
X11632Y124031D01*
X11721Y124025D01*
X11810Y124015D01*
X11898Y124002D01*
X11986Y123985D01*
X12073Y123963D01*
X12158Y123938D01*
X12243Y123910D01*
X12326Y123877D01*
X12408Y123841D01*
X12488Y123802D01*
X12566Y123759D01*
X12642Y123713D01*
X12717Y123663D01*
X12789Y123610D01*
X12858Y123554D01*
X12925Y123495D01*
X12990Y123434D01*
X13051Y123369D01*
X13110Y123302D01*
X13166Y123233D01*
X13219Y123161D01*
X13269Y123086D01*
X13315Y123010D01*
X13358Y122932D01*
X13397Y122852D01*
X13433Y122770D01*
X13466Y122687D01*
X13494Y122602D01*
X13519Y122517D01*
X13541Y122430D01*
X13558Y122342D01*
X13571Y122254D01*
X13581Y122165D01*
X13587Y122076D01*
X13589Y121987D01*
X13587Y121898D01*
X13581Y121809D01*
X13571Y121720D01*
X13558Y121632D01*
X13541Y121544D01*
X13519Y121457D01*
X13494Y121372D01*
X13466Y121287D01*
X13433Y121204D01*
X13397Y121122D01*
X13358Y121042D01*
X13315Y120964D01*
X13269Y120888D01*
X13219Y120813D01*
X13166Y120741D01*
X13110Y120672D01*
X13051Y120605D01*
X12990Y120540D01*
X12925Y120479D01*
X12858Y120420D01*
X12789Y120364D01*
X12717Y120311D01*
X12642Y120261D01*
X12566Y120215D01*
X12488Y120172D01*
X12408Y120133D01*
X12326Y120097D01*
X12243Y120064D01*
X12158Y120036D01*
X12073Y120011D01*
X11986Y119989D01*
X11898Y119972D01*
X11810Y119959D01*
X11721Y119949D01*
X11632Y119943D01*
X11543Y119941D01*
X7860Y120350D02*
X7781Y120352D01*
X7702Y120358D01*
X7623Y120367D01*
X7545Y120380D01*
X7468Y120398D01*
X7392Y120418D01*
X7317Y120443D01*
X7243Y120471D01*
X7170Y120502D01*
X7099Y120538D01*
X7030Y120576D01*
X6963Y120618D01*
X6898Y120663D01*
X6835Y120711D01*
X6774Y120762D01*
X6717Y120816D01*
X6661Y120872D01*
X6609Y120931D01*
X6559Y120993D01*
X6513Y121057D01*
X6469Y121123D01*
X6429Y121191D01*
X6393Y121261D01*
X6359Y121333D01*
X6329Y121407D01*
X6303Y121481D01*
X6280Y121557D01*
X6262Y121634D01*
X6246Y121711D01*
X6235Y121790D01*
X6227Y121868D01*
X6223Y121947D01*
X6223Y122027D01*
X6227Y122106D01*
X6235Y122184D01*
X6246Y122263D01*
X6262Y122340D01*
X6280Y122417D01*
X6303Y122493D01*
X6329Y122567D01*
X6359Y122641D01*
X6393Y122713D01*
X6429Y122783D01*
X6469Y122851D01*
X6513Y122917D01*
X6559Y122981D01*
X6609Y123043D01*
X6661Y123102D01*
X6717Y123158D01*
X6774Y123212D01*
X6835Y123263D01*
X6898Y123311D01*
X6963Y123356D01*
X7030Y123398D01*
X7099Y123436D01*
X7170Y123472D01*
X7243Y123503D01*
X7317Y123531D01*
X7392Y123556D01*
X7468Y123576D01*
X7545Y123594D01*
X7623Y123607D01*
X7702Y123616D01*
X7781Y123622D01*
X7860Y123624D01*
X7939Y123622D01*
X8018Y123616D01*
X8097Y123607D01*
X8175Y123594D01*
X8252Y123576D01*
X8328Y123556D01*
X8403Y123531D01*
X8477Y123503D01*
X8550Y123472D01*
X8621Y123436D01*
X8690Y123398D01*
X8757Y123356D01*
X8822Y123311D01*
X8885Y123263D01*
X8946Y123212D01*
X9003Y123158D01*
X9059Y123102D01*
X9111Y123043D01*
X9161Y122981D01*
X9207Y122917D01*
X9251Y122851D01*
X9291Y122783D01*
X9327Y122713D01*
X9361Y122641D01*
X9391Y122567D01*
X9417Y122493D01*
X9440Y122417D01*
X9458Y122340D01*
X9474Y122263D01*
X9485Y122184D01*
X9493Y122106D01*
X9497Y122027D01*
X9497Y121947D01*
X9493Y121868D01*
X9485Y121790D01*
X9474Y121711D01*
X9458Y121634D01*
X9440Y121557D01*
X9417Y121481D01*
X9391Y121407D01*
X9361Y121333D01*
X9327Y121261D01*
X9291Y121191D01*
X9251Y121123D01*
X9207Y121057D01*
X9161Y120993D01*
X9111Y120931D01*
X9059Y120872D01*
X9003Y120816D01*
X8946Y120762D01*
X8885Y120711D01*
X8822Y120663D01*
X8757Y120618D01*
X8690Y120576D01*
X8621Y120538D01*
X8550Y120502D01*
X8477Y120471D01*
X8403Y120443D01*
X8328Y120418D01*
X8252Y120398D01*
X8175Y120380D01*
X8097Y120367D01*
X8018Y120358D01*
X7939Y120352D01*
X7860Y120350D01*
X13589Y127256D02*
X13589Y129711D01*
X13587Y129789D01*
X13582Y129867D01*
X13572Y129944D01*
X13559Y130021D01*
X13543Y130097D01*
X13523Y130172D01*
X13499Y130246D01*
X13472Y130319D01*
X13441Y130391D01*
X13407Y130461D01*
X13370Y130530D01*
X13329Y130596D01*
X13285Y130661D01*
X13239Y130723D01*
X13189Y130783D01*
X13137Y130841D01*
X13082Y130896D01*
X13024Y130948D01*
X12964Y130998D01*
X12902Y131044D01*
X12837Y131088D01*
X12771Y131129D01*
X12702Y131166D01*
X12632Y131200D01*
X12560Y131231D01*
X12487Y131258D01*
X12413Y131282D01*
X12338Y131302D01*
X12262Y131318D01*
X12185Y131331D01*
X12108Y131341D01*
X12030Y131346D01*
X11952Y131348D01*
X11134Y131348D01*
X11054Y131346D01*
X10974Y131340D01*
X10894Y131330D01*
X10815Y131317D01*
X10736Y131299D01*
X10659Y131278D01*
X10583Y131252D01*
X10508Y131223D01*
X10434Y131191D01*
X10362Y131155D01*
X10292Y131115D01*
X10225Y131072D01*
X10159Y131026D01*
X10096Y130976D01*
X10035Y130924D01*
X9976Y130869D01*
X9921Y130810D01*
X9869Y130750D01*
X9819Y130686D01*
X9773Y130620D01*
X9730Y130553D01*
X9690Y130483D01*
X9654Y130411D01*
X9622Y130337D01*
X9593Y130263D01*
X9567Y130186D01*
X9546Y130109D01*
X9528Y130030D01*
X9515Y129951D01*
X9505Y129871D01*
X9499Y129791D01*
X9497Y129711D01*
X9497Y127256D01*
X6223Y127256D01*
X6223Y131348D01*
X10315Y136208D02*
X10315Y138663D01*
X10315Y136208D02*
X10313Y136130D01*
X10308Y136052D01*
X10298Y135975D01*
X10285Y135898D01*
X10269Y135822D01*
X10249Y135747D01*
X10225Y135673D01*
X10198Y135600D01*
X10167Y135528D01*
X10133Y135458D01*
X10096Y135390D01*
X10055Y135323D01*
X10011Y135258D01*
X9965Y135196D01*
X9915Y135136D01*
X9863Y135078D01*
X9808Y135023D01*
X9750Y134971D01*
X9690Y134921D01*
X9628Y134875D01*
X9563Y134831D01*
X9497Y134790D01*
X9428Y134753D01*
X9358Y134719D01*
X9286Y134688D01*
X9213Y134661D01*
X9139Y134637D01*
X9064Y134617D01*
X8988Y134601D01*
X8911Y134588D01*
X8834Y134578D01*
X8756Y134573D01*
X8678Y134571D01*
X8269Y134571D01*
X8180Y134573D01*
X8091Y134579D01*
X8002Y134589D01*
X7914Y134602D01*
X7826Y134619D01*
X7739Y134641D01*
X7654Y134666D01*
X7569Y134694D01*
X7486Y134727D01*
X7404Y134763D01*
X7324Y134802D01*
X7246Y134845D01*
X7170Y134891D01*
X7095Y134941D01*
X7023Y134994D01*
X6954Y135050D01*
X6887Y135109D01*
X6822Y135170D01*
X6761Y135235D01*
X6702Y135302D01*
X6646Y135371D01*
X6593Y135443D01*
X6543Y135518D01*
X6497Y135594D01*
X6454Y135672D01*
X6415Y135752D01*
X6379Y135834D01*
X6346Y135917D01*
X6318Y136002D01*
X6293Y136087D01*
X6271Y136174D01*
X6254Y136262D01*
X6241Y136350D01*
X6231Y136439D01*
X6225Y136528D01*
X6223Y136617D01*
X6225Y136706D01*
X6231Y136795D01*
X6241Y136884D01*
X6254Y136972D01*
X6271Y137060D01*
X6293Y137147D01*
X6318Y137232D01*
X6346Y137317D01*
X6379Y137400D01*
X6415Y137482D01*
X6454Y137562D01*
X6497Y137640D01*
X6543Y137716D01*
X6593Y137791D01*
X6646Y137863D01*
X6702Y137932D01*
X6761Y137999D01*
X6822Y138064D01*
X6887Y138125D01*
X6954Y138184D01*
X7023Y138240D01*
X7095Y138293D01*
X7170Y138343D01*
X7246Y138389D01*
X7324Y138432D01*
X7404Y138471D01*
X7486Y138507D01*
X7569Y138540D01*
X7654Y138568D01*
X7739Y138593D01*
X7826Y138615D01*
X7914Y138632D01*
X8002Y138645D01*
X8091Y138655D01*
X8180Y138661D01*
X8269Y138663D01*
X10315Y138663D01*
X10315Y138664D02*
X10427Y138662D01*
X10538Y138656D01*
X10650Y138647D01*
X10761Y138634D01*
X10871Y138616D01*
X10981Y138596D01*
X11090Y138571D01*
X11198Y138543D01*
X11305Y138511D01*
X11411Y138475D01*
X11516Y138436D01*
X11619Y138393D01*
X11721Y138347D01*
X11821Y138297D01*
X11920Y138244D01*
X12016Y138187D01*
X12111Y138128D01*
X12203Y138065D01*
X12293Y137999D01*
X12381Y137930D01*
X12467Y137858D01*
X12550Y137783D01*
X12630Y137705D01*
X12708Y137625D01*
X12783Y137542D01*
X12855Y137456D01*
X12924Y137368D01*
X12990Y137278D01*
X13053Y137186D01*
X13112Y137091D01*
X13169Y136995D01*
X13222Y136896D01*
X13272Y136796D01*
X13318Y136694D01*
X13361Y136591D01*
X13400Y136486D01*
X13436Y136380D01*
X13468Y136273D01*
X13496Y136165D01*
X13521Y136056D01*
X13541Y135946D01*
X13559Y135836D01*
X13572Y135725D01*
X13581Y135613D01*
X13587Y135502D01*
X13589Y135390D01*
X6223Y144137D02*
X6225Y144222D01*
X6231Y144307D01*
X6241Y144391D01*
X6254Y144475D01*
X6272Y144559D01*
X6293Y144641D01*
X6318Y144722D01*
X6347Y144802D01*
X6380Y144881D01*
X6416Y144958D01*
X6456Y145033D01*
X6499Y145107D01*
X6545Y145178D01*
X6595Y145247D01*
X6648Y145314D01*
X6704Y145378D01*
X6763Y145439D01*
X6824Y145498D01*
X6888Y145554D01*
X6955Y145607D01*
X7024Y145657D01*
X7095Y145703D01*
X7169Y145746D01*
X7244Y145786D01*
X7321Y145822D01*
X7400Y145855D01*
X7480Y145884D01*
X7561Y145909D01*
X7643Y145930D01*
X7727Y145948D01*
X7811Y145961D01*
X7895Y145971D01*
X7980Y145977D01*
X8065Y145979D01*
X6223Y144137D02*
X6225Y144041D01*
X6231Y143945D01*
X6241Y143850D01*
X6254Y143755D01*
X6272Y143660D01*
X6293Y143567D01*
X6318Y143474D01*
X6347Y143383D01*
X6379Y143292D01*
X6415Y143203D01*
X6455Y143116D01*
X6498Y143030D01*
X6544Y142946D01*
X6594Y142864D01*
X6648Y142784D01*
X6704Y142707D01*
X6764Y142632D01*
X6826Y142559D01*
X6892Y142489D01*
X6960Y142421D01*
X7031Y142356D01*
X7104Y142295D01*
X7180Y142236D01*
X7259Y142180D01*
X7339Y142128D01*
X7422Y142079D01*
X7506Y142033D01*
X7592Y141991D01*
X7680Y141953D01*
X7769Y141918D01*
X7860Y141886D01*
X9497Y145365D02*
X9438Y145425D01*
X9376Y145482D01*
X9312Y145537D01*
X9245Y145588D01*
X9176Y145637D01*
X9106Y145683D01*
X9033Y145726D01*
X8959Y145766D01*
X8883Y145802D01*
X8805Y145835D01*
X8726Y145865D01*
X8646Y145892D01*
X8565Y145915D01*
X8483Y145934D01*
X8401Y145950D01*
X8317Y145963D01*
X8233Y145972D01*
X8149Y145977D01*
X8065Y145979D01*
X9497Y145365D02*
X13589Y141886D01*
X13589Y145979D01*
D12*
X112810Y208480D02*
X112810Y4880D01*
X21810Y4880D01*
X21810Y208480D01*
X112810Y208480D01*
D10*
X51364Y169531D02*
X48768Y172776D01*
X60452Y172776D01*
X60452Y169531D02*
X60452Y176022D01*
X15622Y161411D02*
X15622Y156219D01*
X3938Y156219D01*
X3938Y161411D01*
X9131Y160113D02*
X9131Y156219D01*
X15622Y165072D02*
X3938Y172861D01*
X3938Y165072D02*
X15622Y172861D01*
X15622Y177701D02*
X3938Y177701D01*
X3938Y180947D01*
X3940Y181060D01*
X3946Y181173D01*
X3956Y181286D01*
X3970Y181399D01*
X3987Y181511D01*
X4009Y181622D01*
X4034Y181732D01*
X4064Y181842D01*
X4097Y181950D01*
X4134Y182057D01*
X4174Y182163D01*
X4219Y182267D01*
X4267Y182370D01*
X4318Y182471D01*
X4373Y182570D01*
X4431Y182667D01*
X4493Y182762D01*
X4558Y182855D01*
X4626Y182945D01*
X4697Y183033D01*
X4772Y183119D01*
X4849Y183202D01*
X4929Y183282D01*
X5012Y183359D01*
X5098Y183434D01*
X5186Y183505D01*
X5276Y183573D01*
X5369Y183638D01*
X5464Y183700D01*
X5561Y183758D01*
X5660Y183813D01*
X5761Y183864D01*
X5864Y183912D01*
X5968Y183957D01*
X6074Y183997D01*
X6181Y184034D01*
X6289Y184067D01*
X6399Y184097D01*
X6509Y184122D01*
X6620Y184144D01*
X6732Y184161D01*
X6845Y184175D01*
X6958Y184185D01*
X7071Y184191D01*
X7184Y184193D01*
X7297Y184191D01*
X7410Y184185D01*
X7523Y184175D01*
X7636Y184161D01*
X7748Y184144D01*
X7859Y184122D01*
X7969Y184097D01*
X8079Y184067D01*
X8187Y184034D01*
X8294Y183997D01*
X8400Y183957D01*
X8504Y183912D01*
X8607Y183864D01*
X8708Y183813D01*
X8807Y183758D01*
X8904Y183700D01*
X8999Y183638D01*
X9092Y183573D01*
X9182Y183505D01*
X9270Y183434D01*
X9356Y183359D01*
X9439Y183282D01*
X9519Y183202D01*
X9596Y183119D01*
X9671Y183033D01*
X9742Y182945D01*
X9810Y182855D01*
X9875Y182762D01*
X9937Y182667D01*
X9995Y182570D01*
X10050Y182471D01*
X10101Y182370D01*
X10149Y182267D01*
X10194Y182163D01*
X10234Y182057D01*
X10271Y181950D01*
X10304Y181842D01*
X10334Y181732D01*
X10359Y181622D01*
X10381Y181511D01*
X10398Y181399D01*
X10412Y181286D01*
X10422Y181173D01*
X10428Y181060D01*
X10430Y180947D01*
X10429Y180947D02*
X10429Y177701D01*
X6534Y188581D02*
X3938Y191826D01*
X15622Y191826D01*
X15622Y188581D02*
X15622Y195072D01*
D12*
X227110Y208480D02*
X227110Y4880D01*
X136110Y4880D01*
X136110Y208480D01*
X227110Y208480D01*
D10*
X165664Y169531D02*
X163068Y172776D01*
X174752Y172776D01*
X174752Y169531D02*
X174752Y176022D01*
X129922Y161411D02*
X129922Y156219D01*
X118238Y156219D01*
X118238Y161411D01*
X123431Y160113D02*
X123431Y156219D01*
X129922Y165072D02*
X118238Y172861D01*
X118238Y165072D02*
X129922Y172861D01*
X129922Y177701D02*
X118238Y177701D01*
X118238Y180947D01*
X118240Y181060D01*
X118246Y181173D01*
X118256Y181286D01*
X118270Y181399D01*
X118287Y181511D01*
X118309Y181622D01*
X118334Y181732D01*
X118364Y181842D01*
X118397Y181950D01*
X118434Y182057D01*
X118474Y182163D01*
X118519Y182267D01*
X118567Y182370D01*
X118618Y182471D01*
X118673Y182570D01*
X118731Y182667D01*
X118793Y182762D01*
X118858Y182855D01*
X118926Y182945D01*
X118997Y183033D01*
X119072Y183119D01*
X119149Y183202D01*
X119229Y183282D01*
X119312Y183359D01*
X119398Y183434D01*
X119486Y183505D01*
X119576Y183573D01*
X119669Y183638D01*
X119764Y183700D01*
X119861Y183758D01*
X119960Y183813D01*
X120061Y183864D01*
X120164Y183912D01*
X120268Y183957D01*
X120374Y183997D01*
X120481Y184034D01*
X120589Y184067D01*
X120699Y184097D01*
X120809Y184122D01*
X120920Y184144D01*
X121032Y184161D01*
X121145Y184175D01*
X121258Y184185D01*
X121371Y184191D01*
X121484Y184193D01*
X121597Y184191D01*
X121710Y184185D01*
X121823Y184175D01*
X121936Y184161D01*
X122048Y184144D01*
X122159Y184122D01*
X122269Y184097D01*
X122379Y184067D01*
X122487Y184034D01*
X122594Y183997D01*
X122700Y183957D01*
X122804Y183912D01*
X122907Y183864D01*
X123008Y183813D01*
X123107Y183758D01*
X123204Y183700D01*
X123299Y183638D01*
X123392Y183573D01*
X123482Y183505D01*
X123570Y183434D01*
X123656Y183359D01*
X123739Y183282D01*
X123819Y183202D01*
X123896Y183119D01*
X123971Y183033D01*
X124042Y182945D01*
X124110Y182855D01*
X124175Y182762D01*
X124237Y182667D01*
X124295Y182570D01*
X124350Y182471D01*
X124401Y182370D01*
X124449Y182267D01*
X124494Y182163D01*
X124534Y182057D01*
X124571Y181950D01*
X124604Y181842D01*
X124634Y181732D01*
X124659Y181622D01*
X124681Y181511D01*
X124698Y181399D01*
X124712Y181286D01*
X124722Y181173D01*
X124728Y181060D01*
X124730Y180947D01*
X124729Y180947D02*
X124729Y177701D01*
X118238Y192151D02*
X118240Y192258D01*
X118246Y192364D01*
X118256Y192470D01*
X118269Y192576D01*
X118287Y192682D01*
X118308Y192786D01*
X118333Y192890D01*
X118362Y192993D01*
X118394Y193094D01*
X118431Y193194D01*
X118471Y193293D01*
X118514Y193391D01*
X118561Y193487D01*
X118612Y193581D01*
X118666Y193673D01*
X118723Y193763D01*
X118783Y193851D01*
X118847Y193936D01*
X118914Y194019D01*
X118984Y194100D01*
X119056Y194178D01*
X119132Y194254D01*
X119210Y194326D01*
X119291Y194396D01*
X119374Y194463D01*
X119459Y194527D01*
X119547Y194587D01*
X119637Y194644D01*
X119729Y194698D01*
X119823Y194749D01*
X119919Y194796D01*
X120017Y194839D01*
X120116Y194879D01*
X120216Y194916D01*
X120317Y194948D01*
X120420Y194977D01*
X120524Y195002D01*
X120628Y195023D01*
X120734Y195041D01*
X120840Y195054D01*
X120946Y195064D01*
X121052Y195070D01*
X121159Y195072D01*
X118238Y192151D02*
X118240Y192030D01*
X118246Y191909D01*
X118256Y191789D01*
X118269Y191668D01*
X118287Y191549D01*
X118308Y191429D01*
X118333Y191311D01*
X118362Y191194D01*
X118395Y191077D01*
X118431Y190962D01*
X118472Y190848D01*
X118515Y190735D01*
X118563Y190623D01*
X118614Y190514D01*
X118669Y190406D01*
X118727Y190299D01*
X118788Y190195D01*
X118853Y190093D01*
X118921Y189993D01*
X118992Y189895D01*
X119066Y189799D01*
X119143Y189706D01*
X119224Y189616D01*
X119307Y189528D01*
X119393Y189443D01*
X119482Y189360D01*
X119573Y189281D01*
X119667Y189204D01*
X119763Y189131D01*
X119861Y189061D01*
X119962Y188994D01*
X120065Y188930D01*
X120170Y188870D01*
X120277Y188812D01*
X120385Y188759D01*
X120495Y188709D01*
X120607Y188663D01*
X120720Y188620D01*
X120835Y188581D01*
X123431Y194098D02*
X123353Y194177D01*
X123273Y194253D01*
X123190Y194326D01*
X123104Y194396D01*
X123017Y194463D01*
X122926Y194527D01*
X122834Y194587D01*
X122740Y194645D01*
X122643Y194699D01*
X122545Y194749D01*
X122445Y194796D01*
X122344Y194840D01*
X122241Y194880D01*
X122136Y194916D01*
X122031Y194948D01*
X121924Y194977D01*
X121817Y195002D01*
X121708Y195024D01*
X121599Y195041D01*
X121490Y195055D01*
X121380Y195064D01*
X121269Y195070D01*
X121159Y195072D01*
X123431Y194098D02*
X129922Y188581D01*
X129922Y195072D01*
D13*
X245110Y170180D02*
X245110Y24480D01*
X297760Y24480D01*
X297760Y185380D01*
X257810Y185380D01*
M02*
